<?xml version="1.0" standalone="no"?>
<!DOCTYPE svg PUBLIC "-//W3C//DTD SVG 1.1//EN" "http://www.w3.org/Graphics/SVG/1.1/DTD/svg11.dtd" >
<svg>
<metadata>
Created by FontForge 20090914 at Mon Mar 11 19:37:58 2019
 By www-data
(c) Copyright The Font Bureau, Inc. 2014. All rights reserved.
</metadata>
<defs>
<font id="InputMono-Medium" horiz-adv-x="700" >
  <font-face 
    font-family="InputMono Medium"
    font-weight="500"
    font-stretch="normal"
    units-per-em="1100"
    panose-1="2 0 7 9 3 0 0 9 0 4"
    ascent="850"
    descent="-250"
    x-height="599.999"
    cap-height="800"
    bbox="-271.999 -450 958.999 1400"
    underline-thickness="0"
    underline-position="0"
    unicode-range="U+000D-U+1F41B"
  />
<missing-glyph 
d="M50 -250v1100h600v-1100h-600zM150 -150h400v900h-400v-900z" />
    <glyph glyph-name=".notdef" 
d="M50 -250v1100h600v-1100h-600zM150 -150h400v900h-400v-900z" />
    <glyph glyph-name="NULL" horiz-adv-x="0" 
 />
    <glyph glyph-name="nonmarkingreturn" unicode="&#xd;" horiz-adv-x="0" 
 />
    <glyph glyph-name="space" unicode="&#xa0;" 
 />
    <glyph glyph-name="space" unicode=" " 
 />
    <glyph glyph-name="exclam" unicode="!" 
d="M283 300l-30 500h190l-30 -500h-130zM351 -10c-40.667 0 -71.167 6.83301 -91.5 20.5s-30.5 34.834 -30.5 63.501v28c0 29.333 10.167 51 30.5 65s50.833 21 91.5 21s71 -7 91 -21s30 -35.667 30 -65v-28c0 -28.667 -10.167 -49.834 -30.5 -63.501
s-50.5 -20.5 -90.5 -20.5z" />
    <glyph glyph-name="quotedbl" unicode="&#x22;" 
d="M438 375l-33 425h190l-33 -425h-124zM138 375l-33 425h190l-33 -425h-124z" />
    <glyph glyph-name="numbersign" unicode="#" 
d="M410 295l11 210h-130l-11 -210h130zM395 0l10 185h-130l-10 -185h-120l10 185h-130v110h135l11 210h-146v110h151l9 185h120l-9 -185h130l9 185h120l-9 -185h129v-110h-134l-11 -210h145v-110h-150l-10 -185h-120z" />
    <glyph glyph-name="dollar" unicode="$" 
d="M207 564c0 -21.333 7.66699 -39 23 -53s42 -26.667 80 -38v173c-33.333 -2.66699 -58.833 -10 -76.5 -22s-26.5 -32 -26.5 -60zM506 238c0 22.667 -8.66699 41.001 -26 55.001s-47.333 26.667 -90 38v-181c38 1.33301 66.833 9.16602 86.5 23.499s29.5 35.833 29.5 64.5z
M400 -49.999l-100 -0.00195312v95c-50.667 4 -96 13.167 -136 27.5s-74.667 31.166 -104 50.499l36 106c30 -18.667 62.333 -35 97 -49s73.667 -23.333 117 -28v196c-87.333 16.667 -148.833 40.334 -184.5 71.001s-53.5 74 -53.5 130c0 58 18.667 105.167 56 141.5
s94.666 57.833 171.999 64.5v95h100v-95c39.333 -4 77.833 -11.667 115.5 -23s68.167 -25.333 91.5 -42l-31 -104c-28.667 16 -58.167 29 -88.5 39s-62.833 16.667 -97.5 20v-189c92.667 -18.667 157.834 -43.5 195.501 -74.5s56.5 -74.833 56.5 -131.5
c0 -61.333 -21.167 -109.666 -63.5 -144.999s-101.833 -55.666 -178.5 -60.999v-94z" />
    <glyph glyph-name="percent" unicode="%" 
d="M193 458c-48.667 0 -88 12.667 -118 38s-45 64.333 -45 117v50c0 53.333 15.167 92.833 45.5 118.5s69.5 38.5 117.5 38.5s86.833 -12.833 116.5 -38.5s44.5 -65.167 44.5 -118.5v-50c0 -52.667 -14.833 -91.667 -44.5 -117s-68.5 -38 -116.5 -38zM193 547
c16 0 28.667 4.83301 38 14.5s14 25.5 14 47.5v59c0 22 -4.66699 38.167 -14 48.5s-22 15.5 -38 15.5c-16.667 0 -29.667 -5.16699 -39 -15.5s-14 -26.5 -14 -48.5v-59c0 -22 4.66699 -37.833 14 -47.5s22.333 -14.5 39 -14.5zM38 181l564 515l67 -73l-569 -517zM509 -22
c-48.667 0 -88 12.667 -118 38s-45 64.333 -45 117v50c0 53.333 15.167 92.833 45.5 118.5s69.5 38.5 117.5 38.5s86.833 -12.833 116.5 -38.5s44.5 -65.167 44.5 -118.5v-50c0 -52.667 -14.833 -91.667 -44.5 -117s-68.5 -38 -116.5 -38zM509 64
c16 0 28.667 4.83301 38 14.5s14 25.5 14 47.5v59c0 22 -4.66699 38.167 -14 48.5s-22 15.5 -38 15.5c-16.667 0 -29.667 -5.16699 -39 -15.5s-14 -26.5 -14 -48.5v-59c0 -22 4.66699 -37.833 14 -47.5s22.333 -14.5 39 -14.5z" />
    <glyph glyph-name="ampersand" unicode="&#x26;" 
d="M666 -14c-38 10.667 -74.335 24.832 -109.002 42.499s-67.667 37.5 -99 59.5c-29.333 -30.667 -61 -54.667 -95 -72s-75 -26 -123 -26c-60 0 -110 18.167 -150 54.5s-60 86.833 -60 151.5c0 52 12.333 96.5 37 133.5s60 69.5 106 97.5
c-15.333 32.667 -27.166 63.334 -35.499 92.001s-12.5 54 -12.5 76c0 66.667 17.5 119.334 52.5 158.001s83.5 58 145.5 58c57.333 0 102.166 -17.5 134.499 -52.5s48.5 -74.5 48.5 -118.5c0 -52 -14 -93.667 -42 -125s-82 -66.333 -162 -105
c5.33301 -10.667 11.333 -21.334 18 -32.001l20 -31c14.667 -20.667 30.334 -41.167 47.001 -61.5s34.334 -39.166 53.001 -56.499c14.667 25.333 29.5 54.666 44.5 87.999s30.167 70 45.5 110l117 -34c-20.667 -45.333 -43.667 -87 -69 -125s-50.333 -73 -75 -105l188 -65z
M252.998 591.998c0 -18 1.66699 -36.335 5 -55.002s8.33301 -37.334 15 -56.001c37.333 18.667 65.833 39.334 85.5 62.001s29.5 49.334 29.5 80.001c0 26.667 -6 47.334 -18 62.001s-27.667 22 -47 22c-25.333 0 -43.333 -9.83301 -54 -29.5s-16 -48.167 -16 -85.5z
M273.998 93.9961c20.667 0 40.1699 4.16797 58.5029 12.501s35.833 21.833 52.5 40.5c-22.667 19.333 -43.834 39.833 -63.501 61.5s-37.834 43.5 -54.501 65.5l-26.5 37.5c-9 12.333 -17.167 24.5 -24.5 36.5c-14.667 -18 -26.334 -39 -35.001 -63s-13 -48.667 -13 -74
c0 -38.667 9 -67.834 27 -87.501s44.333 -29.5 79 -29.5z" />
    <glyph glyph-name="quotesingle" unicode="'" 
d="M283 375l-33 425h200l-33 -425h-134z" />
    <glyph glyph-name="parenleft" unicode="(" 
d="M565 -210c-134 24.667 -232.5 83.666 -295.5 176.999s-94.5 204.333 -94.5 333c0 126.667 31.5 237.167 94.5 331.5s161.5 153.833 295.5 178.5l15 -104c-94.667 -24.667 -160.834 -72.667 -198.501 -144s-56.5 -158.666 -56.5 -261.999s18.833 -190 56.5 -260
s103.834 -117.333 198.501 -142z" />
    <glyph glyph-name="parenright" unicode=")" 
d="M135 -210l-15 108.001c94.667 24.667 160.834 72.667 198.501 144s56.5 157.333 56.5 258c0 98 -18.833 184 -56.5 258s-103.834 123.333 -198.501 148l15 104c134 -24.667 232.5 -84.334 295.5 -179.001s94.5 -205 94.5 -331c0 -128.667 -31.5 -239.667 -94.5 -333
s-161.5 -152.333 -295.5 -177z" />
    <glyph glyph-name="asterisk" unicode="*" 
d="M574 270l-192 173l38 -243h-141l38 242l-191 -172l-71 122l240 109l-240 109l71 122l191 -172l-38 240h141l-38 -241l192 173l71 -122l-241 -109l241 -109z" />
    <glyph glyph-name="plus" unicode="+" 
d="M285 35v250h-220v130h220v250h130v-250h220v-130h-220v-250h-130z" />
    <glyph glyph-name="comma" unicode="," 
d="M187 -175l82 425h241l-218 -425h-105z" />
    <glyph glyph-name="hyphen" unicode="&#x2011;" 
d="M65 285v135h570v-135h-570z" />
    <glyph glyph-name="hyphen" unicode="&#x2010;" 
d="M65 285v135h570v-135h-570z" />
    <glyph glyph-name="hyphen" unicode="&#xad;" 
d="M65 285v135h570v-135h-570z" />
    <glyph glyph-name="hyphen" unicode="-" 
d="M65 285v135h570v-135h-570z" />
    <glyph glyph-name="period" unicode="." 
d="M351 -10c-39.333 0 -71 8.66699 -95 26s-36 43 -36 77v57c0 34 12 60 36 78s55.667 27 95 27s70.833 -9 94.5 -27s35.5 -44 35.5 -78v-57c0 -34 -12.167 -59.667 -36.5 -77s-55.5 -26 -93.5 -26z" />
    <glyph glyph-name="slash" unicode="/" 
d="M85 -200l400 1000h130l-400 -1000h-130z" />
    <glyph glyph-name="zero" unicode="0" 
d="M350 -10c-92 0 -162.5 29 -211.5 87s-73.5 141.333 -73.5 250v142c0 110 24.667 194.333 74 253s120 88 212 88s162.333 -29.333 211 -88s73 -143 73 -253v-142c0 -108.667 -24.5 -192 -73.5 -250s-119.5 -87 -211.5 -87zM350 105c52.667 0 90 17.667 112 53
s33 95 33 179v122c0 85.333 -11 146 -33 182s-59.333 54 -112 54c-52 0 -89.167 -18 -111.5 -54s-33.5 -96.667 -33.5 -182v-122c0 -84 11.167 -143.667 33.5 -179s59.5 -53 111.5 -53zM350 317c-21.333 0 -38.666 3.66699 -51.999 11s-20 21.333 -20 42v59
c0 20 6.66699 33.833 20 41.5s30.666 11.5 51.999 11.5s38.5 -3.83301 51.5 -11.5s19.5 -21.5 19.5 -41.5v-59c0 -20.667 -6.66699 -34.667 -20 -42s-30.333 -11 -51 -11z" />
    <glyph glyph-name="one" unicode="1" 
d="M105 0l0.00195312 120h210v530h-29c-16.667 -42 -42.334 -73.833 -77.001 -95.5s-74.334 -31.167 -119.001 -28.5l-10 123c52 0 98.833 13.333 140.5 40s74.167 63.667 97.5 111h147v-680h185v-120h-545z" />
    <glyph glyph-name="two" unicode="2" 
d="M65 0l0.000976562 168.002c0 62.667 14.167 111.5 42.5 146.5s77.166 65.167 146.499 90.5l116 40c36.667 12.667 63.334 26 80.001 40s25 37.667 25 71v28c0 41.333 -9.33301 70.166 -28 86.499s-51 24.5 -97 24.5c-43.333 0 -73.833 -9.83301 -91.5 -29.5
s-28.834 -58.5 -33.501 -116.5l-150 10c5.33301 90 29 154.333 71 193s109.667 58 203 58c95.333 0 165.166 -18.667 209.499 -56s66.5 -92.333 66.5 -165v-53c0 -55.333 -16 -98 -48 -128s-77.667 -55.333 -137 -76l-117 -40c-41.333 -15.333 -69.666 -30.333 -84.999 -45
s-23 -40.334 -23 -77.001v-50h420v-120h-570z" />
    <glyph glyph-name="three" unicode="3" 
d="M347 -10c-104 0 -177.499 19.6641 -220.499 58.9971s-66.833 98 -71.5 176l150 10c6 -54 18.5 -88.667 37.5 -104s54.5 -23 106.5 -23c50 0 85.167 8.83301 105.5 26.5s30.5 46.5 30.5 86.5v27c0 42 -10.5 71.5 -31.5 88.5s-55.5 25.5 -103.5 25.5h-105v119h105
c42.667 0 72.5 6 89.5 18s25.5 34.333 25.5 67v32c0 34 -9.16699 58.167 -27.5 72.5s-49.5 21.5 -93.5 21.5c-40 0 -68.667 -7.66699 -86 -23s-28.333 -44 -33 -86l-150 10c4.66699 77.333 28.167 132.833 70.5 166.5s107.166 50.5 194.499 50.5
c91.333 0 160 -15.667 206 -47s69 -82.666 69 -153.999v-25c0 -43.333 -14 -77.166 -42 -101.499s-64.667 -38.833 -110 -43.5v-29c50.667 -4 92 -21.333 124 -52s48 -70 48 -118v-22c0 -79.333 -23.5 -137.166 -70.5 -173.499s-119.5 -54.5 -217.5 -54.5z" />
    <glyph glyph-name="four" unicode="4" 
d="M195 318h220v330zM685 203h-120v-203h-150v203h-360v115l315 482h195v-482h120v-115z" />
    <glyph glyph-name="five" unicode="5" 
d="M349 -10c-104.667 0 -178.666 17.6699 -221.999 53.0029s-67.333 99.666 -72 192.999l150 10c5.33301 -58.667 17.5 -96.834 36.5 -114.501s55.167 -26.5 108.5 -26.5c51.333 0 86.666 10.167 105.999 30.5s29 52.166 29 95.499v38c0 42 -9.33301 72.667 -28 92
s-53 29 -103 29h-269v410h515v-115h-365v-173h155c81.333 0 142.5 -18.167 183.5 -54.5s61.5 -91.833 61.5 -166.5v-80c0 -64.667 -23.333 -117.667 -70 -159s-118.667 -62 -216 -62z" />
    <glyph glyph-name="six" unicode="6" 
d="M350 -10c-97.333 0 -169.165 24.834 -215.498 74.501s-69.5 120.167 -69.5 211.5v242c0 96.667 24.167 169.5 72.5 218.5s119.833 73.5 214.5 73.5c84 0 147 -15.333 189 -46s70.333 -81.667 85 -153l-159 -23c-8.66699 40.667 -20.834 68.667 -36.501 84
s-44.834 23 -87.501 23c-46 0 -78.833 -13.5 -98.5 -40.5s-29.5 -72.5 -29.5 -136.5v-90h15c17.333 21.333 39.5 38.666 66.5 51.999s64.167 20 111.5 20c74 0 130.333 -20.833 169 -62.5s58 -100.167 58 -175.5v-22c0 -82 -24 -144.167 -72 -186.5s-119 -63.5 -213 -63.5z
M349.001 105.001c48 0 82.333 11.668 103 35.001s31 56.666 31 99.999v13c0 46 -10.333 81 -31 105s-55 36 -103 36s-82.333 -12 -103 -36s-31 -59 -31 -105v-13c0 -46 10.333 -80 31 -102s55 -33 103 -33z" />
    <glyph glyph-name="seven" unicode="7" 
d="M225 0c33.333 157.333 66.333 281.501 99 372.501s86.334 191.833 161.001 302.5h-420v125h570v-125c-72.667 -120.667 -126.334 -229.834 -161.001 -327.501s-62.667 -213.5 -84 -347.5h-165z" />
    <glyph glyph-name="eight" unicode="8" 
d="M350 -10c-97.333 0 -169.169 17.499 -215.502 52.499s-69.5 89.833 -69.5 164.5v22c0 50 14.333 91 43 123s68.334 50.333 119.001 55v29c-40 4 -73.667 19.167 -101 45.5s-41 61.166 -41 104.499v32c0 66 21.5 114.5 64.5 145.5s109.833 46.5 200.5 46.5
c91.333 0 158.333 -15.5 201 -46.5s64 -79.5 64 -145.5v-32c0 -43.333 -13.667 -78.166 -41 -104.499s-61 -41.5 -101 -45.5v-29c50.667 -4.66699 90.334 -23.167 119.001 -55.5s43 -73.166 43 -122.499v-22c0 -74.667 -23 -129.5 -69 -164.5s-118 -52.5 -216 -52.5z
M349.997 477.999c40.667 0 70 7 88 21s27 39 27 75v24c0 35.333 -9 59.833 -27 73.5s-47.333 20.5 -88 20.5s-70 -6.83301 -88 -20.5s-27 -38.167 -27 -73.5v-24c0 -36 9 -61 27 -75s47.333 -21 88 -21zM349.997 107.999c52 0 87.5 9.66699 106.5 29s28.5 49.333 28.5 90v15
c0 42 -9.5 72.667 -28.5 92s-54.5 29 -106.5 29s-87.5 -9.66699 -106.5 -29s-28.5 -50 -28.5 -92v-15c0 -40.667 9.5 -70.667 28.5 -90s54.5 -29 106.5 -29z" />
    <glyph glyph-name="nine" unicode="9" 
d="M351 406c48 0 82.333 12.166 103 36.499s31 59.166 31 104.499v13c0 46 -10.333 80 -31 102s-55 33 -103 33c-47.333 0 -81.5 -11.667 -102.5 -35s-31.5 -56.666 -31.5 -99.999v-13c0 -45.333 10.5 -80.166 31.5 -104.499s55.167 -36.5 102.5 -36.5zM348 -10.001
c-83.333 0 -146.165 15.668 -188.498 47.001s-70.833 82 -85.5 152l159 23c9.33301 -42.667 22.5 -71.167 39.5 -85.5s45.5 -21.5 85.5 -21.5c46 0 78.667 13.667 98 41s29 73 29 137v89h-15c-18 -22.667 -40.833 -40.167 -68.5 -52.5s-64.5 -18.5 -110.5 -18.5
c-73.333 0 -129.333 20.667 -168 62s-58 99.666 -58 174.999v22c0 82.667 24.167 145 72.5 187s119.166 63 212.499 63c97.333 0 169.166 -24.667 215.499 -74s69.5 -120 69.5 -212v-242c0 -93.333 -23.167 -165.333 -69.5 -216s-118.833 -76 -217.5 -76z" />
    <glyph glyph-name="colon" unicode=":" 
d="M351 388c-36.667 0 -66.501 7.66699 -89.501 23s-34.5 38.333 -34.5 69v53c0 30.667 11.5 54 34.5 70s52.833 24 89.5 24s66.334 -8 89.001 -24s34 -39.333 34 -70v-53c0 -30.667 -11.5 -53.667 -34.5 -69s-52.5 -23 -88.5 -23zM350.999 -7
c-36.667 0 -66.501 7.66699 -89.501 23s-34.5 38.333 -34.5 69v53c0 30.667 11.5 54 34.5 70s52.833 24 89.5 24s66.334 -8 89.001 -24s34 -39.333 34 -70v-53c0 -30.667 -11.5 -53.667 -34.5 -69s-52.5 -23 -88.5 -23z" />
    <glyph glyph-name="semicolon" unicode=";" 
d="M351 388c-36.667 0 -66.501 7.66699 -89.501 23s-34.5 38.333 -34.5 69v53c0 30.667 11.5 54 34.5 70s52.833 24 89.5 24s66.334 -8 89.001 -24s34 -39.333 34 -70v-53c0 -30.667 -11.5 -53.667 -34.5 -69s-52.5 -23 -88.5 -23zM195.999 -164l78 403h227l-206 -403h-99z
" />
    <glyph glyph-name="less" unicode="&#x3c;" 
d="M605 10l-510 265v150l510 265v-125l-413 -215l413 -215v-125z" />
    <glyph glyph-name="equal" unicode="=" 
d="M65 435v130h570v-130h-570zM65 135v130h570v-130h-570z" />
    <glyph glyph-name="greater" unicode="&#x3e;" 
d="M95 10v120l423 220l-423 220v120l510 -265v-150z" />
    <glyph glyph-name="question" unicode="?" 
d="M245 288l-20 106.001c106.667 16.667 177.5 37.167 212.5 61.5s52.5 56.5 52.5 96.5v25c0 36 -9 64.667 -27 86s-55.667 32 -113 32c-60.667 0 -99.667 -10.833 -117 -32.5s-28.333 -59.5 -33 -113.5l-150 10c4.66699 89.333 29.834 153.5 75.501 192.5
s120.167 58.5 223.5 58.5c101.333 0 175.166 -21.5 221.499 -64.5s69.5 -95.833 69.5 -158.5v-39c0 -77.333 -31.5 -134.833 -94.5 -172.5s-163.167 -66.834 -300.5 -87.501zM303 -9.99902c-40.667 0 -71 6.83301 -91 20.5s-30 34.834 -30 63.501v28c0 29.333 10 51 30 65
s50.333 21 91 21s71.167 -7 91.5 -21s30.5 -35.667 30.5 -65v-28c0 -28.667 -10.333 -49.834 -31 -63.501s-51 -20.5 -91 -20.5z" />
    <glyph glyph-name="at" unicode="@" 
d="M403 -110c-114.667 0 -200.5 30.834 -257.5 92.501s-85.5 143.834 -85.5 246.501v268c0 94.667 24.667 170.5 74 227.5s124.333 85.5 225 85.5c90.667 0 160.167 -27 208.5 -81s72.5 -128 72.5 -222v-219c-2 -60 -19.833 -103.833 -53.5 -131.5s-81.5 -41.5 -143.5 -41.5
c-66 0 -114.667 15.5 -146 46.5s-47 74.5 -47 130.5v102c0 54.667 13.833 98.5 41.5 131.5s63.5 49.5 107.5 49.5c32.667 0 59.167 -6.33301 79.5 -19s35.166 -28 44.499 -46h30c-1.33301 70.667 -16.333 124 -45 160s-78.667 54 -150 54c-72 0 -123.833 -20 -155.5 -60
s-47.5 -95.667 -47.5 -167v-263c0 -80.667 19.333 -143.334 58 -188.001s102 -67 190 -67c37.333 0 72 2.66699 104 8s61.333 12 88 20v-90c-26 -6.66699 -56.167 -12.834 -90.5 -18.501s-68.166 -8.5 -101.499 -8.5zM445 210.001c22.667 0 40.1689 5.50098 52.502 16.501
s18.5 33.5 18.5 67.5v92c0 33.333 -6.66699 57.333 -20 72s-30.333 22 -51 22c-22.667 0 -40.334 -7.33301 -53.001 -22s-19 -39.334 -19 -74.001v-82c0 -32.667 6.16699 -56.167 18.5 -70.5s30.166 -21.5 53.499 -21.5z" />
    <glyph glyph-name="A" unicode="A" 
d="M443 325l-91 346l-96 -346h187zM529 0l-54 205h-252l-57 -205h-141l238 800h175l238 -800h-147z" />
    <glyph glyph-name="B" unicode="B" 
d="M75 0l-0.000976562 800.001h281c86.667 0 150.667 -15.333 192 -46s62 -78 62 -142v-39c0 -38.667 -9.5 -69.167 -28.5 -91.5s-47.5 -36.833 -85.5 -43.5v-29c44 -4 78.5 -19.833 103.5 -47.5s37.5 -62.834 37.5 -105.501v-48c0 -70.667 -22.667 -123 -68 -157
s-115.666 -51 -210.999 -51h-283zM224.999 470.001h126c39.333 0 67.666 7 84.999 21s26 36.667 26 68v38c0 31.333 -8.66699 53.833 -26 67.5s-45.666 20.5 -84.999 20.5h-126v-215zM224.999 115.001h134c46 0 78.833 8 98.5 24s29.5 42.333 29.5 79v42
c0 36 -9.83301 62 -29.5 78s-52.5 24 -98.5 24h-134v-247z" />
    <glyph glyph-name="C" unicode="C" 
d="M360 -10c-98.667 0 -172.502 22.6689 -221.502 68.002s-73.5 113.333 -73.5 204v272c0 92 24.667 161 74 207s123.333 69 222 69c99.333 0 172 -22 218 -66s71.333 -115.667 76 -215l-150 -10c-4.66699 67.333 -17.167 112.666 -37.5 135.999s-56.166 35 -107.499 35
c-52.667 0 -90 -12.667 -112 -38s-33 -68 -33 -128v-252c0 -58.667 11 -100.334 33 -125.001s59.333 -37 112 -37c51.333 0 87 11.5 107 34.5s32.667 67.167 38 132.5l150 -10c-4.66699 -97.333 -30.167 -167.833 -76.5 -211.5s-119.166 -65.5 -218.499 -65.5z" />
    <glyph glyph-name="D" unicode="D" 
d="M75 0v800h261c93.333 0 166.5 -26.5 219.5 -79.5s79.5 -123.5 79.5 -211.5v-222c0 -87.333 -26.5 -157 -79.5 -209s-126.5 -78 -220.5 -78h-260zM225 120l100 -0.000976562c56.667 0 97.5 14.833 122.5 44.5s37.5 73.834 37.5 132.501v202
c0 60 -12.5 105.167 -37.5 135.5s-65.833 45.5 -122.5 45.5h-100v-560z" />
    <glyph glyph-name="E" unicode="E" 
d="M75 0v800h560v-120h-410v-190h360v-120h-360v-250h410v-120h-560z" />
    <glyph glyph-name="F" unicode="F" 
d="M100 0v800h545v-120h-395v-255h325v-120h-325v-305h-150z" />
    <glyph glyph-name="G" unicode="G" 
d="M361 -10c-95.333 0 -168.498 24.333 -219.498 73s-76.5 118.334 -76.5 209.001v252c0 92 25.167 162.667 75.5 212s122.166 74 215.499 74c89.333 0 157 -21.167 203 -63.5s71.333 -104.833 76 -187.5l-150 -10c-4.66699 52 -16.667 88.5 -36 109.5s-50 31.5 -92 31.5
c-52 0 -88.667 -13.167 -110 -39.5s-32 -71.833 -32 -136.5v-232c0 -63.333 11 -107.833 33 -133.5s59.333 -38.5 112 -38.5c50 0 85.167 13.667 105.5 41s30.166 74.666 29.499 141.999h-145v120h295v-136c0 -92 -24.5 -162.833 -73.5 -212.5s-119.167 -74.5 -210.5 -74.5z
" />
    <glyph glyph-name="H" unicode="H" 
d="M75 0v800h150v-300h250v300h150v-800h-150v380h-250v-380h-150z" />
    <glyph glyph-name="I" unicode="I" 
d="M75 0v120h200v560h-200v120h550v-120h-200v-560h200v-120h-550z" />
    <glyph glyph-name="J" unicode="J" 
d="M334 -10c-96 0 -166.999 22.499 -212.999 67.499s-71.333 116.5 -76 214.5l150 11c4.66699 -69.333 16.667 -115.5 36 -138.5s53.666 -34.5 102.999 -34.5c44.667 0 77.667 11.833 99 35.5s32 63.5 32 119.5v415h-215v120h365v-540
c0 -85.333 -23.167 -151.666 -69.5 -198.999s-116.833 -71 -211.5 -71z" />
    <glyph glyph-name="K" unicode="K" 
d="M225 358v-358h-150v800h150v-322h37l250 322h160l-293 -369l290 -431h-161l-243 358h-40z" />
    <glyph glyph-name="L" unicode="L" 
d="M125 0v800h150v-680h350v-120h-500z" />
    <glyph glyph-name="M" unicode="M" 
d="M295 225l-118 349l11 -574h-133v800h160l139 -424l136 424h155v-800h-132l10 571l-117 -346h-111z" />
    <glyph glyph-name="N" unicode="N" 
d="M437 0l-232 601v-601h-130v800h177l243 -628v628h130v-800h-188z" />
    <glyph glyph-name="O" unicode="O" 
d="M350 -10c-93.333 0 -164.168 23.5 -212.501 70.5s-72.5 114.167 -72.5 201.5v272c0 88 24.333 156 73 204s119.667 72 213 72s164 -24 212 -72s72 -116 72 -204v-272c0 -87.333 -24.167 -154.5 -72.5 -201.5s-119.166 -70.5 -212.499 -70.5zM349.998 110
c48.667 0 83.334 12.333 104.001 37s31 66.334 31 125.001v252c0 60 -10.333 102.667 -31 128s-55.334 38 -104.001 38c-48 0 -82.5 -12.667 -103.5 -38s-31.5 -68 -31.5 -128v-252c0 -58.667 10.5 -100.334 31.5 -125.001s55.5 -37 103.5 -37z" />
    <glyph glyph-name="P" unicode="P" 
d="M75 0v800h297c86 0 152.167 -17.833 198.5 -53.5s69.5 -91.167 69.5 -166.5v-104c0 -73.333 -23 -127.5 -69 -162.5s-112.333 -52.5 -199 -52.5h-147v-261h-150zM225 379l140 -0.000976562c44 0 75.833 7.66699 95.5 23s29.5 43 29.5 83v87
c0 40.667 -9.83301 68.834 -29.5 84.501s-51.5 23.5 -95.5 23.5h-140v-301z" />
    <glyph glyph-name="Q" unicode="Q" 
d="M630 -201c-112 -20 -195.001 -12.832 -249.001 21.501s-81 97.166 -81 188.499c-77.333 7.33301 -135.833 34 -175.5 80s-59.5 108.667 -59.5 188v257c0 88.667 24.333 156.834 73 204.501s119.667 71.5 213 71.5s164 -23.833 212 -71.5s72 -115.834 72 -204.501v-257
c0 -74 -17.667 -133.833 -53 -179.5s-87.666 -74.167 -156.999 -85.5c2 -43.333 17.667 -71.833 47 -85.5s76.333 -14.5 141 -2.5zM349.999 125.001c48.667 0 83.334 12.833 104.001 38.5s31 66.834 31 123.501v237c0 58 -10.333 99.333 -31 124s-55.334 37 -104.001 37
c-48 0 -82.5 -12.333 -103.5 -37s-31.5 -66 -31.5 -124v-237c0 -56.667 10.5 -97.834 31.5 -123.501s55.5 -38.5 103.5 -38.5z" />
    <glyph glyph-name="R" unicode="R" 
d="M225 414l150 0.000976562c46 0 78.333 7.83301 97 23.5s28 43.167 28 82.5v58c0 37.333 -9.33301 63.666 -28 78.999s-51 23 -97 23h-150v-266zM225 0.000976562h-150v800h316c86.667 0 150.667 -18.167 192 -54.5s62 -90.166 62 -161.499v-67
c0 -59.333 -13.833 -106.833 -41.5 -142.5s-69.167 -58.834 -124.5 -69.501l185 -305h-161l-179 295h-99v-295z" />
    <glyph glyph-name="S" unicode="S" 
d="M352 -8c-62 0 -118.164 8.83203 -168.497 26.499s-95.5 44.834 -135.5 81.501l58 109c34 -30.667 71 -54.5 111 -71.5s86 -25.5 138 -25.5c44 0 78 9.5 102 28.5s36 44.5 36 76.5c0 34 -12 59 -36 75s-68.667 32.667 -134 50c-94 24 -159.167 53.167 -195.5 87.5
s-54.5 83.5 -54.5 147.5c0 69.333 23.5 125 70.5 167s112.167 63 195.5 63c52 0 102.833 -9.16699 152.5 -27.5s91.167 -44.166 124.5 -77.499l-52 -105c-33.333 28.667 -69 50.667 -107 66s-77 23 -117 23c-36.667 0 -65.334 -7.33301 -86.001 -22s-31 -38.334 -31 -71.001
c0 -30 11.667 -53.667 35 -71s70.666 -35 141.999 -53c91.333 -22.667 154.666 -51.5 189.999 -86.5s53 -85.5 53 -151.5c0 -76.667 -27.5 -135.667 -82.5 -177s-124.5 -62 -208.5 -62z" />
    <glyph glyph-name="T" unicode="T" 
d="M275 0v680h-235v120h620v-120h-235v-680h-150z" />
    <glyph glyph-name="U" unicode="U" 
d="M350 -10c-93.333 0 -162.5 23.5 -207.5 70.5s-67.5 119.167 -67.5 216.5v523h150v-518c0 -62 9.66699 -105.333 29 -130s51.333 -37 96 -37c45.333 0 77.5 12.333 96.5 37s28.5 68 28.5 130v518h150v-523c0 -97.333 -22.5 -169.5 -67.5 -216.5
s-114.167 -70.5 -207.5 -70.5z" />
    <glyph glyph-name="V" unicode="V" 
d="M443 0h-185l-233 800h153l173 -667l178 667h147z" />
    <glyph glyph-name="W" unicode="W" 
d="M443 0l-92 416l-92 -416h-137l-105 800h134l55 -621l85 421h120l87 -413l54 613h132l-106 -800h-135z" />
    <glyph glyph-name="X" unicode="X" 
d="M522 0l-174 289l-172 -289h-154l257 410l-232 390h160l159 -266l160 266h153l-244 -389l241 -411h-154z" />
    <glyph glyph-name="Y" unicode="Y" 
d="M425 0h-150v300l-261 500h156l182 -374l179 374h154l-260 -500v-300z" />
    <glyph glyph-name="Z" unicode="Z" 
d="M635 0h-570v120l407 560h-407v120h570v-120l-405 -560h405v-120z" />
    <glyph glyph-name="bracketleft" unicode="[" 
d="M175 -200v1000h400v-115h-250v-776h250v-109h-400z" />
    <glyph glyph-name="backslash" unicode="\" 
d="M485 -199l-400 1000l130 -1l400 -1000z" />
    <glyph glyph-name="bracketright" unicode="]" 
d="M125 -200v109h250v776h-250v115h400v-1000h-400z" />
    <glyph glyph-name="asciicircum" unicode="^" 
d="M525 200l-174 423l-171 -423h-145l240 600h150l245 -600h-145z" />
    <glyph glyph-name="underscore" unicode="_" 
d="M65 -200v135h570v-135h-570z" />
    <glyph glyph-name="grave" unicode="`" 
d="M395 375l-238 425h241l102 -425h-105z" />
    <glyph glyph-name="a" unicode="a" 
d="M281 93c28 0 54 4.50098 78 13.501s46 23.167 66 42.5v97h-150c-24.667 0 -44.167 -5.33301 -58.5 -16s-21.5 -31.334 -21.5 -62.001c0 -24 6.66699 -42.5 20 -55.5s35.333 -19.5 66 -19.5zM248 -9.99902c-54.667 0 -100.498 14.666 -137.498 43.999
s-55.5 72.333 -55.5 129c0 54.667 18.667 96.834 56 126.501s85 44.5 143 44.5h171v77c0 30 -9 52 -27 66s-45 21 -81 21c-36.667 0 -64 -6.16699 -82 -18.5s-31.667 -37.5 -41 -75.5l-125 25c13.333 64 39.666 110.167 78.999 138.5s96.666 42.5 171.999 42.5
c78 0 139.167 -15.667 183.5 -47s66.5 -80 66.5 -146v-242c0 -30.667 9 -49.667 27 -57s44 -8.66602 78 -3.99902v-113c-48.667 -10 -90.5 -8.5 -125.5 4.5s-56.833 42.833 -65.5 89.5h-25c-20 -28.667 -48.667 -53.334 -86 -74.001s-79 -31 -125 -31z" />
    <glyph glyph-name="b" unicode="b" 
d="M343 -8c-44 0 -88.833 6.33301 -134.5 19s-88.5 30.667 -128.5 54v735h150v-305h30c16.667 36.667 40.5 65 71.5 85s66.5 30 106.5 30c56.667 0 101.167 -19 133.5 -57s48.5 -90.333 48.5 -157v-177c0 -72.667 -23.833 -128.667 -71.5 -168s-116.167 -59 -205.5 -59z
M348 106c40.667 0 71.167 9.16699 91.5 27.5s30.5 47.5 30.5 87.5v155c0 38 -8.16699 66.167 -24.5 84.5s-39.833 27.5 -70.5 27.5c-25.333 0 -49.833 -6.5 -73.5 -19.5s-47.5 -32.5 -71.5 -58.5v-273c18.667 -10.667 37.5 -18.5 56.5 -23.5s39.5 -7.5 61.5 -7.5z" />
    <glyph glyph-name="c" unicode="c" 
d="M362 -10c-92 0 -161.998 19.832 -209.998 59.499s-72 97.167 -72 172.5v156c0 75.333 24 132.833 72 172.5s117.667 59.5 209 59.5c84.667 0 148.167 -18.667 190.5 -56s67.166 -90.666 74.499 -159.999l-145 -11c-2.66699 40 -13.834 68.667 -33.501 86
s-49.834 26 -90.501 26c-44 0 -76.167 -9.66699 -96.5 -29s-30.5 -51 -30.5 -95v-144c0 -42.667 10.333 -73.667 31 -93s53.334 -29 98.001 -29c40 0 69.667 7.16699 89 21.5s30.333 37.833 33 70.5l145 -11c-4.66699 -63.333 -27.167 -111.833 -67.5 -145.5
s-105.833 -50.5 -196.5 -50.5z" />
    <glyph glyph-name="d" unicode="d" 
d="M325 113c26 0 50.666 6.33301 73.999 19s47 32 71 58v273c-16.667 10.667 -35 18.667 -55 24s-40.667 8 -62 8c-41.333 0 -72.166 -9.5 -92.499 -28.5s-30.5 -47.833 -30.5 -86.5v-156c0 -38 8.16699 -66 24.5 -84s39.833 -27 70.5 -27zM439.999 105
c-16.667 -36 -40.5 -64.167 -71.5 -84.5s-66.5 -30.5 -106.5 -30.5c-58 0 -102.833 20 -134.5 60s-47.5 91.333 -47.5 154v177c0 71.333 22.333 127 67 167s106.667 60 186 60c24 0 47.667 -2.16699 71 -6.5s45.333 -10.5 66 -18.5v217h150v-800h-150v105h-30z" />
    <glyph glyph-name="e" unicode="e" 
d="M628 137c-22 -54 -52.834 -92.001 -92.501 -114.001s-100.5 -33 -182.5 -33c-81.333 0 -147.166 19.167 -197.499 57.5s-75.5 95.5 -75.5 171.5v160c0 74.667 24.5 131.834 73.5 171.501s114.833 59.5 197.5 59.5c83.333 0 149 -20 197 -60s72 -98.333 72 -175v-105h-390
v-58c0 -39.333 10 -68.666 30 -87.999s51.667 -29 95 -29c38 0 67.833 5.66699 89.5 17s39.5 31.666 53.5 60.999zM229.999 388.999l0.00195312 -31h240v22c0 46 -9.33301 78.833 -28 98.5s-49.334 29.5 -92.001 29.5s-73.334 -9.33301 -92.001 -28s-28 -49 -28 -91z" />
    <glyph glyph-name="f" unicode="f" 
d="M235 0l0.00390625 485h-165v115h165v36c0 59.333 22.333 105.666 67 138.999s103 50 175 50c29.333 0 57.166 -2.33301 83.499 -7s50.833 -10.667 73.5 -18l-20 -105c-18.667 6 -38.334 10.833 -59.001 14.5s-42.334 5.5 -65.001 5.5
c-32.667 0 -58.334 -7.16699 -77.001 -21.5s-28 -36.166 -28 -65.499v-28h235v-115h-235v-485h-150z" />
    <glyph glyph-name="g" unicode="g" 
d="M660 -37c0 -54.667 -20.332 -97.165 -60.999 -127.498s-93 -45.5 -157 -45.5h-180c-70 0 -124.5 12.833 -163.5 38.5s-58.5 60.5 -58.5 104.5c0 32.667 9.66699 59 29 79s44.666 31.667 75.999 35v20c-24 6 -44 16.667 -60 32s-24 39 -24 71
c0 33.333 11.167 61.5 33.5 84.5s53.833 36.5 94.5 40.5v19c-34 9.33301 -58.5 24.5 -73.5 45.5s-22.5 43.833 -22.5 68.5v14c0 48.667 21 87.167 63 115.5s97 42.5 165 42.5h327v-100l-160 21v-19c25.333 -6.66699 45.5 -19.834 60.5 -39.501s22.5 -40.5 22.5 -62.5v-15
c0 -48 -20.167 -85.667 -60.5 -113s-96.833 -41 -169.5 -41h-104c-20 0 -35.5 -4 -46.5 -12s-16.5 -21.667 -16.5 -41c0 -18.667 6.33301 -32.334 19 -41.001s31 -13 55 -13h202c62 0 112.5 -13 151.5 -39s58.5 -66.667 58.5 -122zM333.001 314.002
c34 0 59.167 6.66699 75.5 20s24.5 32.333 24.5 57v41c0 24 -8.33301 42.333 -25 55s-41.667 19 -75 19c-34 0 -59.167 -6.33301 -75.5 -19s-24.5 -31 -24.5 -55v-41c0 -24.667 8.16699 -43.667 24.5 -57s41.5 -20 75.5 -20zM262.001 -114.998l185 -0.00195312
c26 0 47.167 4.33301 63.5 13s24.5 25.334 24.5 50.001s-7.66699 41.334 -23 50.001s-35.333 13 -60 13h-268v-58c0 -22.667 6.5 -39.667 19.5 -51s32.5 -17 58.5 -17z" />
    <glyph glyph-name="h" unicode="h" 
d="M80 0l0.000976562 800.001h150v-305h30c15.333 36 39 64.167 71 84.5s68.333 30.5 109 30.5c55.333 0 99.166 -17.333 131.499 -52s48.5 -81.334 48.5 -140.001v-418h-150v380c0 34.667 -7.5 61.334 -22.5 80.001s-36.833 28 -65.5 28c-25.333 0 -51 -8.33301 -77 -25
s-51 -40.334 -75 -71.001v-392h-150z" />
    <glyph glyph-name="i" unicode="i" 
d="M85 0v115h190v370h-190v115h340v-485h190v-115h-530zM356 700c-32 0 -57.833 5 -77.5 15s-29.5 27.333 -29.5 52v11c0 25.333 9.83301 43.166 29.5 53.499s45.5 15.5 77.5 15.5s57.833 -5.16699 77.5 -15.5s29.5 -28.166 29.5 -53.499v-11c0 -24.667 -10 -42 -30 -52
s-45.667 -15 -77 -15z" />
    <glyph glyph-name="j" unicode="j" 
d="M248 -209c-28.667 0 -57.1689 1.5 -85.502 4.5s-57.166 8.83301 -86.499 17.5l20 111c26 -8.66699 50.333 -14.167 73 -16.5s44.334 -3.5 65.001 -3.5c42 0 75.167 8.33301 99.5 25s36.5 44 36.5 82v474h-264v115h414v-604c0 -66.667 -25 -117.5 -75 -152.5
s-115.667 -52.5 -197 -52.5zM438.998 700c-32 0 -57.833 5 -77.5 15s-29.5 27.333 -29.5 52v11c0 25.333 9.83301 43.166 29.5 53.499s45.5 15.5 77.5 15.5s57.833 -5.16699 77.5 -15.5s29.5 -28.166 29.5 -53.499v-11c0 -24.667 -10 -42 -30 -52s-45.667 -15 -77 -15z" />
    <glyph glyph-name="k" unicode="k" 
d="M260 259v-259h-150v800h150v-434h44l173 234h163l-213 -274l210 -326h-163l-170 259h-44z" />
    <glyph glyph-name="l" unicode="l" 
d="M90 0v115h195v570h-195v115h345v-685h190v-115h-535z" />
    <glyph glyph-name="m" unicode="m" 
d="M176 427l-0.000976562 -427.002h-127v600h126v-80h25c12.667 28 28.334 49.667 47.001 65s39.334 23 62.001 23c24 0 44.667 -7.5 62 -22.5s29.333 -36.833 36 -65.5h25c12 28 28.333 49.667 49 65s44 23 70 23c30.667 0 55.167 -12.833 73.5 -38.5
s27.5 -60.5 27.5 -104.5v-465h-127v439c0 22.667 -3 39.834 -9 51.501s-14.667 17.5 -26 17.5c-10.667 0 -23 -7.16699 -37 -21.5s-27.333 -34.166 -40 -59.499v-427h-125v439c0 22.667 -3.16699 39.834 -9.5 51.501s-14.833 17.5 -25.5 17.5
s-22.834 -6.83301 -36.501 -20.5s-27.167 -33.834 -40.5 -60.501z" />
    <glyph glyph-name="n" unicode="n" 
d="M80 0l0.000976562 600h150v-105h30c15.333 36 39.5 64.167 72.5 84.5s70.5 30.5 112.5 30.5c54.667 0 97.5 -17.167 128.5 -51.5s46.5 -81.5 46.5 -141.5v-417h-150v390c0 32 -7.5 56.333 -22.5 73s-36.833 25 -65.5 25c-25.333 0 -51.333 -7.16699 -78 -21.5
s-51.334 -35.833 -74.001 -64.5v-402h-150z" />
    <glyph glyph-name="o" unicode="o" 
d="M350 -10c-85.333 0 -151.668 19.833 -199.001 59.5s-71 95.5 -71 167.5v162c0 73.333 23.833 130.166 71.5 170.499s114.167 60.5 199.5 60.5s151.5 -20.5 198.5 -61.5s70.5 -98.167 70.5 -171.5v-162c0 -71.333 -23.667 -126.666 -71 -165.999
s-113.666 -59 -198.999 -59zM349.998 105c41.333 0 71.666 9.5 90.999 28.5s29 48.5 29 88.5v153c0 41.333 -9.66699 71.666 -29 90.999s-49.666 29 -90.999 29s-71.666 -9.66699 -90.999 -29s-29 -49.333 -29 -90v-151c0 -41.333 9.66699 -71.666 29 -90.999
s49.666 -29 90.999 -29z" />
    <glyph glyph-name="p" unicode="p" 
d="M348 106c42 0 72.833 9.00098 92.5 27.001s29.5 47.333 29.5 88v156c0 38 -8 66 -24 84s-39.667 27 -71 27c-26 0 -50.5 -6.33301 -73.5 -19s-46.833 -32.334 -71.5 -59.001v-272c18.667 -10.667 37 -18.667 55 -24s39 -8 63 -8zM367 -7.99902
c-22.667 0 -46 2.16699 -70 6.5s-46.333 10.833 -67 19.5v-218h-150v800h150v-105h30c16 35.333 40 63.333 72 84s67.333 31 106 31c56 0 100.333 -19.167 133 -57.5s49 -90.5 49 -156.5v-177c0 -69.333 -22.667 -124.5 -68 -165.5s-107 -61.5 -185 -61.5z" />
    <glyph glyph-name="q" unicode="q" 
d="M470 -200l-0.00195312 305h-30c-14.667 -33.333 -37 -60.833 -67 -82.5s-67 -32.5 -111 -32.5c-59.333 0 -104.5 19.667 -135.5 59s-46.5 91 -46.5 155v177c0 73.333 25.167 129.5 75.5 168.5s117.833 58.5 202.5 58.5c44.667 0 91.334 -5.16699 140.001 -15.5
s89.334 -24.833 122.001 -43.5v-749h-150zM324.998 113c26 0 50.667 6.33301 74 19s47 32 71 58v273c-16.667 10 -34.667 17.833 -54 23.5s-40.333 8.5 -63 8.5c-36 0 -65.5 -9.16699 -88.5 -27.5s-34.5 -47.5 -34.5 -87.5v-151c0 -40 8.16699 -69.333 24.5 -88
s39.833 -28 70.5 -28z" />
    <glyph glyph-name="r" unicode="r" 
d="M115 0l0.00195312 600h150v-105h30c14.667 40 37.167 69.167 67.5 87.5s66.5 27.5 108.5 27.5c48 0 86.167 -14.833 114.5 -44.5s42.5 -71.5 42.5 -125.5v-101h-138v55c0 30.667 -6.83301 54 -20.5 70s-35.834 24 -66.501 24c-26.667 0 -51.834 -6.5 -75.501 -19.5
s-44.5 -34.167 -62.5 -63.5v-405h-150z" />
    <glyph glyph-name="s" unicode="s" 
d="M355 -8c-52 0 -102.834 7.16211 -152.501 21.4951s-93.834 35.5 -132.501 63.5l45 99c36 -25.333 75.5 -44.666 118.5 -57.999s84.167 -20 123.5 -20c32.667 0 59.834 4.83301 81.501 14.5s32.5 27.834 32.5 54.501c0 24.667 -10 42.334 -30 53.001
s-55.667 19.334 -107 26.001c-79.333 8.66699 -139.833 25.5 -181.5 50.5s-62.5 66.167 -62.5 123.5c0 60 23.167 106.667 69.5 140s104.833 50 175.5 50c44 0 88.333 -7 133 -21s85.334 -33.333 122.001 -58l-40 -95c-34 22 -69 38.833 -105 50.5s-71.333 17.5 -106 17.5
c-28.667 0 -52.5 -5.16699 -71.5 -15.5s-28.5 -27.833 -28.5 -52.5s11.167 -42 33.5 -52s61.5 -18.333 117.5 -25c77.333 -9.33301 135 -28.166 173 -56.499s57 -68.5 57 -120.5c0 -62 -24.833 -109.167 -74.5 -141.5s-113.167 -48.5 -190.5 -48.5z" />
    <glyph glyph-name="t" unicode="t" 
d="M455 -10c-74.667 0 -132.5 17.668 -173.5 53.001s-61.5 87.333 -61.5 156v286h-155v115h155v200h150v-200h240v-115h-240v-267c0 -38 9 -65.833 27 -83.5s43.333 -26.5 76 -26.5c20.667 0 41.667 1.5 63 4.5s42.333 8.16699 63 15.5l20 -114
c-18 -6.66699 -41.167 -12.334 -69.5 -17.001s-59.833 -7 -94.5 -7z" />
    <glyph glyph-name="u" unicode="u" 
d="M261 -10c-52 0 -95.167 17.167 -129.5 51.5s-51.5 81.5 -51.5 141.5v417h150v-379c0 -36 7.5 -63 22.5 -81s37.167 -27 66.5 -27c26 0 51.5 8.16699 76.5 24.5s49.833 39.833 74.5 70.5v392h150v-600h-150v105h-30c-16 -38 -41 -66.667 -75 -86s-68.667 -29 -104 -29z
" />
    <glyph glyph-name="v" unicode="v" 
d="M447 0h-195l-193 600h149l144 -483l145 483h143z" />
    <glyph glyph-name="w" unicode="w" 
d="M433 0l-83 337l-79 -337h-144l-103 600h133l61 -456l72 351h116l80 -339l58 444h132l-103 -600h-140z" />
    <glyph glyph-name="x" unicode="x" 
d="M480 0l-137 203l-128 -203h-154l213 304l-201 296h155l127 -187l121 187h154l-204 -290l211 -310h-157z" />
    <glyph glyph-name="y" unicode="y" 
d="M184 -209c-19.333 0 -39.501 0.999023 -60.501 2.99902s-42.833 4.66699 -65.5 8l13 115c23.333 -4.66699 44.333 -8.16699 63 -10.5s35.334 -3.5 50.001 -3.5c34 0 61.5 8 82.5 24s37.833 44.667 50.5 86l2 7h-82l-188 580h156l145 -480l150 480h150l-202 -602
c-24.667 -75.333 -57.667 -128.666 -99 -159.999s-96.333 -47 -165 -47z" />
    <glyph glyph-name="z" unicode="z" 
d="M605 0h-510v115l346 370h-346v115h510v-115l-344 -370h344v-115z" />
    <glyph glyph-name="braceleft" unicode="{" 
d="M575 -210c-160 -2.66699 -275 9 -345 35s-105 69.667 -105 131c0 30.667 5.66699 56.5 17 77.5s27 41.167 47 60.5c20.667 19.333 36.834 35.666 48.501 48.999s17.5 26.666 17.5 39.999c0 31.333 -16.5 53.5 -49.5 66.5s-93.167 20.5 -180.5 22.5v80
c87.333 2 147.5 9.33301 180.5 22s49.5 34.334 49.5 65.001c0 13.333 -5.5 25.5 -16.5 36.5s-26.833 24.167 -47.5 39.5c-20.667 16 -36.834 33.333 -48.501 52s-17.5 43.334 -17.5 74.001c0 62 35 106.333 105 133s185 38.667 345 36v-115
c-112.667 2 -190.834 -2.83301 -234.501 -14.5s-65.5 -32.167 -65.5 -61.5c0 -13.333 4.83301 -26.5 14.5 -39.5s26.834 -28.833 51.501 -47.5c24 -18.667 40.667 -35.167 50 -49.5s14 -31.833 14 -52.5c0 -38.667 -18.667 -67.167 -56 -85.5s-99.333 -28.833 -186 -31.5v-5
c86.667 -6.66699 148.667 -19.667 186 -39s56 -48 56 -86c0 -20 -4.83301 -37.333 -14.5 -52s-26.834 -31.667 -51.501 -51c-24 -18 -40.667 -33.833 -50 -47.5s-14 -29.834 -14 -48.501c0 -31.333 21.833 -53.166 65.5 -65.499s121.834 -17.5 234.501 -15.5v-113z" />
    <glyph glyph-name="bar" unicode="|" 
d="M288 -200v1000h125v-1000h-125z" />
    <glyph glyph-name="braceright" unicode="}" 
d="M575 -44c0 -61.333 -35 -105 -105 -131s-185 -37.667 -345 -35v113c113.333 -2 191.666 3.16699 234.999 15.5s65 34.166 65 65.499c0 18.667 -4.5 34.834 -13.5 48.501s-25.833 29.5 -50.5 47.5c-24.667 19.333 -41.834 36.333 -51.501 51s-14.5 32 -14.5 52
c0 38 18.833 66.667 56.5 86s99.5 32.333 185.5 39v5c-86 2.66699 -147.833 13.167 -185.5 31.5s-56.5 46.833 -56.5 85.5c0 20.667 4.66699 38.167 14 52.5s26.333 30.833 51 49.5s41.667 34.5 51 47.5s14 26.167 14 39.5c0 29.333 -21.667 49.833 -65 61.5
s-121.666 16.5 -234.999 14.5v115c160 2.66699 275 -9.33301 345 -36s105 -71 105 -133c0 -30.667 -5.66699 -55.334 -17 -74.001s-27.333 -36 -48 -52c-20.667 -15.333 -36.667 -28.5 -48 -39.5s-17 -23.167 -17 -36.5c0 -30.667 16.667 -52.334 50 -65.001
s93.333 -20 180 -22v-80c-86.667 -2 -146.667 -9.5 -180 -22.5s-50 -35.167 -50 -66.5c0 -13.333 5.83301 -26.666 17.5 -39.999s27.834 -29.666 48.501 -48.999c20 -19.333 35.667 -39.5 47 -60.5s17 -46.833 17 -77.5z" />
    <glyph glyph-name="asciitilde" unicode="~" 
d="M481 205c-35.333 0 -65.668 10.6689 -91.001 32.002s-51 58 -77 110c-19.333 39.333 -36 69.833 -50 91.5s-30.333 32.5 -49 32.5c-16 0 -29 -9.66699 -39 -29s-15 -52.333 -15 -99v-128h-105v134c0 79.333 14.833 140.166 44.5 182.499s67.5 63.5 113.5 63.5
c36 0 66.667 -10.5 92 -31.5s51.333 -58.167 78 -111.5c18.667 -38.667 35.167 -68.834 49.5 -90.501s30.833 -32.5 49.5 -32.5c16 0 28.833 8.16699 38.5 24.5s14.5 44.5 14.5 84.5v137h105v-144c0 -72.667 -14.667 -128.5 -44 -167.5s-67.666 -58.5 -114.999 -58.5z" />
    <glyph glyph-name="exclamdown" unicode="&#xa1;" 
d="M350 810c40.667 0 71.167 -6.83301 91.5 -20.5s30.5 -34.834 30.5 -63.501v-28c0 -29.333 -10.167 -51 -30.5 -65s-50.833 -21 -91.5 -21s-71 7 -91 21s-30 35.667 -30 65v28c0 28.667 10.167 49.834 30.5 63.501s50.5 20.5 90.5 20.5zM419 500l30 -500h-190l30 500h130z
" />
    <glyph glyph-name="cent" unicode="&#xa2;" 
d="M220 327c0 -38.667 7.66699 -67.832 23 -87.499s40.333 -31.834 75 -36.501v394c-34.667 -4 -59.667 -15.833 -75 -35.5s-23 -49.167 -23 -88.5v-146zM305 -49.998l-0.00195312 143.001c-77.333 6.66699 -135 30 -173 70s-57 94.667 -57 164v150
c0 69.333 19.5 123.5 58.5 162.5s96.167 61.833 171.5 68.5v142h100v-142c71.333 -6.66699 124.333 -28.334 159 -65.001s55.334 -88 62.001 -154l-138 -11c-2.66699 40 -11.167 68.833 -25.5 86.5s-37.5 28.5 -69.5 32.5v-395c33.333 3.33301 56.833 13 70.5 29
s21.834 43 24.501 81l138 -11c-4.66699 -64 -23.5 -113.5 -56.5 -148.5s-87.833 -55.167 -164.5 -60.5v-142h-100z" />
    <glyph glyph-name="sterling" unicode="&#xa3;" 
d="M660 247c-4.66699 -83.333 -25.6699 -146.997 -63.0029 -190.997s-88 -66 -152 -66c-28 0 -55.167 6 -81.5 18l-76.5 34c-21.333 8.66699 -40.666 15.5 -57.999 20.5s-35.333 1.16699 -54 -11.5l-92 -60l-69 97l94 57c23.333 14.667 43.833 36.5 61.5 65.5
s26.5 57.833 26.5 86.5c0 14.667 -1.5 27.834 -4.5 39.501s-6.83301 22.834 -11.5 33.501h-145v95h90c-8.66699 15.333 -16 32.166 -22 50.499s-9 38.833 -9 61.5c0 69.333 22.833 125.5 68.5 168.5s110.5 64.5 194.5 64.5c91.333 0 157.666 -20.833 198.999 -62.5
s64.333 -104.5 69 -188.5l-140 -10c-4 48 -14.5 82.667 -31.5 104s-49.5 32 -97.5 32c-42.667 0 -73.5 -9.5 -92.5 -28.5s-28.5 -46.167 -28.5 -81.5c0 -20.667 3.83301 -39.834 11.5 -57.501s16.834 -35.167 27.501 -52.5h166v-95h-117c2.66699 -9.33301 5 -19.333 7 -30
s3 -22.334 3 -35.001c0 -24.667 -7.66699 -48.667 -23 -72s-42.666 -45.333 -81.999 -66l16 -28c20 11.333 37.333 17.666 52 18.999s29.334 -0.333984 44.001 -5.00098c15.333 -4 30 -9.83301 44 -17.5s29 -11.5 45 -11.5c32.667 0 55 9.83301 67 29.5s20 54.167 24 103.5z
" />
    <glyph glyph-name="currency" unicode="&#xa4;" 
d="M350 210c32 0 55.833 8.33301 71.5 25s23.5 44 23.5 82v162c0 38 -7.83301 66 -23.5 84s-39.5 27 -71.5 27c-31.333 0 -55 -9 -71 -27s-24 -46 -24 -84v-162c0 -38 8 -65.333 24 -82s39.667 -25 71 -25zM350 90c-32.667 0 -62.502 4 -89.502 12s-50.833 20 -71.5 36
l-90 -92l-73 73l103 105c-4.66699 13.333 -8.16699 27.833 -10.5 43.5s-3.5 32.167 -3.5 49.5v162c0 18.667 1.33301 36 4 52s6.33398 31 11.001 45l-104 105l73 73l91 -93c20.667 16.667 44.5 29 71.5 37s56.833 12 89.5 12s62.667 -4.16699 90 -12.5s51 -20.833 71 -37.5
l89 89l73 -73l-103 -103c4.66699 -13.333 8.16699 -27.833 10.5 -43.5s3.5 -32.5 3.5 -50.5v-162c0 -16 -1 -31 -3 -45s-4.66699 -27.333 -8 -40l100 -108l-73 -73l-88 89c-20.667 -16.667 -44.667 -29.167 -72 -37.5s-57.666 -12.5 -90.999 -12.5z" />
    <glyph glyph-name="yen" unicode="&#xa5;" 
d="M625 100h-200v-100h-150v100h-200v95h200v105h-200v95h152l-208 405h154l177 -376l177 376h153l-207 -405h152v-95h-200v-105h200v-95z" />
    <glyph glyph-name="brokenbar" unicode="&#xa6;" 
d="M288 400v400h125v-400h-125zM288 -200v400h125v-400h-125z" />
    <glyph glyph-name="section" unicode="&#xa7;" 
d="M340 217l18 -4l18 -4c26.667 0.666992 50.667 7 72 19s32 32.333 32 61c0 30.667 -11.167 51.834 -33.5 63.501s-49.5 20.834 -81.5 27.501l-18 4l-18 4c-26.667 -0.666992 -50.667 -6.83398 -72 -18.501s-32 -31.834 -32 -60.501c0 -30.667 11.333 -52 34 -64
s49.667 -21.333 81 -28zM368 -207c-51.333 0 -101.002 8.83203 -149.002 26.499s-89 40.167 -123 67.5l50 111c36.667 -26.667 72.667 -47.5 108 -62.5s75 -22.5 119 -22.5c30.667 0 57.334 5.5 80.001 16.5s34 29.833 34 56.5c0 34.667 -16.167 58.667 -48.5 72
s-69.166 24.333 -110.499 33c-80.667 16 -143 38.333 -187 67s-66 73.667 -66 135c0 36 11.333 65.333 34 88s52 40 88 52c-39.333 18.667 -69.5 42.334 -90.5 71.001s-31.5 64 -31.5 106c0 64.667 25.333 113.167 76 145.5s112.667 48.5 186 48.5c52 0 101.333 -9 148 -27
s88 -40.333 124 -67l-55 -106c-36.667 24.667 -72.167 44.167 -106.5 58.5s-72.833 21.5 -115.5 21.5c-34.667 0 -62.167 -6.83301 -82.5 -20.5s-30.5 -32.834 -30.5 -57.501c0 -32.667 17.5 -55.667 52.5 -69s78.833 -25.333 131.5 -36
c68.667 -13.333 123.667 -34.166 165 -62.499s62 -73.166 62 -134.499c0 -36 -10 -66.167 -30 -90.5s-46.333 -42.833 -79 -55.5c35.333 -18.667 62.333 -41.834 81 -69.501s28 -61.5 28 -101.5c0 -62.667 -24.5 -110.667 -73.5 -144s-111.833 -50 -188.5 -50z" />
    <glyph glyph-name="dieresis" unicode="&#xa8;" 
d="M227 700c-24 0 -43.5 5 -58.5 15s-22.5 27.333 -22.5 52v11c0 25.333 7.5 43.166 22.5 53.499s34.5 15.5 58.5 15.5c24.667 0 44.5 -5.16699 59.5 -15.5s22.5 -28.166 22.5 -53.499v-11c0 -24.667 -7.66699 -42 -23 -52s-35 -15 -59 -15zM473 700
c-24.667 0 -44.502 5 -59.502 15s-22.5 27.333 -22.5 52v11c0 25.333 7.5 43.166 22.5 53.499s34.833 15.5 59.5 15.5s44.334 -5.16699 59.001 -15.5s22 -28.166 22 -53.499v-11c0 -24.667 -7.66699 -42 -23 -52s-34.666 -15 -57.999 -15z" />
    <glyph glyph-name="copyright" unicode="&#xa9;" 
d="M350 -110c-112 0 -194.999 31.333 -248.999 94s-81 153.667 -81 273v222c0 120.667 27 212.667 81 276s137.333 95 250 95s195.667 -31.667 249 -95s80 -155.333 80 -276v-222c0 -119.333 -26.833 -210.333 -80.5 -273s-136.834 -94 -249.501 -94zM350.001 -42
c92 0 158.333 24.333 199 73s61 127.334 61 236.001v202c0 110.667 -20.333 190.5 -61 239.5s-107 73.5 -199 73.5c-91.333 0 -157.5 -24.5 -198.5 -73.5s-61.5 -128.833 -61.5 -239.5v-202c0 -108.667 20.5 -187.334 61.5 -236.001s107.167 -73 198.5 -73zM360.001 85
c-62.667 0 -107.502 16.834 -134.502 50.501s-40.5 82.5 -40.5 146.5v180c0 62.667 13.5 110.5 40.5 143.5s71.5 49.5 133.5 49.5c52.667 0 91.334 -16 116.001 -48s39.334 -81.333 44.001 -148l-108 -6c-2.66699 42.667 -7.5 71.167 -14.5 85.5s-19.833 21.5 -38.5 21.5
c-20.667 0 -35.5 -7.83301 -44.5 -23.5s-13.5 -41.834 -13.5 -78.501v-176c0 -36 4.83301 -61.833 14.5 -77.5s24.834 -23.5 45.501 -23.5c17.333 0 29.5 6.16699 36.5 18.5s11.833 38.5 14.5 78.5l108 -6c-4.66699 -64.667 -19.334 -112 -44.001 -142s-63 -45 -115 -45z
" />
    <glyph glyph-name="ordfeminine" unicode="&#xaa;" 
d="M289 390c23.333 0 45.501 3.83203 66.501 11.499s39.833 19.834 56.5 36.501v69h-128c-22.667 0 -40.334 -4.16699 -53.001 -12.5s-19 -24.166 -19 -47.499c0 -18.667 5.83301 -32.834 17.5 -42.501s31.5 -14.5 59.5 -14.5zM261.001 301.999
c-42 0 -81.334 10.834 -118.001 32.501s-55 56.5 -55 104.5c0 46.667 16.5 82.334 49.5 107.001s75.5 37 127.5 37h147v48c0 28.667 -7.66699 50 -23 64s-38.333 21 -69 21c-29.333 0 -52 -4.83301 -68 -14.5s-28.667 -30.167 -38 -61.5l-114 21
c10.667 52 33.334 89.833 68.001 113.5s86 35.5 154 35.5c66.667 0 119.667 -13.333 159 -40s59 -71 59 -133v-168c0 -31.333 7.83301 -50.333 23.5 -57s40.5 -8 74.5 -4v-97c-42 -6.66699 -78.5 -5.83398 -109.5 2.49902s-51.5 33.166 -61.5 74.499h-21
c-16.667 -24.667 -41.667 -45.167 -75 -61.5s-70 -24.5 -110 -24.5z" />
    <glyph glyph-name="guillemotleft" unicode="&#xab;" 
d="M653 60l-280 215v150l280 215v-135l-201 -155l201 -155v-135zM328 60l-280 215v150l280 215v-135l-201 -155l201 -155v-135z" />
    <glyph glyph-name="logicalnot" unicode="&#xac;" 
d="M505 0v285h-440v130h570v-415h-130z" />
    <glyph glyph-name="registered" unicode="&#xae;" 
d="M350 128c-98.667 0 -171.666 24.333 -218.999 73s-71 117 -71 205v173c0 89.333 23.667 158.5 71 207.5s120.666 73.5 219.999 73.5c98.667 0 171.5 -24.5 218.5 -73.5s70.5 -118.167 70.5 -207.5v-173c0 -88 -23.667 -156.333 -71 -205s-120.333 -73 -219 -73z
M350.001 186c80.667 1.33301 139 19.666 175 54.999s54 92 54 170v163c0 79.333 -18 137.166 -54 173.499s-94.333 54.5 -175 54.5c-80 0 -138.167 -18.167 -174.5 -54.5s-54.5 -94.166 -54.5 -173.499v-163c0 -78 18.167 -134.667 54.5 -170s94.5 -53.666 174.5 -54.999z
M309.001 504l49 -0.000976562c14 0 25.333 2.83301 34 8.5s13 15.834 13 30.501v30c0 18.667 -4.33301 31.5 -13 38.5s-20 10.5 -34 10.5h-49v-118zM309.001 302.999h-99v388h156c46 0 80.667 -10 104 -30s35 -49.333 35 -88v-30c0 -23.333 -6 -43 -18 -59
s-29.333 -27.667 -52 -35l86 -146h-108l-74 137h-30v-137z" />
    <glyph glyph-name="macron" unicode="&#x2c9;" 
d="M137 740v120h426v-120h-426z" />
    <glyph glyph-name="macron" unicode="&#xaf;" 
d="M137 740v120h426v-120h-426z" />
    <glyph glyph-name="degree" unicode="&#xb0;" 
d="M350 331c-64 0 -115.833 14.833 -155.5 44.5s-59.5 75.5 -59.5 137.5v108c0 62 19.833 108.333 59.5 139s91.5 46 155.5 46c65.333 0 117.5 -15.333 156.5 -46s58.5 -77 58.5 -139v-108c0 -62 -19.833 -107.833 -59.5 -137.5s-91.5 -44.5 -155.5 -44.5zM350 438
c29.333 0 51.666 6.5 66.999 19.5s23 34.833 23 65.5v88c0 30 -7.66699 52.167 -23 66.5s-37.666 21.5 -66.999 21.5c-30.667 0 -53.334 -7.16699 -68.001 -21.5s-22 -36.5 -22 -66.5v-88c0 -30.667 7.33301 -52.5 22 -65.5s37.334 -19.5 68.001 -19.5z" />
    <glyph glyph-name="plusminus" unicode="&#xb1;" 
d="M285 135v250h-220v130h220v250h130v-250h220v-130h-220v-250h-130zM65 0v130h570v-130h-570z" />
    <glyph glyph-name="two.sups" unicode="&#xb2;" 
d="M135 304l-0.000976562 111.999c0 35.333 9 65.833 27 91.5s48 42.834 90 51.501l122 25c23.333 4.66699 40 11.667 50 21s15 24.333 15 45v11c0 22.667 -7.33301 38.334 -22 47.001s-37 13 -67 13s-51.667 -5 -65 -15s-21 -30.667 -23 -62l-121 7
c2.66699 51.333 19.834 90 51.501 116s84.167 39 157.5 39s126.5 -12.667 159.5 -38s49.5 -61 49.5 -107v-26c0 -38 -10.5 -67.833 -31.5 -89.5s-48.5 -35.834 -82.5 -42.501l-122 -25c-23.333 -4.66699 -40.333 -11 -51 -19s-16 -22 -16 -42v-22h310v-91h-431z" />
    <glyph glyph-name="three.sups" unicode="&#xb3;" 
d="M352 298c-75.333 0 -130.666 12.501 -165.999 37.501s-54.333 62.5 -57 112.5l120 6c2.66699 -25.333 10.834 -42.666 24.501 -51.999s39.5 -14 77.5 -14c36 0 60.667 4.5 74 13.5s20 23.167 20 42.5v16c0 20.667 -7.16699 35.667 -21.5 45s-38.833 14 -73.5 14h-97v89
h97c29.333 0 50.5 3 63.5 9s19.5 18.333 19.5 37v13c0 19.333 -7.66699 32.5 -23 39.5s-37.333 10.5 -66 10.5c-30 0 -50.667 -3.83301 -62 -11.5s-18 -21.834 -20 -42.501l-121 6c3.33301 51.333 22.166 87 56.499 107s83.166 30 146.499 30c60 0 109.833 -8.5 149.5 -25.5
s59.5 -49.833 59.5 -98.5v-12c0 -28.667 -8.83301 -50.834 -26.5 -66.501s-39.167 -25.167 -64.5 -28.5v-18c26.667 -2.66699 50.667 -13 72 -31s32 -43 32 -75v-11c0 -53.333 -18.833 -90.333 -56.5 -111s-90.167 -31 -157.5 -31z" />
    <glyph glyph-name="acute" unicode="&#xb4;" 
d="M226 700l121 200h200l-210 -200h-111z" />
    <glyph glyph-name="mu1" unicode="&#xb5;" 
d="M230 20l10 -220.002h-170l10 220v580h150v-389c0 -34 8.5 -58.5 25.5 -73.5s37.833 -22.5 62.5 -22.5c24 0 44.5 5.33301 61.5 16s33.833 25.334 50.5 44.001v425h150v-415c0 -33.333 6.16699 -54.5 18.5 -63.5s32.833 -11.5 61.5 -7.5v-113
c-47.333 -9.33301 -84.166 -6.83301 -110.499 7.5s-44.833 41.5 -55.5 81.5h-25c-12.667 -26.667 -30.5 -50 -53.5 -70s-53.167 -30 -90.5 -30c-20.667 0 -38.834 3.83301 -54.501 11.5s-29.167 18.834 -40.5 33.501v-15z" />
    <glyph glyph-name="paragraph" unicode="&#xb6;" 
d="M495 340h-90v-540h-125v541c-56.667 2 -106.667 17.833 -150 47.5s-65 79.167 -65 148.5v52c0 73.333 23.167 126.833 69.5 160.5s99.5 50.5 159.5 50.5h326v-1000h-125v540z" />
    <glyph glyph-name="periodcentered" unicode="&#x2219;" 
d="M351 268c-39.333 0 -71 8.66699 -95 26s-36 42.666 -36 75.999v58c0 34 12 59.833 36 77.5s55.667 26.5 95 26.5s70.833 -8.83301 94.5 -26.5s35.5 -43.5 35.5 -77.5v-58c0 -33.333 -12.167 -58.666 -36.5 -75.999s-55.5 -26 -93.5 -26z" />
    <glyph glyph-name="periodcentered" unicode="&#xb7;" 
d="M351 268c-39.333 0 -71 8.66699 -95 26s-36 42.666 -36 75.999v58c0 34 12 59.833 36 77.5s55.667 26.5 95 26.5s70.833 -8.83301 94.5 -26.5s35.5 -43.5 35.5 -77.5v-58c0 -33.333 -12.167 -58.666 -36.5 -75.999s-55.5 -26 -93.5 -26z" />
    <glyph glyph-name="cedilla" unicode="&#xb8;" 
d="M320 0l20 41.998c43.333 -5.33301 80.666 -17.666 111.999 -36.999s47 -51 47 -95c0 -46 -18.667 -79.333 -56 -100s-79 -31 -125 -31c-54 0 -98.167 9.16699 -132.5 27.5s-52.833 49.5 -55.5 93.5l128 10c1.33301 -12.667 5.83301 -21.5 13.5 -26.5
s20.834 -7.5 39.501 -7.5s33 3.83301 43 11.5s15 22.834 15 45.501c0 20 -3.5 34.833 -10.5 44.5s-19.833 17.167 -38.5 22.5z" />
    <glyph glyph-name="one.sups" unicode="&#xb9;" 
d="M185 304l0.000976562 90.998h136v294h-18c-6.66699 -27.333 -22 -49.166 -46 -65.499s-50.333 -25.166 -79 -26.499l-6 90c29.333 2.66699 59.166 13.167 89.499 31.5s50.833 45.5 61.5 81.5h119v-405h124v-91h-381z" />
    <glyph glyph-name="ordmasculine" unicode="&#xba;" 
d="M350 302c-67.333 0 -123.332 15.5 -167.999 46.5s-67 78.5 -67 142.5v126c0 65.333 22.333 113.833 67 145.5s101 47.5 169 47.5c67.333 0 123.166 -15.833 167.499 -47.5s66.5 -80.167 66.5 -145.5v-126c0 -64 -22.167 -111.5 -66.5 -142.5s-100.5 -46.5 -168.5 -46.5z
M350.001 400c37.333 0 64.5 7.66699 81.5 23s25.5 40.333 25.5 75v117c0 32.667 -8.5 57 -25.5 73s-44.167 24 -81.5 24s-64.5 -8.16699 -81.5 -24.5s-25.5 -40.833 -25.5 -73.5v-116c0 -34.667 8.5 -59.667 25.5 -75s44.167 -23 81.5 -23z" />
    <glyph glyph-name="guillemotright" unicode="&#xbb;" 
d="M48 60v135l201 155l-201 155v135l280 -215v-150zM373 60v135l201 155l-201 155v135l280 -215v-150z" />
    <glyph glyph-name="onequarter" unicode="&#xbc;" 
d="M175 411v81.0029h136v204h-18c-3.33301 -13.333 -9 -25.5 -17 -36.5s-17.667 -20.5 -29 -28.5s-23.666 -14.333 -36.999 -19s-27.333 -7.33398 -42 -8.00098l-6 90c15.333 1.33301 30.666 4.66602 45.999 9.99902s30 12.666 44 21.999s26.333 20.833 37 34.5
s18.667 29.167 24 46.5h119v-315h124v-81h-381zM0 247.003v115l318 -20v-75zM396 267.003v75l304 20v-115zM597 -113.997h-93v-96h-121v96h-254v85l226 245h149v-245h93v-85zM226 -28.9971h157v169z" />
    <glyph glyph-name="onehalf" unicode="&#xbd;" 
d="M175 411v81.0029h136v204h-18c-3.33301 -13.333 -9 -25.5 -17 -36.5s-17.667 -20.5 -29 -28.5s-23.666 -14.333 -36.999 -19s-27.333 -7.33398 -42 -8.00098l-6 90c15.333 1.33301 30.666 4.66602 45.999 9.99902s30 12.666 44 21.999s26.333 20.833 37 34.5
s18.667 29.167 24 46.5h119v-315h124v-81h-381zM0 247.003v115l318 -20v-75zM396 267.003v75l304 20v-115zM135 -209.997l0.00585938 90.999c0 16.667 2.16699 31.834 6.5 45.501s11.166 25.834 20.499 36.501c9.33301 11.333 21.5 20.833 36.5 28.5
s32.833 13.834 53.5 18.501l122 25c12.667 2.66699 23 5.16699 31 7.5s14.333 5.16602 19 8.49902c5.33301 3.33301 9.16602 7.33301 11.499 12s3.5 10.667 3.5 18v11c0 7.33301 -1.83301 13.666 -5.5 18.999s-9.16699 9.33301 -16.5 12
c-7.33301 3.33301 -16.5 5.66602 -27.5 6.99902s-24.167 2 -39.5 2c-16 0 -29.167 -0.833008 -39.5 -2.5s-19.166 -4.5 -26.499 -8.5c-6.66699 -4.66699 -11.834 -10.667 -15.501 -18s-5.83398 -16.666 -6.50098 -27.999l-121 7c1.33301 22 6.16602 41.167 14.499 57.5
s20.5 29.833 36.5 40.5c16.667 10.667 38 18.667 64 24s57.333 8 94 8s68.167 -2.66699 94.5 -8s48.166 -13 65.499 -23c16.667 -10 29 -22.5 37 -37.5s12 -32.167 12 -51.5v-26c0 -15.333 -2.66699 -29 -8 -41s-13 -22.333 -23 -31s-22 -16 -36 -22
s-29.667 -10.667 -47 -14l-122 -25c-12 -2.66699 -22 -5.16699 -30 -7.5s-14.667 -5.16602 -20 -8.49902c-5.33301 -4 -9.33301 -8.83301 -12 -14.5s-4.33398 -12.834 -5.00098 -21.501h310v-91h-431z" />
    <glyph glyph-name="threequarters" unicode="&#xbe;" 
d="M352 404c-38 0 -70.835 2.66797 -98.502 8.00098s-50.5 13.333 -68.5 24s-31.5 24.167 -40.5 40.5s-14.167 35.5 -15.5 57.5l120 6c1.33301 -11.333 3.83301 -20.5 7.5 -27.5s9.16699 -12.833 16.5 -17.5c8 -4 18.167 -6.83301 30.5 -8.5s28.166 -2.5 47.499 -2.5
c18 0 33 0.666992 45 2s21.667 3.66602 29 6.99902c7.33301 2.66699 12.5 6.16699 15.5 10.5s4.5 9.83301 4.5 16.5v16c0 7.33301 -1.66699 13.333 -5 18s-8.66602 8.66699 -15.999 12s-17.166 5.66602 -29.499 6.99902s-27.166 2 -44.499 2h-82v79h82
c15.333 0 28.166 0.5 38.499 1.5s18.833 2.83301 25.5 5.5s11.5 6.33398 14.5 11.001s4.5 10.667 4.5 18v13c0 6 -1.83301 11 -5.5 15s-9.16699 7 -16.5 9c-8 2 -17.333 3.5 -28 4.5s-23.667 1.5 -39 1.5s-28 -0.666992 -38 -2s-18 -3.33301 -24 -6
c-6.66699 -3.33301 -11.5 -7.33301 -14.5 -12s-4.83301 -11 -5.5 -19l-121 6c1.33301 19.333 6.33301 36.166 15 50.499s21.334 25.833 38.001 34.5c16.667 9.33301 37.334 16.166 62.001 20.499s54 6.5 88 6.5c33.333 0 62.833 -1.66699 88.5 -5s47.5 -9 65.5 -17
c18 -7.33301 31.667 -17 41 -29s14 -26.333 14 -43v-12c0 -12 -2.33301 -22.5 -7 -31.5s-11 -16.833 -19 -23.5s-17.5 -12 -28.5 -16s-23.167 -7 -36.5 -9v-18c13.333 -1.33301 26.333 -4 39 -8s23.667 -9.33301 33 -16c10 -7.33301 17.833 -15.666 23.5 -24.999
s8.5 -20 8.5 -32v-11c0 -19.333 -4.33301 -36 -13 -50s-22 -25.667 -40 -35c-17.333 -9.33301 -39.333 -16.166 -66 -20.499s-58.334 -6.5 -95.001 -6.5zM-0.00195312 247.001v115l318 -20v-75zM395.998 267.001v75l304 20v-115zM596.998 -113.999h-93v-96h-121v96h-254v85
l226 245h149v-245h93v-85zM225.998 -28.999h157v169z" />
    <glyph glyph-name="questiondown" unicode="&#xbf;" 
d="M397 810c40.667 0 71.167 -6.83301 91.5 -20.5s30.5 -34.834 30.5 -63.501v-28c0 -29.333 -10.167 -51 -30.5 -65s-50.833 -21 -91.5 -21s-71 7 -91 21s-30 35.667 -30 65v28c0 28.667 10.167 49.834 30.5 63.501s50.5 20.5 90.5 20.5zM455 512l20 -106.001
c-106 -16.667 -176.667 -37.167 -212 -61.5s-53 -56.5 -53 -96.5v-25c0 -36 9.16699 -64.667 27.5 -86s55.833 -32 112.5 -32c60.667 0 99.667 10.833 117 32.5s28.333 59.5 33 113.5l150 -10c-4.66699 -89.333 -29.834 -153.5 -75.501 -192.5s-120.167 -58.5 -223.5 -58.5
c-101.333 0 -175.166 21.667 -221.499 65s-69.5 96.333 -69.5 159v38c0 77.333 31.667 134.833 95 172.5s163.333 66.834 300 87.501z" />
    <glyph glyph-name="Agrave" unicode="&#xc0;" 
d="M443 325l-91 346l-96 -346h187zM529 0l-54 205h-252l-57 -205h-141l238 800h175l238 -800h-147zM342 900l-210 200h200l121 -200h-111z" />
    <glyph glyph-name="Aacute" unicode="&#xc1;" 
d="M443 325l-91 346l-96 -346h187zM529 0l-54 205h-252l-57 -205h-141l238 800h175l238 -800h-147zM227 900l121 200h200l-210 -200h-111z" />
    <glyph glyph-name="Acircumflex" unicode="&#xc2;" 
d="M443 325l-91 346l-96 -346h187zM529 0l-54 205h-252l-57 -205h-141l238 800h175l238 -800h-147zM165 894l-50 74l179 154h112l181 -154l-49 -73l-188 110z" />
    <glyph glyph-name="Atilde" unicode="&#xc3;" 
d="M443 325l-91 346l-96 -346h187zM529 0l-54 205h-252l-57 -205h-141l238 800h175l238 -800h-147zM439 910c-28 0 -50.166 5.66699 -66.499 17s-30.5 23.333 -42.5 36l-31.5 35.5c-9.66699 11 -20.834 16.5 -33.501 16.5c-11.333 0 -21.5 -5.5 -30.5 -16.5
s-13.167 -33.833 -12.5 -68.5v-10h-102v15c0 52.667 12.5 96.667 37.5 132s60.5 53 106.5 53c28.667 0 51.5 -5.5 68.5 -16.5s31.167 -22.833 42.5 -35.5l31 -36c9.33301 -11.333 19.666 -17 30.999 -17c12 0 22.5 5.5 31.5 16.5s13.167 33.833 12.5 68.5v10h102v-15
c0 -52.667 -12.667 -96.667 -38 -132s-60.666 -53 -105.999 -53z" />
    <glyph glyph-name="Adieresis" unicode="&#xc4;" 
d="M443 325l-91 346l-96 -346h187zM529 0l-54 205h-252l-57 -205h-141l238 800h175l238 -800h-147zM228 900c-24 0 -43.5 5 -58.5 15s-22.5 27.333 -22.5 52v11c0 25.333 7.5 43.166 22.5 53.499s34.5 15.5 58.5 15.5c24.667 0 44.5 -5.16699 59.5 -15.5
s22.5 -28.166 22.5 -53.499v-11c0 -24.667 -7.66699 -42 -23 -52s-35 -15 -59 -15zM474 900c-24.667 0 -44.502 5 -59.502 15s-22.5 27.333 -22.5 52v11c0 25.333 7.5 43.166 22.5 53.499s34.833 15.5 59.5 15.5s44.334 -5.16699 59.001 -15.5s22 -28.166 22 -53.499v-11
c0 -24.667 -7.66699 -42 -23 -52s-34.666 -15 -57.999 -15z" />
    <glyph glyph-name="Aring" unicode="&#xc5;" 
d="M443 325l-91 346l-96 -346h187zM529 0l-54 205h-252l-57 -205h-141l238 800h175l238 -800h-147zM351 880c-55.333 0 -100 12.333 -134 37s-51 62.334 -51 113.001v32c0 52 17 90.5 51 115.5s78.667 37.5 134 37.5c56 0 100.833 -12.5 134.5 -37.5s50.5 -63.5 50.5 -115.5
v-32c0 -50.667 -17 -88.334 -51 -113.001s-78.667 -37 -134 -37zM351 961c25.333 0 44.5 5.33301 57.5 16s19.5 28.334 19.5 53.001v32c0 24.667 -6.5 42.834 -19.5 54.501s-32.167 17.5 -57.5 17.5c-26 0 -45.333 -5.83301 -58 -17.5s-19 -29.834 -19 -54.501v-32
c0 -24.667 6.33301 -42.334 19 -53.001s32 -16 58 -16z" />
    <glyph glyph-name="AE" unicode="&#xc6;" 
d="M303 690l-101 -375h143v375h-42zM345 205h-172l-55 -205h-113l223 800h457v-110h-210v-205h195v-110h-195v-265h210v-110h-340v205z" />
    <glyph glyph-name="Ccedilla" unicode="&#xc7;" 
d="M360 -10c-98.667 0 -172.502 22.6689 -221.502 68.002s-73.5 113.333 -73.5 204v272c0 92 24.667 161 74 207s123.333 69 222 69c99.333 0 172 -22 218 -66s71.333 -115.667 76 -215l-150 -10c-4.66699 67.333 -17.167 112.666 -37.5 135.999s-56.166 35 -107.499 35
c-52.667 0 -90 -12.667 -112 -38s-33 -68 -33 -128v-252c0 -58.667 11 -100.334 33 -125.001s59.333 -37 112 -37c51.333 0 87 11.5 107 34.5s32.667 67.167 38 132.5l150 -10c-4.66699 -97.333 -30.167 -167.833 -76.5 -211.5s-119.166 -65.5 -218.499 -65.5z
M332.998 0.00195312l20 41.998c43.333 -5.33301 80.666 -17.666 111.999 -36.999s47 -51 47 -95c0 -46 -18.667 -79.333 -56 -100s-79 -31 -125 -31c-54 0 -98.167 9.16699 -132.5 27.5s-52.833 49.5 -55.5 93.5l128 10c1.33301 -12.667 5.83301 -21.5 13.5 -26.5
s20.834 -7.5 39.501 -7.5s33 3.83301 43 11.5s15 22.834 15 45.501c0 20 -3.5 34.833 -10.5 44.5s-19.833 17.167 -38.5 22.5z" />
    <glyph glyph-name="Egrave" unicode="&#xc8;" 
d="M75 0v800h560v-120h-410v-190h360v-120h-360v-250h410v-120h-560zM361 900l-210 200h200l121 -200h-111z" />
    <glyph glyph-name="Eacute" unicode="&#xc9;" 
d="M75 0v800h560v-120h-410v-190h360v-120h-360v-250h410v-120h-560zM256 899l121 200h200l-210 -200h-111z" />
    <glyph glyph-name="Ecircumflex" unicode="&#xca;" 
d="M75 0v800h560v-120h-410v-190h360v-120h-360v-250h410v-120h-560zM179 894l-50 74l179 154h112l181 -154l-49 -73l-188 110z" />
    <glyph glyph-name="Edieresis" unicode="&#xcb;" 
d="M75 0v800h560v-120h-410v-190h360v-120h-360v-250h410v-120h-560zM246 900c-24 0 -43.5 5 -58.5 15s-22.5 27.333 -22.5 52v11c0 25.333 7.5 43.166 22.5 53.499s34.5 15.5 58.5 15.5c24.667 0 44.5 -5.16699 59.5 -15.5s22.5 -28.166 22.5 -53.499v-11
c0 -24.667 -7.66699 -42 -23 -52s-35 -15 -59 -15zM492 900c-24.667 0 -44.502 5 -59.502 15s-22.5 27.333 -22.5 52v11c0 25.333 7.5 43.166 22.5 53.499s34.833 15.5 59.5 15.5s44.334 -5.16699 59.001 -15.5s22 -28.166 22 -53.499v-11c0 -24.667 -7.66699 -42 -23 -52
s-34.666 -15 -57.999 -15z" />
    <glyph glyph-name="Igrave" unicode="&#xcc;" 
d="M75 0v120h200v560h-200v120h550v-120h-200v-560h200v-120h-550zM341 900l-210 200h200l121 -200h-111z" />
    <glyph glyph-name="Iacute" unicode="&#xcd;" 
d="M75 0v120h200v560h-200v120h550v-120h-200v-560h200v-120h-550zM226 900l121 200h200l-210 -200h-111z" />
    <glyph glyph-name="Icircumflex" unicode="&#xce;" 
d="M75 0v120h200v560h-200v120h550v-120h-200v-560h200v-120h-550zM164 894l-50 74l179 154h112l181 -154l-49 -73l-188 110z" />
    <glyph glyph-name="Idieresis" unicode="&#xcf;" 
d="M75 0v120h200v560h-200v120h550v-120h-200v-560h200v-120h-550zM227 900c-24 0 -43.5 5 -58.5 15s-22.5 27.333 -22.5 52v11c0 25.333 7.5 43.166 22.5 53.499s34.5 15.5 58.5 15.5c24.667 0 44.5 -5.16699 59.5 -15.5s22.5 -28.166 22.5 -53.499v-11
c0 -24.667 -7.66699 -42 -23 -52s-35 -15 -59 -15zM473 900c-24.667 0 -44.502 5 -59.502 15s-22.5 27.333 -22.5 52v11c0 25.333 7.5 43.166 22.5 53.499s34.833 15.5 59.5 15.5s44.334 -5.16699 59.001 -15.5s22 -28.166 22 -53.499v-11c0 -24.667 -7.66699 -42 -23 -52
s-34.666 -15 -57.999 -15z" />
    <glyph glyph-name="Eth" unicode="&#xd0;" 
d="M75 0v388h-75v105h75v307h261c93.333 0 166.5 -26.5 219.5 -79.5s79.5 -123.5 79.5 -211.5v-222c0 -87.333 -26.5 -157 -79.5 -209s-126.5 -78 -220.5 -78h-260zM225 120l100 -0.000976562c56.667 0 97.5 14.833 122.5 44.5s37.5 73.834 37.5 132.501v202
c0 60 -12.5 105.167 -37.5 135.5s-65.833 45.5 -122.5 45.5h-100v-187h125v-105h-125v-268z" />
    <glyph glyph-name="Ntilde" unicode="&#xd1;" 
d="M437 0l-232 601v-601h-130v800h177l243 -628v628h130v-800h-188zM448 910c-28 0 -50.166 5.66699 -66.499 17s-30.5 23.333 -42.5 36l-31.5 35.5c-9.66699 11 -20.834 16.5 -33.501 16.5c-11.333 0 -21.5 -5.5 -30.5 -16.5s-13.167 -33.833 -12.5 -68.5v-10h-102v15
c0 52.667 12.5 96.667 37.5 132s60.5 53 106.5 53c28.667 0 51.5 -5.5 68.5 -16.5s31.167 -22.833 42.5 -35.5l31 -36c9.33301 -11.333 19.666 -17 30.999 -17c12 0 22.5 5.5 31.5 16.5s13.167 33.833 12.5 68.5v10h102v-15c0 -52.667 -12.667 -96.667 -38 -132
s-60.666 -53 -105.999 -53z" />
    <glyph glyph-name="Ograve" unicode="&#xd2;" 
d="M350 -10c-93.333 0 -164.168 23.5 -212.501 70.5s-72.5 114.167 -72.5 201.5v272c0 88 24.333 156 73 204s119.667 72 213 72s164 -24 212 -72s72 -116 72 -204v-272c0 -87.333 -24.167 -154.5 -72.5 -201.5s-119.166 -70.5 -212.499 -70.5zM349.998 110
c48.667 0 83.334 12.333 104.001 37s31 66.334 31 125.001v252c0 60 -10.333 102.667 -31 128s-55.334 38 -104.001 38c-48 0 -82.5 -12.667 -103.5 -38s-31.5 -68 -31.5 -128v-252c0 -58.667 10.5 -100.334 31.5 -125.001s55.5 -37 103.5 -37zM340.998 900l-210 200h200
l121 -200h-111z" />
    <glyph glyph-name="Oacute" unicode="&#xd3;" 
d="M350 -10c-93.333 0 -164.168 23.5 -212.501 70.5s-72.5 114.167 -72.5 201.5v272c0 88 24.333 156 73 204s119.667 72 213 72s164 -24 212 -72s72 -116 72 -204v-272c0 -87.333 -24.167 -154.5 -72.5 -201.5s-119.166 -70.5 -212.499 -70.5zM349.998 110
c48.667 0 83.334 12.333 104.001 37s31 66.334 31 125.001v252c0 60 -10.333 102.667 -31 128s-55.334 38 -104.001 38c-48 0 -82.5 -12.667 -103.5 -38s-31.5 -68 -31.5 -128v-252c0 -58.667 10.5 -100.334 31.5 -125.001s55.5 -37 103.5 -37zM260.998 900l121 200h200
l-210 -200h-111z" />
    <glyph glyph-name="Ocircumflex" unicode="&#xd4;" 
d="M350 -10c-93.333 0 -164.168 23.5 -212.501 70.5s-72.5 114.167 -72.5 201.5v272c0 88 24.333 156 73 204s119.667 72 213 72s164 -24 212 -72s72 -116 72 -204v-272c0 -87.333 -24.167 -154.5 -72.5 -201.5s-119.166 -70.5 -212.499 -70.5zM349.998 110
c48.667 0 83.334 12.333 104.001 37s31 66.334 31 125.001v252c0 60 -10.333 102.667 -31 128s-55.334 38 -104.001 38c-48 0 -82.5 -12.667 -103.5 -38s-31.5 -68 -31.5 -128v-252c0 -58.667 10.5 -100.334 31.5 -125.001s55.5 -37 103.5 -37zM163.998 894l-50 74l179 154
h112l181 -154l-49 -73l-188 110z" />
    <glyph glyph-name="Otilde" unicode="&#xd5;" 
d="M350 -10c-93.333 0 -164.168 23.5 -212.501 70.5s-72.5 114.167 -72.5 201.5v272c0 88 24.333 156 73 204s119.667 72 213 72s164 -24 212 -72s72 -116 72 -204v-272c0 -87.333 -24.167 -154.5 -72.5 -201.5s-119.166 -70.5 -212.499 -70.5zM349.998 110
c48.667 0 83.334 12.333 104.001 37s31 66.334 31 125.001v252c0 60 -10.333 102.667 -31 128s-55.334 38 -104.001 38c-48 0 -82.5 -12.667 -103.5 -38s-31.5 -68 -31.5 -128v-252c0 -58.667 10.5 -100.334 31.5 -125.001s55.5 -37 103.5 -37zM437.998 910
c-28 0 -50.166 5.66699 -66.499 17s-30.5 23.333 -42.5 36l-31.5 35.5c-9.66699 11 -20.834 16.5 -33.501 16.5c-11.333 0 -21.5 -5.5 -30.5 -16.5s-13.167 -33.833 -12.5 -68.5v-10h-102v15c0 52.667 12.5 96.667 37.5 132s60.5 53 106.5 53c28.667 0 51.5 -5.5 68.5 -16.5
s31.167 -22.833 42.5 -35.5l31 -36c9.33301 -11.333 19.666 -17 30.999 -17c12 0 22.5 5.5 31.5 16.5s13.167 33.833 12.5 68.5v10h102v-15c0 -52.667 -12.667 -96.667 -38 -132s-60.666 -53 -105.999 -53z" />
    <glyph glyph-name="Odieresis" unicode="&#xd6;" 
d="M350 -10c-93.333 0 -164.168 23.5 -212.501 70.5s-72.5 114.167 -72.5 201.5v272c0 88 24.333 156 73 204s119.667 72 213 72s164 -24 212 -72s72 -116 72 -204v-272c0 -87.333 -24.167 -154.5 -72.5 -201.5s-119.166 -70.5 -212.499 -70.5zM349.998 110
c48.667 0 83.334 12.333 104.001 37s31 66.334 31 125.001v252c0 60 -10.333 102.667 -31 128s-55.334 38 -104.001 38c-48 0 -82.5 -12.667 -103.5 -38s-31.5 -68 -31.5 -128v-252c0 -58.667 10.5 -100.334 31.5 -125.001s55.5 -37 103.5 -37zM226.998 900
c-24 0 -43.5 5 -58.5 15s-22.5 27.333 -22.5 52v11c0 25.333 7.5 43.166 22.5 53.499s34.5 15.5 58.5 15.5c24.667 0 44.5 -5.16699 59.5 -15.5s22.5 -28.166 22.5 -53.499v-11c0 -24.667 -7.66699 -42 -23 -52s-35 -15 -59 -15zM472.998 900
c-24.667 0 -44.502 5 -59.502 15s-22.5 27.333 -22.5 52v11c0 25.333 7.5 43.166 22.5 53.499s34.833 15.5 59.5 15.5s44.334 -5.16699 59.001 -15.5s22 -28.166 22 -53.499v-11c0 -24.667 -7.66699 -42 -23 -52s-34.666 -15 -57.999 -15z" />
    <glyph glyph-name="multiply" unicode="&#xd7;" 
d="M154 39l-83 83l196 228l-196 229l83 83l196 -229l196 226l83 -83l-196 -226l196 -226l-83 -83l-196 226z" />
    <glyph glyph-name="Oslash" unicode="&#xd8;" 
d="M216 202l191.999 482c-8.66699 2 -17.667 3.5 -27 4.5s-19.666 1.5 -30.999 1.5c-53.333 0 -90.833 -13.333 -112.5 -40s-32.5 -72 -32.5 -136v-232c0 -16.667 0.833008 -31.5 2.5 -44.5s4.5 -24.833 8.5 -35.5zM349.999 110c54 0 91.668 13 113.001 39s32 70.333 32 133
v232c0 20.667 -1.33301 38.667 -4 54s-7 28.333 -13 39l-195 -487c9.33301 -3.33301 19.666 -5.83301 30.999 -7.5s23.333 -2.5 36 -2.5zM350 -10c-18.667 0 -36.833 1.16602 -54.5 3.49902s-33.834 5.83301 -48.501 10.5l-42 -104h-120l62 155
c-26.667 24 -47 54.333 -61 91s-21 78.667 -21 126v252c0 91.333 24.333 161.833 73 211.5s119.667 74.5 213 74.5c16.667 0 33 -0.833008 49 -2.5s31 -4.16699 45 -7.5l40 100h120l-59 -148c29.333 -24 51.5 -55.167 66.5 -93.5s22.5 -83.166 22.5 -134.499v-252
c0 -90 -24.167 -159.5 -72.5 -208.5s-119.166 -73.5 -212.499 -73.5z" />
    <glyph glyph-name="Ugrave" unicode="&#xd9;" 
d="M350 -10c-93.333 0 -162.5 23.5 -207.5 70.5s-67.5 119.167 -67.5 216.5v523h150v-518c0 -62 9.66699 -105.333 29 -130s51.333 -37 96 -37c45.333 0 77.5 12.333 96.5 37s28.5 68 28.5 130v518h150v-523c0 -97.333 -22.5 -169.5 -67.5 -216.5
s-114.167 -70.5 -207.5 -70.5zM341 900l-210 200h200l121 -200h-111z" />
    <glyph glyph-name="Uacute" unicode="&#xda;" 
d="M350 -10c-93.333 0 -162.5 23.5 -207.5 70.5s-67.5 119.167 -67.5 216.5v523h150v-518c0 -62 9.66699 -105.333 29 -130s51.333 -37 96 -37c45.333 0 77.5 12.333 96.5 37s28.5 68 28.5 130v518h150v-523c0 -97.333 -22.5 -169.5 -67.5 -216.5
s-114.167 -70.5 -207.5 -70.5zM226 900l121 200h200l-210 -200h-111z" />
    <glyph glyph-name="Ucircumflex" unicode="&#xdb;" 
d="M350 -10c-93.333 0 -162.5 23.5 -207.5 70.5s-67.5 119.167 -67.5 216.5v523h150v-518c0 -62 9.66699 -105.333 29 -130s51.333 -37 96 -37c45.333 0 77.5 12.333 96.5 37s28.5 68 28.5 130v518h150v-523c0 -97.333 -22.5 -169.5 -67.5 -216.5
s-114.167 -70.5 -207.5 -70.5zM164 894l-50 74l179 154h112l181 -154l-49 -73l-188 110z" />
    <glyph glyph-name="Udieresis" unicode="&#xdc;" 
d="M350 -10c-93.333 0 -162.5 23.5 -207.5 70.5s-67.5 119.167 -67.5 216.5v523h150v-518c0 -62 9.66699 -105.333 29 -130s51.333 -37 96 -37c45.333 0 77.5 12.333 96.5 37s28.5 68 28.5 130v518h150v-523c0 -97.333 -22.5 -169.5 -67.5 -216.5
s-114.167 -70.5 -207.5 -70.5zM227 900c-24 0 -43.5 5 -58.5 15s-22.5 27.333 -22.5 52v11c0 25.333 7.5 43.166 22.5 53.499s34.5 15.5 58.5 15.5c24.667 0 44.5 -5.16699 59.5 -15.5s22.5 -28.166 22.5 -53.499v-11c0 -24.667 -7.66699 -42 -23 -52s-35 -15 -59 -15z
M473 900c-24.667 0 -44.502 5 -59.502 15s-22.5 27.333 -22.5 52v11c0 25.333 7.5 43.166 22.5 53.499s34.833 15.5 59.5 15.5s44.334 -5.16699 59.001 -15.5s22 -28.166 22 -53.499v-11c0 -24.667 -7.66699 -42 -23 -52s-34.666 -15 -57.999 -15z" />
    <glyph glyph-name="Yacute" unicode="&#xdd;" 
d="M425 0h-150v300l-261 500h156l182 -374l179 374h154l-260 -500v-300zM226 900l121 200h200l-210 -200h-111z" />
    <glyph glyph-name="Thorn" unicode="&#xde;" 
d="M75 0v800h150v-125h147c87.333 0 153.833 -18.833 199.5 -56.5s68.5 -92.5 68.5 -164.5v-101c0 -70.667 -22.833 -124.5 -68.5 -161.5s-112.167 -55.5 -199.5 -55.5h-147v-136h-150zM225 254h135c46.667 0 80 8 100 24s30 42.333 30 79v97c0 36 -10 61.833 -30 77.5
s-53.333 23.5 -100 23.5h-135v-301z" />
    <glyph glyph-name="germandbls" unicode="&#xdf;" 
d="M458 -6c-36.667 0 -73.834 6.49805 -111.501 19.498s-69.167 31.167 -94.5 54.5l48 95c23.333 -20 47.833 -36.167 73.5 -48.5s52.5 -18.5 80.5 -18.5c24 0 44.5 5.16699 61.5 15.5s25.5 26.833 25.5 49.5s-8.16699 39 -24.5 49s-48.166 21.667 -95.499 35
c-54 13.333 -94.167 33.5 -120.5 60.5s-39.5 60.833 -39.5 101.5c0 50 16.667 90.5 50 121.5s77 48.833 131 53.5c-3.33301 40 -17 68.333 -41 85s-52.667 25 -86 25c-31.333 0 -60 -10.333 -86 -31s-39 -55 -39 -103v-558h-145v572c0 78 25.333 136.833 76 176.5
s115.667 59.5 195 59.5c80 0 144.5 -22.833 193.5 -68.5s73.5 -104.5 73.5 -176.5v-61c-64 0.666992 -111.333 -4.66602 -142 -15.999s-46 -30.333 -46 -57c0 -22.667 10.5 -39.167 31.5 -49.5s55.167 -22.5 102.5 -36.5c50 -13.333 87 -33.666 111 -60.999s36 -63 36 -107
c0 -58.667 -21.333 -103.5 -64 -134.5s-94 -46.5 -154 -46.5z" />
    <glyph glyph-name="agrave" unicode="&#xe0;" 
d="M281 93c28 0 54 4.50098 78 13.501s46 23.167 66 42.5v97h-150c-24.667 0 -44.167 -5.33301 -58.5 -16s-21.5 -31.334 -21.5 -62.001c0 -24 6.66699 -42.5 20 -55.5s35.333 -19.5 66 -19.5zM248 -9.99902c-54.667 0 -100.498 14.666 -137.498 43.999
s-55.5 72.333 -55.5 129c0 54.667 18.667 96.834 56 126.501s85 44.5 143 44.5h171v77c0 30 -9 52 -27 66s-45 21 -81 21c-36.667 0 -64 -6.16699 -82 -18.5s-31.667 -37.5 -41 -75.5l-125 25c13.333 64 39.666 110.167 78.999 138.5s96.666 42.5 171.999 42.5
c78 0 139.167 -15.667 183.5 -47s66.5 -80 66.5 -146v-242c0 -30.667 9 -49.667 27 -57s44 -8.66602 78 -3.99902v-113c-48.667 -10 -90.5 -8.5 -125.5 4.5s-56.833 42.833 -65.5 89.5h-25c-20 -28.667 -48.667 -53.334 -86 -74.001s-79 -31 -125 -31zM326.002 700l-210 200
h200l121 -200h-111z" />
    <glyph glyph-name="aacute" unicode="&#xe1;" 
d="M281 93c28 0 54 4.50098 78 13.501s46 23.167 66 42.5v97h-150c-24.667 0 -44.167 -5.33301 -58.5 -16s-21.5 -31.334 -21.5 -62.001c0 -24 6.66699 -42.5 20 -55.5s35.333 -19.5 66 -19.5zM248 -9.99902c-54.667 0 -100.498 14.666 -137.498 43.999
s-55.5 72.333 -55.5 129c0 54.667 18.667 96.834 56 126.501s85 44.5 143 44.5h171v77c0 30 -9 52 -27 66s-45 21 -81 21c-36.667 0 -64 -6.16699 -82 -18.5s-31.667 -37.5 -41 -75.5l-125 25c13.333 64 39.666 110.167 78.999 138.5s96.666 42.5 171.999 42.5
c78 0 139.167 -15.667 183.5 -47s66.5 -80 66.5 -146v-242c0 -30.667 9 -49.667 27 -57s44 -8.66602 78 -3.99902v-113c-48.667 -10 -90.5 -8.5 -125.5 4.5s-56.833 42.833 -65.5 89.5h-25c-20 -28.667 -48.667 -53.334 -86 -74.001s-79 -31 -125 -31zM211.002 700l121 200
h200l-210 -200h-111z" />
    <glyph glyph-name="acircumflex" unicode="&#xe2;" 
d="M281 93c28 0 54 4.50098 78 13.501s46 23.167 66 42.5v97h-150c-24.667 0 -44.167 -5.33301 -58.5 -16s-21.5 -31.334 -21.5 -62.001c0 -24 6.66699 -42.5 20 -55.5s35.333 -19.5 66 -19.5zM248 -9.99902c-54.667 0 -100.498 14.666 -137.498 43.999
s-55.5 72.333 -55.5 129c0 54.667 18.667 96.834 56 126.501s85 44.5 143 44.5h171v77c0 30 -9 52 -27 66s-45 21 -81 21c-36.667 0 -64 -6.16699 -82 -18.5s-31.667 -37.5 -41 -75.5l-125 25c13.333 64 39.666 110.167 78.999 138.5s96.666 42.5 171.999 42.5
c78 0 139.167 -15.667 183.5 -47s66.5 -80 66.5 -146v-242c0 -30.667 9 -49.667 27 -57s44 -8.66602 78 -3.99902v-113c-48.667 -10 -90.5 -8.5 -125.5 4.5s-56.833 42.833 -65.5 89.5h-25c-20 -28.667 -48.667 -53.334 -86 -74.001s-79 -31 -125 -31zM154.002 694l-50 74
l179 154h112l181 -154l-49 -73l-188 110z" />
    <glyph glyph-name="atilde" unicode="&#xe3;" 
d="M281 93c28 0 54 4.50098 78 13.501s46 23.167 66 42.5v97h-150c-24.667 0 -44.167 -5.33301 -58.5 -16s-21.5 -31.334 -21.5 -62.001c0 -24 6.66699 -42.5 20 -55.5s35.333 -19.5 66 -19.5zM248 -9.99902c-54.667 0 -100.498 14.666 -137.498 43.999
s-55.5 72.333 -55.5 129c0 54.667 18.667 96.834 56 126.501s85 44.5 143 44.5h171v77c0 30 -9 52 -27 66s-45 21 -81 21c-36.667 0 -64 -6.16699 -82 -18.5s-31.667 -37.5 -41 -75.5l-125 25c13.333 64 39.666 110.167 78.999 138.5s96.666 42.5 171.999 42.5
c78 0 139.167 -15.667 183.5 -47s66.5 -80 66.5 -146v-242c0 -30.667 9 -49.667 27 -57s44 -8.66602 78 -3.99902v-113c-48.667 -10 -90.5 -8.5 -125.5 4.5s-56.833 42.833 -65.5 89.5h-25c-20 -28.667 -48.667 -53.334 -86 -74.001s-79 -31 -125 -31zM423.002 710
c-28 0 -50.166 5.66699 -66.499 17s-30.5 23.333 -42.5 36l-31.5 35.5c-9.66699 11 -20.834 16.5 -33.501 16.5c-11.333 0 -21.5 -5.5 -30.5 -16.5s-13.167 -33.833 -12.5 -68.5v-10h-102v15c0 52.667 12.5 96.667 37.5 132s60.5 53 106.5 53c28.667 0 51.5 -5.5 68.5 -16.5
s31.167 -22.833 42.5 -35.5l31 -36c9.33301 -11.333 19.666 -17 30.999 -17c12 0 22.5 5.5 31.5 16.5s13.167 33.833 12.5 68.5v10h102v-15c0 -52.667 -12.667 -96.667 -38 -132s-60.666 -53 -105.999 -53z" />
    <glyph glyph-name="adieresis" unicode="&#xe4;" 
d="M281 93c28 0 54 4.50098 78 13.501s46 23.167 66 42.5v97h-150c-24.667 0 -44.167 -5.33301 -58.5 -16s-21.5 -31.334 -21.5 -62.001c0 -24 6.66699 -42.5 20 -55.5s35.333 -19.5 66 -19.5zM248 -9.99902c-54.667 0 -100.498 14.666 -137.498 43.999
s-55.5 72.333 -55.5 129c0 54.667 18.667 96.834 56 126.501s85 44.5 143 44.5h171v77c0 30 -9 52 -27 66s-45 21 -81 21c-36.667 0 -64 -6.16699 -82 -18.5s-31.667 -37.5 -41 -75.5l-125 25c13.333 64 39.666 110.167 78.999 138.5s96.666 42.5 171.999 42.5
c78 0 139.167 -15.667 183.5 -47s66.5 -80 66.5 -146v-242c0 -30.667 9 -49.667 27 -57s44 -8.66602 78 -3.99902v-113c-48.667 -10 -90.5 -8.5 -125.5 4.5s-56.833 42.833 -65.5 89.5h-25c-20 -28.667 -48.667 -53.334 -86 -74.001s-79 -31 -125 -31zM212.002 700
c-24 0 -43.5 5 -58.5 15s-22.5 27.333 -22.5 52v11c0 25.333 7.5 43.166 22.5 53.499s34.5 15.5 58.5 15.5c24.667 0 44.5 -5.16699 59.5 -15.5s22.5 -28.166 22.5 -53.499v-11c0 -24.667 -7.66699 -42 -23 -52s-35 -15 -59 -15zM458.002 700
c-24.667 0 -44.502 5 -59.502 15s-22.5 27.333 -22.5 52v11c0 25.333 7.5 43.166 22.5 53.499s34.833 15.5 59.5 15.5s44.334 -5.16699 59.001 -15.5s22 -28.166 22 -53.499v-11c0 -24.667 -7.66699 -42 -23 -52s-34.666 -15 -57.999 -15z" />
    <glyph glyph-name="aring" unicode="&#xe5;" 
d="M281 93c28 0 54 4.50098 78 13.501s46 23.167 66 42.5v97h-150c-24.667 0 -44.167 -5.33301 -58.5 -16s-21.5 -31.334 -21.5 -62.001c0 -24 6.66699 -42.5 20 -55.5s35.333 -19.5 66 -19.5zM248 -9.99902c-54.667 0 -100.498 14.666 -137.498 43.999
s-55.5 72.333 -55.5 129c0 54.667 18.667 96.834 56 126.501s85 44.5 143 44.5h171v77c0 30 -9 52 -27 66s-45 21 -81 21c-36.667 0 -64 -6.16699 -82 -18.5s-31.667 -37.5 -41 -75.5l-125 25c13.333 64 39.666 110.167 78.999 138.5s96.666 42.5 171.999 42.5
c78 0 139.167 -15.667 183.5 -47s66.5 -80 66.5 -146v-242c0 -30.667 9 -49.667 27 -57s44 -8.66602 78 -3.99902v-113c-48.667 -10 -90.5 -8.5 -125.5 4.5s-56.833 42.833 -65.5 89.5h-25c-20 -28.667 -48.667 -53.334 -86 -74.001s-79 -31 -125 -31zM330.002 680
c-55.333 0 -100 12.333 -134 37s-51 62.334 -51 113.001v32c0 52 17 90.5 51 115.5s78.667 37.5 134 37.5c56 0 100.833 -12.5 134.5 -37.5s50.5 -63.5 50.5 -115.5v-32c0 -50.667 -17 -88.334 -51 -113.001s-78.667 -37 -134 -37zM330.002 761
c25.333 0 44.5 5.33301 57.5 16s19.5 28.334 19.5 53.001v32c0 24.667 -6.5 42.834 -19.5 54.501s-32.167 17.5 -57.5 17.5c-26 0 -45.333 -5.83301 -58 -17.5s-19 -29.834 -19 -54.501v-32c0 -24.667 6.33301 -42.334 19 -53.001s32 -16 58 -16z" />
    <glyph glyph-name="ae" unicode="&#xe6;" 
d="M675 148c-10.667 -52.667 -30.6611 -92.1641 -59.9941 -118.497s-70 -39.5 -122 -39.5c-34.667 0 -64.834 7.5 -90.501 22.5s-45.5 37.5 -59.5 67.5h-24c-12 -26.667 -29.667 -48.334 -53 -65.001s-52.333 -25 -87 -25c-42 0 -78.167 14.167 -108.5 42.5
s-45.5 70.5 -45.5 126.5c0 57.333 16 100.833 48 130.5s73 44.5 123 44.5h104v72c0 32.667 -5.83301 57 -17.5 73s-29.834 24 -54.501 24c-22 0 -38 -5.83301 -48 -17.5s-20.333 -35.5 -31 -71.5l-110 25c12.667 57.333 33.5 100.166 62.5 128.499s70.167 42.5 123.5 42.5
c29.333 0 55.166 -5.66699 77.499 -17s39.833 -30 52.5 -56c16 24.667 36.167 43 60.5 55s51.166 18 80.499 18c52.667 0 95.667 -17.833 129 -53.5s50 -90.5 50 -164.5v-122h-260v-76c0 -34 5.5 -59.833 16.5 -77.5s28.833 -26.5 53.5 -26.5
c23.333 0 40.666 5.66699 51.999 17s19.666 30.666 24.999 57.999zM415.006 407.003v-54h145v48c0 40 -5.66699 68.667 -17 86s-29.333 26 -54 26c-24 0 -42.333 -8.33301 -55 -25s-19 -43.667 -19 -81zM300.006 139.003v112.001h-72c-24 0 -43 -6 -57 -18
s-21 -33.667 -21 -65c0 -25.333 4.83301 -45 14.5 -59s25.167 -21 46.5 -21c17.333 0 33 4.66699 47 14s28 21.666 42 36.999z" />
    <glyph glyph-name="ccedilla" unicode="&#xe7;" 
d="M362 -10c-92 0 -161.998 19.832 -209.998 59.499s-72 97.167 -72 172.5v156c0 75.333 24 132.833 72 172.5s117.667 59.5 209 59.5c84.667 0 148.167 -18.667 190.5 -56s67.166 -90.666 74.499 -159.999l-145 -11c-2.66699 40 -13.834 68.667 -33.501 86
s-49.834 26 -90.501 26c-44 0 -76.167 -9.66699 -96.5 -29s-30.5 -51 -30.5 -95v-144c0 -42.667 10.333 -73.667 31 -93s53.334 -29 98.001 -29c40 0 69.667 7.16699 89 21.5s30.333 37.833 33 70.5l145 -11c-4.66699 -63.333 -27.167 -111.833 -67.5 -145.5
s-105.833 -50.5 -196.5 -50.5zM341.002 -0.000976562l20 41.998c43.333 -5.33301 80.666 -17.666 111.999 -36.999s47 -51 47 -95c0 -46 -18.667 -79.333 -56 -100s-79 -31 -125 -31c-54 0 -98.167 9.16699 -132.5 27.5s-52.833 49.5 -55.5 93.5l128 10
c1.33301 -12.667 5.83301 -21.5 13.5 -26.5s20.834 -7.5 39.501 -7.5s33 3.83301 43 11.5s15 22.834 15 45.501c0 20 -3.5 34.833 -10.5 44.5s-19.833 17.167 -38.5 22.5z" />
    <glyph glyph-name="egrave" unicode="&#xe8;" 
d="M628 137c-22 -54 -52.834 -92.001 -92.501 -114.001s-100.5 -33 -182.5 -33c-81.333 0 -147.166 19.167 -197.499 57.5s-75.5 95.5 -75.5 171.5v160c0 74.667 24.5 131.834 73.5 171.501s114.833 59.5 197.5 59.5c83.333 0 149 -20 197 -60s72 -98.333 72 -175v-105h-390
v-58c0 -39.333 10 -68.666 30 -87.999s51.667 -29 95 -29c38 0 67.833 5.66699 89.5 17s39.5 31.666 53.5 60.999zM229.999 388.999l0.00195312 -31h240v22c0 46 -9.33301 78.833 -28 98.5s-49.334 29.5 -92.001 29.5s-73.334 -9.33301 -92.001 -28s-28 -49 -28 -91z
M344.001 699.999l-210 200h200l121 -200h-111z" />
    <glyph glyph-name="eacute" unicode="&#xe9;" 
d="M628 137c-22 -54 -52.834 -92.001 -92.501 -114.001s-100.5 -33 -182.5 -33c-81.333 0 -147.166 19.167 -197.499 57.5s-75.5 95.5 -75.5 171.5v160c0 74.667 24.5 131.834 73.5 171.501s114.833 59.5 197.5 59.5c83.333 0 149 -20 197 -60s72 -98.333 72 -175v-105h-390
v-58c0 -39.333 10 -68.666 30 -87.999s51.667 -29 95 -29c38 0 67.833 5.66699 89.5 17s39.5 31.666 53.5 60.999zM229.999 388.999l0.00195312 -31h240v22c0 46 -9.33301 78.833 -28 98.5s-49.334 29.5 -92.001 29.5s-73.334 -9.33301 -92.001 -28s-28 -49 -28 -91z
M239.001 699.999l121 200h200l-210 -200h-111z" />
    <glyph glyph-name="ecircumflex" unicode="&#xea;" 
d="M628 137c-22 -54 -52.834 -92.001 -92.501 -114.001s-100.5 -33 -182.5 -33c-81.333 0 -147.166 19.167 -197.499 57.5s-75.5 95.5 -75.5 171.5v160c0 74.667 24.5 131.834 73.5 171.501s114.833 59.5 197.5 59.5c83.333 0 149 -20 197 -60s72 -98.333 72 -175v-105h-390
v-58c0 -39.333 10 -68.666 30 -87.999s51.667 -29 95 -29c38 0 67.833 5.66699 89.5 17s39.5 31.666 53.5 60.999zM229.999 388.999l0.00195312 -31h240v22c0 46 -9.33301 78.833 -28 98.5s-49.334 29.5 -92.001 29.5s-73.334 -9.33301 -92.001 -28s-28 -49 -28 -91z
M167.001 693.999l-50 74l179 154h112l181 -154l-49 -73l-188 110z" />
    <glyph glyph-name="edieresis" unicode="&#xeb;" 
d="M628 137c-22 -54 -52.834 -92.001 -92.501 -114.001s-100.5 -33 -182.5 -33c-81.333 0 -147.166 19.167 -197.499 57.5s-75.5 95.5 -75.5 171.5v160c0 74.667 24.5 131.834 73.5 171.501s114.833 59.5 197.5 59.5c83.333 0 149 -20 197 -60s72 -98.333 72 -175v-105h-390
v-58c0 -39.333 10 -68.666 30 -87.999s51.667 -29 95 -29c38 0 67.833 5.66699 89.5 17s39.5 31.666 53.5 60.999zM229.999 388.999l0.00195312 -31h240v22c0 46 -9.33301 78.833 -28 98.5s-49.334 29.5 -92.001 29.5s-73.334 -9.33301 -92.001 -28s-28 -49 -28 -91z
M230.001 699.999c-24 0 -43.5 5 -58.5 15s-22.5 27.333 -22.5 52v11c0 25.333 7.5 43.166 22.5 53.499s34.5 15.5 58.5 15.5c24.667 0 44.5 -5.16699 59.5 -15.5s22.5 -28.166 22.5 -53.499v-11c0 -24.667 -7.66699 -42 -23 -52s-35 -15 -59 -15zM476.001 699.999
c-24.667 0 -44.502 5 -59.502 15s-22.5 27.333 -22.5 52v11c0 25.333 7.5 43.166 22.5 53.499s34.833 15.5 59.5 15.5s44.334 -5.16699 59.001 -15.5s22 -28.166 22 -53.499v-11c0 -24.667 -7.66699 -42 -23 -52s-34.666 -15 -57.999 -15z" />
    <glyph glyph-name="igrave" unicode="&#xec;" 
d="M85 0v115h190v370h-190v115h340v-485h190v-115h-530zM351 700l-210 200h200l121 -200h-111z" />
    <glyph glyph-name="iacute" unicode="&#xed;" 
d="M85 0v115h190v370h-190v115h340v-485h190v-115h-530zM226 700l121 200h200l-210 -200h-111z" />
    <glyph glyph-name="icircumflex" unicode="&#xee;" 
d="M85 0v115h190v370h-190v115h340v-485h190v-115h-530zM164 694l-50 74l179 154h112l181 -154l-49 -73l-188 110z" />
    <glyph glyph-name="idieresis" unicode="&#xef;" 
d="M85 0v115h190v370h-190v115h340v-485h190v-115h-530zM227 700c-24 0 -43.5 5 -58.5 15s-22.5 27.333 -22.5 52v11c0 25.333 7.5 43.166 22.5 53.499s34.5 15.5 58.5 15.5c24.667 0 44.5 -5.16699 59.5 -15.5s22.5 -28.166 22.5 -53.499v-11
c0 -24.667 -7.66699 -42 -23 -52s-35 -15 -59 -15zM473 700c-24.667 0 -44.502 5 -59.502 15s-22.5 27.333 -22.5 52v11c0 25.333 7.5 43.166 22.5 53.499s34.833 15.5 59.5 15.5s44.334 -5.16699 59.001 -15.5s22 -28.166 22 -53.499v-11c0 -24.667 -7.66699 -42 -23 -52
s-34.666 -15 -57.999 -15z" />
    <glyph glyph-name="eth" unicode="&#xf0;" 
d="M350 -10c-82 0 -148.332 19.333 -198.999 58s-76 97.667 -76 177v62c0 65.333 21.167 117.166 63.5 155.499s97.166 57.5 164.499 57.5c42 0 76.333 -7.33301 103 -22s45.334 -32 56.001 -52h22c-3.33301 42 -11.666 78.333 -24.999 109s-32.333 57.334 -57 80.001
l-177 -80v90l93 42c-20.667 10.667 -43.834 20.5 -69.501 29.5s-53.834 17.5 -84.501 25.5l76 99c45.333 -12 86 -25.5 122 -40.5s67.667 -31.833 95 -50.5l168 75v-90l-97 -44c34 -36 58.667 -78.833 74 -128.5s23 -106.5 23 -170.5v-141
c0 -83.333 -25.333 -144.333 -76 -183s-117 -58 -199 -58zM351.001 105c45.333 0 77.333 9.33301 96 28s28 47 28 85v63c0 34.667 -9.33301 60.5 -28 77.5s-50.667 25.5 -96 25.5s-77.333 -8.5 -96 -25.5s-28 -42.833 -28 -77.5v-63c0 -38 9.33301 -66.333 28 -85
s50.667 -28 96 -28z" />
    <glyph glyph-name="ntilde" unicode="&#xf1;" 
d="M80 0l0.000976562 600h150v-105h30c15.333 36 39.5 64.167 72.5 84.5s70.5 30.5 112.5 30.5c54.667 0 97.5 -17.167 128.5 -51.5s46.5 -81.5 46.5 -141.5v-417h-150v390c0 32 -7.5 56.333 -22.5 73s-36.833 25 -65.5 25c-25.333 0 -51.333 -7.16699 -78 -21.5
s-51.334 -35.833 -74.001 -64.5v-402h-150zM458.001 710c-28 0 -50.166 5.66699 -66.499 17s-30.5 23.333 -42.5 36l-31.5 35.5c-9.66699 11 -20.834 16.5 -33.501 16.5c-11.333 0 -21.5 -5.5 -30.5 -16.5s-13.167 -33.833 -12.5 -68.5v-10h-102v15
c0 52.667 12.5 96.667 37.5 132s60.5 53 106.5 53c28.667 0 51.5 -5.5 68.5 -16.5s31.167 -22.833 42.5 -35.5l31 -36c9.33301 -11.333 19.666 -17 30.999 -17c12 0 22.5 5.5 31.5 16.5s13.167 33.833 12.5 68.5v10h102v-15c0 -52.667 -12.667 -96.667 -38 -132
s-60.666 -53 -105.999 -53z" />
    <glyph glyph-name="ograve" unicode="&#xf2;" 
d="M350 -10c-85.333 0 -151.668 19.833 -199.001 59.5s-71 95.5 -71 167.5v162c0 73.333 23.833 130.166 71.5 170.499s114.167 60.5 199.5 60.5s151.5 -20.5 198.5 -61.5s70.5 -98.167 70.5 -171.5v-162c0 -71.333 -23.667 -126.666 -71 -165.999
s-113.666 -59 -198.999 -59zM349.998 105c41.333 0 71.666 9.5 90.999 28.5s29 48.5 29 88.5v153c0 41.333 -9.66699 71.666 -29 90.999s-49.666 29 -90.999 29s-71.666 -9.66699 -90.999 -29s-29 -49.333 -29 -90v-151c0 -41.333 9.66699 -71.666 29 -90.999
s49.666 -29 90.999 -29zM340.998 700l-210 200h200l121 -200h-111z" />
    <glyph glyph-name="oacute" unicode="&#xf3;" 
d="M350 -10c-85.333 0 -151.668 19.833 -199.001 59.5s-71 95.5 -71 167.5v162c0 73.333 23.833 130.166 71.5 170.499s114.167 60.5 199.5 60.5s151.5 -20.5 198.5 -61.5s70.5 -98.167 70.5 -171.5v-162c0 -71.333 -23.667 -126.666 -71 -165.999
s-113.666 -59 -198.999 -59zM349.998 105c41.333 0 71.666 9.5 90.999 28.5s29 48.5 29 88.5v153c0 41.333 -9.66699 71.666 -29 90.999s-49.666 29 -90.999 29s-71.666 -9.66699 -90.999 -29s-29 -49.333 -29 -90v-151c0 -41.333 9.66699 -71.666 29 -90.999
s49.666 -29 90.999 -29zM225.998 700l121 200h200l-210 -200h-111z" />
    <glyph glyph-name="ocircumflex" unicode="&#xf4;" 
d="M350 -10c-85.333 0 -151.668 19.833 -199.001 59.5s-71 95.5 -71 167.5v162c0 73.333 23.833 130.166 71.5 170.499s114.167 60.5 199.5 60.5s151.5 -20.5 198.5 -61.5s70.5 -98.167 70.5 -171.5v-162c0 -71.333 -23.667 -126.666 -71 -165.999
s-113.666 -59 -198.999 -59zM349.998 105c41.333 0 71.666 9.5 90.999 28.5s29 48.5 29 88.5v153c0 41.333 -9.66699 71.666 -29 90.999s-49.666 29 -90.999 29s-71.666 -9.66699 -90.999 -29s-29 -49.333 -29 -90v-151c0 -41.333 9.66699 -71.666 29 -90.999
s49.666 -29 90.999 -29zM163.998 694l-50 74l179 154h112l181 -154l-49 -73l-188 110z" />
    <glyph glyph-name="otilde" unicode="&#xf5;" 
d="M350 -10c-85.333 0 -151.668 19.833 -199.001 59.5s-71 95.5 -71 167.5v162c0 73.333 23.833 130.166 71.5 170.499s114.167 60.5 199.5 60.5s151.5 -20.5 198.5 -61.5s70.5 -98.167 70.5 -171.5v-162c0 -71.333 -23.667 -126.666 -71 -165.999
s-113.666 -59 -198.999 -59zM349.998 105c41.333 0 71.666 9.5 90.999 28.5s29 48.5 29 88.5v153c0 41.333 -9.66699 71.666 -29 90.999s-49.666 29 -90.999 29s-71.666 -9.66699 -90.999 -29s-29 -49.333 -29 -90v-151c0 -41.333 9.66699 -71.666 29 -90.999
s49.666 -29 90.999 -29zM437.998 710c-28 0 -50.166 5.66699 -66.499 17s-30.5 23.333 -42.5 36l-31.5 35.5c-9.66699 11 -20.834 16.5 -33.501 16.5c-11.333 0 -21.5 -5.5 -30.5 -16.5s-13.167 -33.833 -12.5 -68.5v-10h-102v15c0 52.667 12.5 96.667 37.5 132
s60.5 53 106.5 53c28.667 0 51.5 -5.5 68.5 -16.5s31.167 -22.833 42.5 -35.5l31 -36c9.33301 -11.333 19.666 -17 30.999 -17c12 0 22.5 5.5 31.5 16.5s13.167 33.833 12.5 68.5v10h102v-15c0 -52.667 -12.667 -96.667 -38 -132s-60.666 -53 -105.999 -53z" />
    <glyph glyph-name="odieresis" unicode="&#xf6;" 
d="M350 -10c-85.333 0 -151.668 19.833 -199.001 59.5s-71 95.5 -71 167.5v162c0 73.333 23.833 130.166 71.5 170.499s114.167 60.5 199.5 60.5s151.5 -20.5 198.5 -61.5s70.5 -98.167 70.5 -171.5v-162c0 -71.333 -23.667 -126.666 -71 -165.999
s-113.666 -59 -198.999 -59zM349.998 105c41.333 0 71.666 9.5 90.999 28.5s29 48.5 29 88.5v153c0 41.333 -9.66699 71.666 -29 90.999s-49.666 29 -90.999 29s-71.666 -9.66699 -90.999 -29s-29 -49.333 -29 -90v-151c0 -41.333 9.66699 -71.666 29 -90.999
s49.666 -29 90.999 -29zM226.998 700c-24 0 -43.5 5 -58.5 15s-22.5 27.333 -22.5 52v11c0 25.333 7.5 43.166 22.5 53.499s34.5 15.5 58.5 15.5c24.667 0 44.5 -5.16699 59.5 -15.5s22.5 -28.166 22.5 -53.499v-11c0 -24.667 -7.66699 -42 -23 -52s-35 -15 -59 -15z
M472.998 700c-24.667 0 -44.502 5 -59.502 15s-22.5 27.333 -22.5 52v11c0 25.333 7.5 43.166 22.5 53.499s34.833 15.5 59.5 15.5s44.334 -5.16699 59.001 -15.5s22 -28.166 22 -53.499v-11c0 -24.667 -7.66699 -42 -23 -52s-34.666 -15 -57.999 -15z" />
    <glyph glyph-name="divide" unicode="&#xf7;" 
d="M350 519c-28 0 -50.833 5.66699 -68.5 17s-26.5 29 -26.5 53v19c0 24.667 8.83301 43 26.5 55s40.5 18 68.5 18c28.667 0 51.5 -6 68.5 -18s25.5 -30.333 25.5 -55v-19c0 -24 -8.66699 -41.667 -26 -53s-40 -17 -68 -17zM65 290v120h570v-120h-570zM350 19
c-28 0 -50.833 5.66699 -68.5 17s-26.5 29 -26.5 53v19c0 24.667 8.83301 43 26.5 55s40.5 18 68.5 18c28.667 0 51.5 -6 68.5 -18s25.5 -30.333 25.5 -55v-19c0 -24 -8.66699 -41.667 -26 -53s-40 -17 -68 -17z" />
    <glyph glyph-name="oslash" unicode="&#xf8;" 
d="M215 225c0 -16.667 1.50098 -31.668 4.50098 -45.001s7.5 -24.666 13.5 -33.999l174 348c-8 2 -16.833 3.5 -26.5 4.5s-19.834 1.5 -30.501 1.5c-48 0 -82.5 -10.333 -103.5 -31s-31.5 -51.667 -31.5 -93v-151zM350.001 99.999c48 0 82.499 9.83301 103.499 29.5
s31.5 51.5 31.5 95.5v152c0 16 -1.5 30.5 -4.5 43.5s-7.5 24.167 -13.5 33.5l-174 -348c8 -2 16.833 -3.5 26.5 -4.5s19.834 -1.5 30.501 -1.5zM350 -10.001c-16 0 -32.167 0.834961 -48.5 2.50195s-31.833 4.5 -46.5 8.5l-50 -101h-110l69 138
c-28 18.667 -49.833 43.5 -65.5 74.5s-23.5 65.833 -23.5 104.5v162c0 75.333 25 132.666 75 171.999s117 59 201 59c16 0 32 -0.833008 48 -2.5s31.333 -4.16699 46 -7.5l50 100h110l-69 -138c28 -18.667 49.833 -43.834 65.5 -75.501s23.5 -67.5 23.5 -107.5v-162
c0 -73.333 -24.833 -129.5 -74.5 -168.5s-116.5 -58.5 -200.5 -58.5z" />
    <glyph glyph-name="ugrave" unicode="&#xf9;" 
d="M261 -10c-52 0 -95.167 17.167 -129.5 51.5s-51.5 81.5 -51.5 141.5v417h150v-379c0 -36 7.5 -63 22.5 -81s37.167 -27 66.5 -27c26 0 51.5 8.16699 76.5 24.5s49.833 39.833 74.5 70.5v392h150v-600h-150v105h-30c-16 -38 -41 -66.667 -75 -86s-68.667 -29 -104 -29z
M331 700l-210 200h200l121 -200h-111z" />
    <glyph glyph-name="uacute" unicode="&#xfa;" 
d="M261 -10c-52 0 -95.167 17.167 -129.5 51.5s-51.5 81.5 -51.5 141.5v417h150v-379c0 -36 7.5 -63 22.5 -81s37.167 -27 66.5 -27c26 0 51.5 8.16699 76.5 24.5s49.833 39.833 74.5 70.5v392h150v-600h-150v105h-30c-16 -38 -41 -66.667 -75 -86s-68.667 -29 -104 -29z
M271 700l121 200h200l-210 -200h-111z" />
    <glyph glyph-name="ucircumflex" unicode="&#xfb;" 
d="M261 -10c-52 0 -95.167 17.167 -129.5 51.5s-51.5 81.5 -51.5 141.5v417h150v-379c0 -36 7.5 -63 22.5 -81s37.167 -27 66.5 -27c26 0 51.5 8.16699 76.5 24.5s49.833 39.833 74.5 70.5v392h150v-600h-150v105h-30c-16 -38 -41 -66.667 -75 -86s-68.667 -29 -104 -29z
M169 694l-50 74l179 154h112l181 -154l-49 -73l-188 110z" />
    <glyph glyph-name="udieresis" unicode="&#xfc;" 
d="M261 -10c-52 0 -95.167 17.167 -129.5 51.5s-51.5 81.5 -51.5 141.5v417h150v-379c0 -36 7.5 -63 22.5 -81s37.167 -27 66.5 -27c26 0 51.5 8.16699 76.5 24.5s49.833 39.833 74.5 70.5v392h150v-600h-150v105h-30c-16 -38 -41 -66.667 -75 -86s-68.667 -29 -104 -29z
M232 700c-24 0 -43.5 5 -58.5 15s-22.5 27.333 -22.5 52v11c0 25.333 7.5 43.166 22.5 53.499s34.5 15.5 58.5 15.5c24.667 0 44.5 -5.16699 59.5 -15.5s22.5 -28.166 22.5 -53.499v-11c0 -24.667 -7.66699 -42 -23 -52s-35 -15 -59 -15zM478 700
c-24.667 0 -44.502 5 -59.502 15s-22.5 27.333 -22.5 52v11c0 25.333 7.5 43.166 22.5 53.499s34.833 15.5 59.5 15.5s44.334 -5.16699 59.001 -15.5s22 -28.166 22 -53.499v-11c0 -24.667 -7.66699 -42 -23 -52s-34.666 -15 -57.999 -15z" />
    <glyph glyph-name="yacute" unicode="&#xfd;" 
d="M184 -209c-19.333 0 -39.501 0.999023 -60.501 2.99902s-42.833 4.66699 -65.5 8l13 115c23.333 -4.66699 44.333 -8.16699 63 -10.5s35.334 -3.5 50.001 -3.5c34 0 61.5 8 82.5 24s37.833 44.667 50.5 86l2 7h-82l-188 580h156l145 -480l150 480h150l-202 -602
c-24.667 -75.333 -57.667 -128.666 -99 -159.999s-96.333 -47 -165 -47zM225.999 699.999l121 200h200l-210 -200h-111z" />
    <glyph glyph-name="thorn" unicode="&#xfe;" 
d="M348 106c41.333 0 72.001 9.16797 92.001 27.501s30 47.5 30 87.5v156c0 38 -8 66 -24 84s-39.667 27 -71 27c-26 0 -50.5 -6.33301 -73.5 -19s-46.833 -32.334 -71.5 -59.001v-272c19.333 -10.667 38.166 -18.667 56.499 -24s38.833 -8 61.5 -8zM367.001 -7.99902
c-24 0 -47.833 2.33301 -71.5 7s-45.5 11 -65.5 19v-218h-150v1000h150v-305h30c16 36 39.667 64.167 71 84.5s67 30.5 107 30.5c55.333 0 99.5 -19.333 132.5 -58s49.5 -90.667 49.5 -156v-177c0 -69.333 -22.833 -124.5 -68.5 -165.5s-107.167 -61.5 -184.5 -61.5z" />
    <glyph glyph-name="ydieresis" unicode="&#xff;" 
d="M184 -209c-19.333 0 -39.501 0.999023 -60.501 2.99902s-42.833 4.66699 -65.5 8l13 115c23.333 -4.66699 44.333 -8.16699 63 -10.5s35.334 -3.5 50.001 -3.5c34 0 61.5 8 82.5 24s37.833 44.667 50.5 86l2 7h-82l-188 580h156l145 -480l150 480h150l-202 -602
c-24.667 -75.333 -57.667 -128.666 -99 -159.999s-96.333 -47 -165 -47zM226.999 699.999c-24 0 -43.5 5 -58.5 15s-22.5 27.333 -22.5 52v11c0 25.333 7.5 43.166 22.5 53.499s34.5 15.5 58.5 15.5c24.667 0 44.5 -5.16699 59.5 -15.5s22.5 -28.166 22.5 -53.499v-11
c0 -24.667 -7.66699 -42 -23 -52s-35 -15 -59 -15zM472.999 699.999c-24.667 0 -44.502 5 -59.502 15s-22.5 27.333 -22.5 52v11c0 25.333 7.5 43.166 22.5 53.499s34.833 15.5 59.5 15.5s44.334 -5.16699 59.001 -15.5s22 -28.166 22 -53.499v-11
c0 -24.667 -7.66699 -42 -23 -52s-34.666 -15 -57.999 -15z" />
    <glyph glyph-name="Amacron" unicode="&#x100;" 
d="M443 325l-91 346l-96 -346h187zM529 0l-54 205h-252l-57 -205h-141l238 800h175l238 -800h-147zM138 940v120h426v-120h-426z" />
    <glyph glyph-name="amacron" unicode="&#x101;" 
d="M281 93c28 0 54 4.50098 78 13.501s46 23.167 66 42.5v97h-150c-24.667 0 -44.167 -5.33301 -58.5 -16s-21.5 -31.334 -21.5 -62.001c0 -24 6.66699 -42.5 20 -55.5s35.333 -19.5 66 -19.5zM248 -9.99902c-54.667 0 -100.498 14.666 -137.498 43.999
s-55.5 72.333 -55.5 129c0 54.667 18.667 96.834 56 126.501s85 44.5 143 44.5h171v77c0 30 -9 52 -27 66s-45 21 -81 21c-36.667 0 -64 -6.16699 -82 -18.5s-31.667 -37.5 -41 -75.5l-125 25c13.333 64 39.666 110.167 78.999 138.5s96.666 42.5 171.999 42.5
c78 0 139.167 -15.667 183.5 -47s66.5 -80 66.5 -146v-242c0 -30.667 9 -49.667 27 -57s44 -8.66602 78 -3.99902v-113c-48.667 -10 -90.5 -8.5 -125.5 4.5s-56.833 42.833 -65.5 89.5h-25c-20 -28.667 -48.667 -53.334 -86 -74.001s-79 -31 -125 -31zM117.002 740v120h426
v-120h-426z" />
    <glyph glyph-name="Abreve" unicode="&#x102;" 
d="M443 325l-91 346l-96 -346h187zM529 0l-54 205h-252l-57 -205h-141l238 800h175l238 -800h-147zM351 893c-77.333 0 -138.168 17.667 -182.501 53s-66.833 92.666 -67.5 171.999h130c0.666992 -46 10.5 -78.5 29.5 -97.5s49.167 -28.5 90.5 -28.5s71.5 9.5 90.5 28.5
s28.833 51.5 29.5 97.5h130c-0.666992 -79.333 -23.167 -136.666 -67.5 -171.999s-105.166 -53 -182.499 -53z" />
    <glyph glyph-name="abreve" unicode="&#x103;" 
d="M281 93c28 0 54 4.50098 78 13.501s46 23.167 66 42.5v97h-150c-24.667 0 -44.167 -5.33301 -58.5 -16s-21.5 -31.334 -21.5 -62.001c0 -24 6.66699 -42.5 20 -55.5s35.333 -19.5 66 -19.5zM248 -9.99902c-54.667 0 -100.498 14.666 -137.498 43.999
s-55.5 72.333 -55.5 129c0 54.667 18.667 96.834 56 126.501s85 44.5 143 44.5h171v77c0 30 -9 52 -27 66s-45 21 -81 21c-36.667 0 -64 -6.16699 -82 -18.5s-31.667 -37.5 -41 -75.5l-125 25c13.333 64 39.666 110.167 78.999 138.5s96.666 42.5 171.999 42.5
c78 0 139.167 -15.667 183.5 -47s66.5 -80 66.5 -146v-242c0 -30.667 9 -49.667 27 -57s44 -8.66602 78 -3.99902v-113c-48.667 -10 -90.5 -8.5 -125.5 4.5s-56.833 42.833 -65.5 89.5h-25c-20 -28.667 -48.667 -53.334 -86 -74.001s-79 -31 -125 -31zM330.002 693
c-77.333 0 -138.168 17.667 -182.501 53s-66.833 92.666 -67.5 171.999h130c0.666992 -46 10.5 -78.5 29.5 -97.5s49.167 -28.5 90.5 -28.5s71.5 9.5 90.5 28.5s28.833 51.5 29.5 97.5h130c-0.666992 -79.333 -23.167 -136.666 -67.5 -171.999s-105.166 -53 -182.499 -53z
" />
    <glyph glyph-name="Aogonek" unicode="&#x104;" 
d="M443 325l-91 346l-96 -346h187zM529 0l-54 205h-252l-57 -205h-141l238 800h175l238 -800h-147zM625 -220c-50 0 -90.165 10.668 -120.498 32.001s-45.5 52 -45.5 92c0 38 14.833 71.167 44.5 99.5s62.167 47.833 97.5 58.5l27 -39
c-22.667 -14 -37.334 -28.333 -44.001 -43s-10 -28.334 -10 -41.001c0 -18 6 -31.5 18 -40.5s30.333 -13.5 55 -13.5c12 0 26.667 1 44 3s33.333 4.33301 48 7v-103c-18 -4 -37.333 -7 -58 -9s-39.334 -3 -56.001 -3z" />
    <glyph glyph-name="aogonek" unicode="&#x105;" 
d="M281 93c28 0 54 4.50098 78 13.501s46 23.167 66 42.5v97h-150c-24.667 0 -44.167 -5.33301 -58.5 -16s-21.5 -31.334 -21.5 -62.001c0 -24 6.66699 -42.5 20 -55.5s35.333 -19.5 66 -19.5zM248 -9.99902c-54.667 0 -100.498 14.666 -137.498 43.999
s-55.5 72.333 -55.5 129c0 54.667 18.667 96.834 56 126.501s85 44.5 143 44.5h171v77c0 30 -9 52 -27 66s-45 21 -81 21c-36.667 0 -64 -6.16699 -82 -18.5s-31.667 -37.5 -41 -75.5l-125 25c13.333 64 39.666 110.167 78.999 138.5s96.666 42.5 171.999 42.5
c78 0 139.167 -15.667 183.5 -47s66.5 -80 66.5 -146v-242c0 -30.667 9 -49.667 27 -57s44 -8.66602 78 -3.99902v-113c-48.667 -10 -90.5 -8.5 -125.5 4.5s-56.833 42.833 -65.5 89.5h-25c-20 -28.667 -48.667 -53.334 -86 -74.001s-79 -31 -125 -31zM601.002 -220
c-50 0 -90.165 10.668 -120.498 32.001s-45.5 52 -45.5 92c0 38 14.833 71.167 44.5 99.5s62.167 47.833 97.5 58.5l27 -39c-22.667 -14 -37.334 -28.333 -44.001 -43s-10 -28.334 -10 -41.001c0 -18 6 -31.5 18 -40.5s30.333 -13.5 55 -13.5c12 0 26.667 1 44 3
s33.333 4.33301 48 7v-103c-18 -4 -37.333 -7 -58 -9s-39.334 -3 -56.001 -3z" />
    <glyph glyph-name="Cacute" unicode="&#x106;" 
d="M360 -10c-98.667 0 -172.502 22.6689 -221.502 68.002s-73.5 113.333 -73.5 204v272c0 92 24.667 161 74 207s123.333 69 222 69c99.333 0 172 -22 218 -66s71.333 -115.667 76 -215l-150 -10c-4.66699 67.333 -17.167 112.666 -37.5 135.999s-56.166 35 -107.499 35
c-52.667 0 -90 -12.667 -112 -38s-33 -68 -33 -128v-252c0 -58.667 11 -100.334 33 -125.001s59.333 -37 112 -37c51.333 0 87 11.5 107 34.5s32.667 67.167 38 132.5l150 -10c-4.66699 -97.333 -30.167 -167.833 -76.5 -211.5s-119.166 -65.5 -218.499 -65.5z
M268.998 900.002l121 200h200l-210 -200h-111z" />
    <glyph glyph-name="cacute" unicode="&#x107;" 
d="M362 -10c-92 0 -161.998 19.832 -209.998 59.499s-72 97.167 -72 172.5v156c0 75.333 24 132.833 72 172.5s117.667 59.5 209 59.5c84.667 0 148.167 -18.667 190.5 -56s67.166 -90.666 74.499 -159.999l-145 -11c-2.66699 40 -13.834 68.667 -33.501 86
s-49.834 26 -90.501 26c-44 0 -76.167 -9.66699 -96.5 -29s-30.5 -51 -30.5 -95v-144c0 -42.667 10.333 -73.667 31 -93s53.334 -29 98.001 -29c40 0 69.667 7.16699 89 21.5s30.333 37.833 33 70.5l145 -11c-4.66699 -63.333 -27.167 -111.833 -67.5 -145.5
s-105.833 -50.5 -196.5 -50.5zM252.002 699.999l121 200h200l-210 -200h-111z" />
    <glyph glyph-name="Ccircumflex" unicode="&#x108;" 
d="M360 -10c-98.667 0 -172.502 22.6689 -221.502 68.002s-73.5 113.333 -73.5 204v272c0 92 24.667 161 74 207s123.333 69 222 69c99.333 0 172 -22 218 -66s71.333 -115.667 76 -215l-150 -10c-4.66699 67.333 -17.167 112.666 -37.5 135.999s-56.166 35 -107.499 35
c-52.667 0 -90 -12.667 -112 -38s-33 -68 -33 -128v-252c0 -58.667 11 -100.334 33 -125.001s59.333 -37 112 -37c51.333 0 87 11.5 107 34.5s32.667 67.167 38 132.5l150 -10c-4.66699 -97.333 -30.167 -167.833 -76.5 -211.5s-119.166 -65.5 -218.499 -65.5z
M176.998 894.002l-50 74l179 154h112l181 -154l-49 -73l-188 110z" />
    <glyph glyph-name="ccircumflex" unicode="&#x109;" 
d="M362 -10c-92 0 -161.998 19.832 -209.998 59.499s-72 97.167 -72 172.5v156c0 75.333 24 132.833 72 172.5s117.667 59.5 209 59.5c84.667 0 148.167 -18.667 190.5 -56s67.166 -90.666 74.499 -159.999l-145 -11c-2.66699 40 -13.834 68.667 -33.501 86
s-49.834 26 -90.501 26c-44 0 -76.167 -9.66699 -96.5 -29s-30.5 -51 -30.5 -95v-144c0 -42.667 10.333 -73.667 31 -93s53.334 -29 98.001 -29c40 0 69.667 7.16699 89 21.5s30.333 37.833 33 70.5l145 -11c-4.66699 -63.333 -27.167 -111.833 -67.5 -145.5
s-105.833 -50.5 -196.5 -50.5zM175.002 693.999l-50 74l179 154h112l181 -154l-49 -73l-188 110z" />
    <glyph glyph-name="Cdotaccent" unicode="&#x10a;" 
d="M360 -10c-98.667 0 -172.502 22.6689 -221.502 68.002s-73.5 113.333 -73.5 204v272c0 92 24.667 161 74 207s123.333 69 222 69c99.333 0 172 -22 218 -66s71.333 -115.667 76 -215l-150 -10c-4.66699 67.333 -17.167 112.666 -37.5 135.999s-56.166 35 -107.499 35
c-52.667 0 -90 -12.667 -112 -38s-33 -68 -33 -128v-252c0 -58.667 11 -100.334 33 -125.001s59.333 -37 112 -37c51.333 0 87 11.5 107 34.5s32.667 67.167 38 132.5l150 -10c-4.66699 -97.333 -30.167 -167.833 -76.5 -211.5s-119.166 -65.5 -218.499 -65.5z
M362.998 900.002c-32 0 -57.833 5 -77.5 15s-29.5 27.333 -29.5 52v11c0 25.333 9.83301 43.166 29.5 53.499s45.5 15.5 77.5 15.5s57.833 -5.16699 77.5 -15.5s29.5 -28.166 29.5 -53.499v-11c0 -24.667 -10 -42 -30 -52s-45.667 -15 -77 -15z" />
    <glyph glyph-name="cdotaccent" unicode="&#x10b;" 
d="M362 -10c-92 0 -161.998 19.832 -209.998 59.499s-72 97.167 -72 172.5v156c0 75.333 24 132.833 72 172.5s117.667 59.5 209 59.5c84.667 0 148.167 -18.667 190.5 -56s67.166 -90.666 74.499 -159.999l-145 -11c-2.66699 40 -13.834 68.667 -33.501 86
s-49.834 26 -90.501 26c-44 0 -76.167 -9.66699 -96.5 -29s-30.5 -51 -30.5 -95v-144c0 -42.667 10.333 -73.667 31 -93s53.334 -29 98.001 -29c40 0 69.667 7.16699 89 21.5s30.333 37.833 33 70.5l145 -11c-4.66699 -63.333 -27.167 -111.833 -67.5 -145.5
s-105.833 -50.5 -196.5 -50.5zM356.002 699.999c-32 0 -57.833 5 -77.5 15s-29.5 27.333 -29.5 52v11c0 25.333 9.83301 43.166 29.5 53.499s45.5 15.5 77.5 15.5s57.833 -5.16699 77.5 -15.5s29.5 -28.166 29.5 -53.499v-11c0 -24.667 -10 -42 -30 -52s-45.667 -15 -77 -15
z" />
    <glyph glyph-name="Ccaron" unicode="&#x10c;" 
d="M360 -10c-98.667 0 -172.502 22.6689 -221.502 68.002s-73.5 113.333 -73.5 204v272c0 92 24.667 161 74 207s123.333 69 222 69c99.333 0 172 -22 218 -66s71.333 -115.667 76 -215l-150 -10c-4.66699 67.333 -17.167 112.666 -37.5 135.999s-56.166 35 -107.499 35
c-52.667 0 -90 -12.667 -112 -38s-33 -68 -33 -128v-252c0 -58.667 11 -100.334 33 -125.001s59.333 -37 112 -37c51.333 0 87 11.5 107 34.5s32.667 67.167 38 132.5l150 -10c-4.66699 -97.333 -30.167 -167.833 -76.5 -211.5s-119.166 -65.5 -218.499 -65.5z
M307.998 904.002l-181 154l49 74l188 -111l185 111l50 -74l-179 -154h-112z" />
    <glyph glyph-name="ccaron" unicode="&#x10d;" 
d="M362 -10c-92 0 -161.998 19.832 -209.998 59.499s-72 97.167 -72 172.5v156c0 75.333 24 132.833 72 172.5s117.667 59.5 209 59.5c84.667 0 148.167 -18.667 190.5 -56s67.166 -90.666 74.499 -159.999l-145 -11c-2.66699 40 -13.834 68.667 -33.501 86
s-49.834 26 -90.501 26c-44 0 -76.167 -9.66699 -96.5 -29s-30.5 -51 -30.5 -95v-144c0 -42.667 10.333 -73.667 31 -93s53.334 -29 98.001 -29c40 0 69.667 7.16699 89 21.5s30.333 37.833 33 70.5l145 -11c-4.66699 -63.333 -27.167 -111.833 -67.5 -145.5
s-105.833 -50.5 -196.5 -50.5zM301.002 703.999l-181 154l49 74l188 -111l185 111l50 -74l-179 -154h-112z" />
    <glyph glyph-name="Dcaron" unicode="&#x10e;" 
d="M75 0v800h261c93.333 0 166.5 -26.5 219.5 -79.5s79.5 -123.5 79.5 -211.5v-222c0 -87.333 -26.5 -157 -79.5 -209s-126.5 -78 -220.5 -78h-260zM225 120l100 -0.000976562c56.667 0 97.5 14.833 122.5 44.5s37.5 73.834 37.5 132.501v202
c0 60 -12.5 105.167 -37.5 135.5s-65.833 45.5 -122.5 45.5h-100v-560zM295 903.999l-181 154l49 74l188 -111l185 111l50 -74l-179 -154h-112z" />
    <glyph glyph-name="dcaron" unicode="&#x10f;" 
d="M325 113c26 0 50.666 6.33301 73.999 19s47 32 71 58v273c-16.667 10.667 -35 18.667 -55 24s-40.667 8 -62 8c-41.333 0 -72.166 -9.5 -92.499 -28.5s-30.5 -47.833 -30.5 -86.5v-156c0 -38 8.16699 -66 24.5 -84s39.833 -27 70.5 -27zM439.999 105
c-16.667 -36 -40.5 -64.167 -71.5 -84.5s-66.5 -30.5 -106.5 -30.5c-58 0 -102.833 20 -134.5 60s-47.5 91.333 -47.5 154v177c0 71.333 22.333 127 67 167s106.667 60 186 60c24 0 47.667 -2.16699 71 -6.5s45.333 -10.5 66 -18.5v217h150v-800h-150v105h-30zM695.999 705
l66 295h197l-171 -295h-92z" />
    <glyph glyph-name="Dcroat" unicode="&#x110;" 
d="M75 0v388h-75v105h75v307h261c93.333 0 166.5 -26.5 219.5 -79.5s79.5 -123.5 79.5 -211.5v-222c0 -87.333 -26.5 -157 -79.5 -209s-126.5 -78 -220.5 -78h-260zM225 120l100 -0.000976562c56.667 0 97.5 14.833 122.5 44.5s37.5 73.834 37.5 132.501v202
c0 60 -12.5 105.167 -37.5 135.5s-65.833 45.5 -122.5 45.5h-100v-187h125v-105h-125v-268z" />
    <glyph glyph-name="dcroat" unicode="&#x111;" 
d="M325 113c26 0 50.6689 6.33203 74.002 18.999s47 32 71 58v212c-18.667 10.667 -37.834 18.834 -57.501 24.501s-41.167 8.5 -64.5 8.5c-38.667 0 -67.834 -9.16699 -87.501 -27.5s-29.5 -47.5 -29.5 -87.5v-91c0 -40 8 -69.333 24 -88s39.333 -28 70 -28z
M440.002 104.999c-14.667 -32.667 -37.168 -60 -67.501 -82s-67.166 -33 -110.499 -33c-57.333 0 -102 20.167 -134 60.5s-48 91.5 -48 153.5v117c0 69.333 22.833 124.5 68.5 165.5s107.167 61.5 184.5 61.5c24 0 47.667 -2.16699 71 -6.5s45.333 -10.833 66 -19.5v93h-180
v90h180v95h150v-95h100v-90h-100v-615h-150v105h-30z" />
    <glyph glyph-name="Emacron" unicode="&#x112;" 
d="M75 0v800h560v-120h-410v-190h360v-120h-360v-250h410v-120h-560zM152 940v120h426v-120h-426z" />
    <glyph glyph-name="emacron" unicode="&#x113;" 
d="M628 137c-22 -54 -52.834 -92.001 -92.501 -114.001s-100.5 -33 -182.5 -33c-81.333 0 -147.166 19.167 -197.499 57.5s-75.5 95.5 -75.5 171.5v160c0 74.667 24.5 131.834 73.5 171.501s114.833 59.5 197.5 59.5c83.333 0 149 -20 197 -60s72 -98.333 72 -175v-105h-390
v-58c0 -39.333 10 -68.666 30 -87.999s51.667 -29 95 -29c38 0 67.833 5.66699 89.5 17s39.5 31.666 53.5 60.999zM229.999 388.999l0.00195312 -31h240v22c0 46 -9.33301 78.833 -28 98.5s-49.334 29.5 -92.001 29.5s-73.334 -9.33301 -92.001 -28s-28 -49 -28 -91z
M140.001 739.999v120h426v-120h-426z" />
    <glyph glyph-name="Ebreve" unicode="&#x114;" 
d="M75 0v800h560v-120h-410v-190h360v-120h-360v-250h410v-120h-560zM365 893c-77.333 0 -138.168 17.667 -182.501 53s-66.833 92.666 -67.5 171.999h130c0.666992 -46 10.5 -78.5 29.5 -97.5s49.167 -28.5 90.5 -28.5s71.5 9.5 90.5 28.5s28.833 51.5 29.5 97.5h130
c-0.666992 -79.333 -23.167 -136.666 -67.5 -171.999s-105.166 -53 -182.499 -53z" />
    <glyph glyph-name="ebreve" unicode="&#x115;" 
d="M628 137c-22 -54 -52.834 -92.001 -92.501 -114.001s-100.5 -33 -182.5 -33c-81.333 0 -147.166 19.167 -197.499 57.5s-75.5 95.5 -75.5 171.5v160c0 74.667 24.5 131.834 73.5 171.501s114.833 59.5 197.5 59.5c83.333 0 149 -20 197 -60s72 -98.333 72 -175v-105h-390
v-58c0 -39.333 10 -68.666 30 -87.999s51.667 -29 95 -29c38 0 67.833 5.66699 89.5 17s39.5 31.666 53.5 60.999zM229.999 388.999l0.00195312 -31h240v22c0 46 -9.33301 78.833 -28 98.5s-49.334 29.5 -92.001 29.5s-73.334 -9.33301 -92.001 -28s-28 -49 -28 -91z
M348.001 692.999c-77.333 0 -138.168 17.667 -182.501 53s-66.833 92.666 -67.5 171.999h130c0.666992 -46 10.5 -78.5 29.5 -97.5s49.167 -28.5 90.5 -28.5s71.5 9.5 90.5 28.5s28.833 51.5 29.5 97.5h130c-0.666992 -79.333 -23.167 -136.666 -67.5 -171.999
s-105.166 -53 -182.499 -53z" />
    <glyph glyph-name="Edotaccent" unicode="&#x116;" 
d="M75 0v800h560v-120h-410v-190h360v-120h-360v-250h410v-120h-560zM365 900c-32 0 -57.833 5 -77.5 15s-29.5 27.333 -29.5 52v11c0 25.333 9.83301 43.166 29.5 53.499s45.5 15.5 77.5 15.5s57.833 -5.16699 77.5 -15.5s29.5 -28.166 29.5 -53.499v-11
c0 -24.667 -10 -42 -30 -52s-45.667 -15 -77 -15z" />
    <glyph glyph-name="edotaccent" unicode="&#x117;" 
d="M628 137c-22 -54 -52.834 -92.001 -92.501 -114.001s-100.5 -33 -182.5 -33c-81.333 0 -147.166 19.167 -197.499 57.5s-75.5 95.5 -75.5 171.5v160c0 74.667 24.5 131.834 73.5 171.501s114.833 59.5 197.5 59.5c83.333 0 149 -20 197 -60s72 -98.333 72 -175v-105h-390
v-58c0 -39.333 10 -68.666 30 -87.999s51.667 -29 95 -29c38 0 67.833 5.66699 89.5 17s39.5 31.666 53.5 60.999zM229.999 388.999l0.00195312 -31h240v22c0 46 -9.33301 78.833 -28 98.5s-49.334 29.5 -92.001 29.5s-73.334 -9.33301 -92.001 -28s-28 -49 -28 -91z
M353.001 699.999c-32 0 -57.833 5 -77.5 15s-29.5 27.333 -29.5 52v11c0 25.333 9.83301 43.166 29.5 53.499s45.5 15.5 77.5 15.5s57.833 -5.16699 77.5 -15.5s29.5 -28.166 29.5 -53.499v-11c0 -24.667 -10 -42 -30 -52s-45.667 -15 -77 -15z" />
    <glyph glyph-name="Eogonek" unicode="&#x118;" 
d="M520 -220c-50 0 -90.165 10.668 -120.498 32.001s-45.5 52 -45.5 92c0 38 14.833 71.167 44.5 99.5s62.167 47.833 97.5 58.5l27 -39c-22.667 -14 -37.334 -28.333 -44.001 -43s-10 -28.334 -10 -41.001c0 -18 6 -31.5 18 -40.5s30.333 -13.5 55 -13.5
c12 0 26.667 1 44 3s33.333 4.33301 48 7v-103c-18 -4 -37.333 -7 -58 -9s-39.334 -3 -56.001 -3zM75.002 0.000976562v800h560v-120h-410v-190h360v-120h-360v-250h410v-120h-560z" />
    <glyph glyph-name="eogonek" unicode="&#x119;" 
d="M495 -220c-50 0 -90.165 10.668 -120.498 32.001s-45.5 52 -45.5 92c0 38 14.833 71.167 44.5 99.5s62.167 47.833 97.5 58.5l27 -39c-22.667 -14 -37.334 -28.333 -44.001 -43s-10 -28.334 -10 -41.001c0 -18 6 -31.5 18 -40.5s30.333 -13.5 55 -13.5
c12 0 26.667 1 44 3s33.333 4.33301 48 7v-103c-18 -4 -37.333 -7 -58 -9s-39.334 -3 -56.001 -3zM628.002 137.001c-22 -54 -52.834 -92.001 -92.501 -114.001s-100.5 -33 -182.5 -33c-81.333 0 -147.166 19.167 -197.499 57.5s-75.5 95.5 -75.5 171.5v160
c0 74.667 24.5 131.834 73.5 171.501s114.833 59.5 197.5 59.5c83.333 0 149 -20 197 -60s72 -98.333 72 -175v-105h-390v-58c0 -39.333 10 -68.666 30 -87.999s51.667 -29 95 -29c38 0 67.833 5.66699 89.5 17s39.5 31.666 53.5 60.999zM230.001 389l0.00195312 -31h240v22
c0 46 -9.33301 78.833 -28 98.5s-49.334 29.5 -92.001 29.5s-73.334 -9.33301 -92.001 -28s-28 -49 -28 -91z" />
    <glyph glyph-name="Ecaron" unicode="&#x11a;" 
d="M75 0v800h560v-120h-410v-190h360v-120h-360v-250h410v-120h-560zM315 904l-181 154l49 74l188 -111l185 111l50 -74l-179 -154h-112z" />
    <glyph glyph-name="ecaron" unicode="&#x11b;" 
d="M628 137c-22 -54 -52.834 -92.001 -92.501 -114.001s-100.5 -33 -182.5 -33c-81.333 0 -147.166 19.167 -197.499 57.5s-75.5 95.5 -75.5 171.5v160c0 74.667 24.5 131.834 73.5 171.501s114.833 59.5 197.5 59.5c83.333 0 149 -20 197 -60s72 -98.333 72 -175v-105h-390
v-58c0 -39.333 10 -68.666 30 -87.999s51.667 -29 95 -29c38 0 67.833 5.66699 89.5 17s39.5 31.666 53.5 60.999zM229.999 388.999l0.00195312 -31h240v22c0 46 -9.33301 78.833 -28 98.5s-49.334 29.5 -92.001 29.5s-73.334 -9.33301 -92.001 -28s-28 -49 -28 -91z
M298.001 703.999l-181 154l49 74l188 -111l185 111l50 -74l-179 -154h-112z" />
    <glyph glyph-name="Gcircumflex" unicode="&#x11c;" 
d="M361 -10c-95.333 0 -168.498 24.333 -219.498 73s-76.5 118.334 -76.5 209.001v252c0 92 25.167 162.667 75.5 212s122.166 74 215.499 74c89.333 0 157 -21.167 203 -63.5s71.333 -104.833 76 -187.5l-150 -10c-4.66699 52 -16.667 88.5 -36 109.5s-50 31.5 -92 31.5
c-52 0 -88.667 -13.167 -110 -39.5s-32 -71.833 -32 -136.5v-232c0 -63.333 11 -107.833 33 -133.5s59.333 -38.5 112 -38.5c50 0 85.167 13.667 105.5 41s30.166 74.666 29.499 141.999h-145v120h295v-136c0 -92 -24.5 -162.833 -73.5 -212.5s-119.167 -74.5 -210.5 -74.5z
M174.002 894l-50 74l179 154h112l181 -154l-49 -73l-188 110z" />
    <glyph glyph-name="gcircumflex" unicode="&#x11d;" 
d="M660 -37c0 -54.667 -20.332 -97.165 -60.999 -127.498s-93 -45.5 -157 -45.5h-180c-70 0 -124.5 12.833 -163.5 38.5s-58.5 60.5 -58.5 104.5c0 32.667 9.66699 59 29 79s44.666 31.667 75.999 35v20c-24 6 -44 16.667 -60 32s-24 39 -24 71
c0 33.333 11.167 61.5 33.5 84.5s53.833 36.5 94.5 40.5v19c-34 9.33301 -58.5 24.5 -73.5 45.5s-22.5 43.833 -22.5 68.5v14c0 48.667 21 87.167 63 115.5s97 42.5 165 42.5h327v-100l-160 21v-19c25.333 -6.66699 45.5 -19.834 60.5 -39.501s22.5 -40.5 22.5 -62.5v-15
c0 -48 -20.167 -85.667 -60.5 -113s-96.833 -41 -169.5 -41h-104c-20 0 -35.5 -4 -46.5 -12s-16.5 -21.667 -16.5 -41c0 -18.667 6.33301 -32.334 19 -41.001s31 -13 55 -13h202c62 0 112.5 -13 151.5 -39s58.5 -66.667 58.5 -122zM333.001 314.002
c34 0 59.167 6.66699 75.5 20s24.5 32.333 24.5 57v41c0 24 -8.33301 42.333 -25 55s-41.667 19 -75 19c-34 0 -59.167 -6.33301 -75.5 -19s-24.5 -31 -24.5 -55v-41c0 -24.667 8.16699 -43.667 24.5 -57s41.5 -20 75.5 -20zM262.001 -114.998l185 -0.00195312
c26 0 47.167 4.33301 63.5 13s24.5 25.334 24.5 50.001s-7.66699 41.334 -23 50.001s-35.333 13 -60 13h-268v-58c0 -22.667 6.5 -39.667 19.5 -51s32.5 -17 58.5 -17zM164.001 694l-50 74l179 154h112l181 -154l-49 -73l-188 110z" />
    <glyph glyph-name="Gbreve" unicode="&#x11e;" 
d="M361 -10c-95.333 0 -168.498 24.333 -219.498 73s-76.5 118.334 -76.5 209.001v252c0 92 25.167 162.667 75.5 212s122.166 74 215.499 74c89.333 0 157 -21.167 203 -63.5s71.333 -104.833 76 -187.5l-150 -10c-4.66699 52 -16.667 88.5 -36 109.5s-50 31.5 -92 31.5
c-52 0 -88.667 -13.167 -110 -39.5s-32 -71.833 -32 -136.5v-232c0 -63.333 11 -107.833 33 -133.5s59.333 -38.5 112 -38.5c50 0 85.167 13.667 105.5 41s30.166 74.666 29.499 141.999h-145v120h295v-136c0 -92 -24.5 -162.833 -73.5 -212.5s-119.167 -74.5 -210.5 -74.5z
M360.002 893c-77.333 0 -138.168 17.667 -182.501 53s-66.833 92.666 -67.5 171.999h130c0.666992 -46 10.5 -78.5 29.5 -97.5s49.167 -28.5 90.5 -28.5s71.5 9.5 90.5 28.5s28.833 51.5 29.5 97.5h130c-0.666992 -79.333 -23.167 -136.666 -67.5 -171.999
s-105.166 -53 -182.499 -53z" />
    <glyph glyph-name="gbreve" unicode="&#x11f;" 
d="M660 -37c0 -54.667 -20.332 -97.165 -60.999 -127.498s-93 -45.5 -157 -45.5h-180c-70 0 -124.5 12.833 -163.5 38.5s-58.5 60.5 -58.5 104.5c0 32.667 9.66699 59 29 79s44.666 31.667 75.999 35v20c-24 6 -44 16.667 -60 32s-24 39 -24 71
c0 33.333 11.167 61.5 33.5 84.5s53.833 36.5 94.5 40.5v19c-34 9.33301 -58.5 24.5 -73.5 45.5s-22.5 43.833 -22.5 68.5v14c0 48.667 21 87.167 63 115.5s97 42.5 165 42.5h327v-100l-160 21v-19c25.333 -6.66699 45.5 -19.834 60.5 -39.501s22.5 -40.5 22.5 -62.5v-15
c0 -48 -20.167 -85.667 -60.5 -113s-96.833 -41 -169.5 -41h-104c-20 0 -35.5 -4 -46.5 -12s-16.5 -21.667 -16.5 -41c0 -18.667 6.33301 -32.334 19 -41.001s31 -13 55 -13h202c62 0 112.5 -13 151.5 -39s58.5 -66.667 58.5 -122zM333.001 314.002
c34 0 59.167 6.66699 75.5 20s24.5 32.333 24.5 57v41c0 24 -8.33301 42.333 -25 55s-41.667 19 -75 19c-34 0 -59.167 -6.33301 -75.5 -19s-24.5 -31 -24.5 -55v-41c0 -24.667 8.16699 -43.667 24.5 -57s41.5 -20 75.5 -20zM262.001 -114.998l185 -0.00195312
c26 0 47.167 4.33301 63.5 13s24.5 25.334 24.5 50.001s-7.66699 41.334 -23 50.001s-35.333 13 -60 13h-268v-58c0 -22.667 6.5 -39.667 19.5 -51s32.5 -17 58.5 -17zM350.001 693c-77.333 0 -138.168 17.667 -182.501 53s-66.833 92.666 -67.5 171.999h130
c0.666992 -46 10.5 -78.5 29.5 -97.5s49.167 -28.5 90.5 -28.5s71.5 9.5 90.5 28.5s28.833 51.5 29.5 97.5h130c-0.666992 -79.333 -23.167 -136.666 -67.5 -171.999s-105.166 -53 -182.499 -53z" />
    <glyph glyph-name="Gdotaccent" unicode="&#x120;" 
d="M361 -10c-95.333 0 -168.498 24.333 -219.498 73s-76.5 118.334 -76.5 209.001v252c0 92 25.167 162.667 75.5 212s122.166 74 215.499 74c89.333 0 157 -21.167 203 -63.5s71.333 -104.833 76 -187.5l-150 -10c-4.66699 52 -16.667 88.5 -36 109.5s-50 31.5 -92 31.5
c-52 0 -88.667 -13.167 -110 -39.5s-32 -71.833 -32 -136.5v-232c0 -63.333 11 -107.833 33 -133.5s59.333 -38.5 112 -38.5c50 0 85.167 13.667 105.5 41s30.166 74.666 29.499 141.999h-145v120h295v-136c0 -92 -24.5 -162.833 -73.5 -212.5s-119.167 -74.5 -210.5 -74.5z
M360.002 900c-32 0 -57.833 5 -77.5 15s-29.5 27.333 -29.5 52v11c0 25.333 9.83301 43.166 29.5 53.499s45.5 15.5 77.5 15.5s57.833 -5.16699 77.5 -15.5s29.5 -28.166 29.5 -53.499v-11c0 -24.667 -10 -42 -30 -52s-45.667 -15 -77 -15z" />
    <glyph glyph-name="gdotaccent" unicode="&#x121;" 
d="M660 -37c0 -54.667 -20.332 -97.165 -60.999 -127.498s-93 -45.5 -157 -45.5h-180c-70 0 -124.5 12.833 -163.5 38.5s-58.5 60.5 -58.5 104.5c0 32.667 9.66699 59 29 79s44.666 31.667 75.999 35v20c-24 6 -44 16.667 -60 32s-24 39 -24 71
c0 33.333 11.167 61.5 33.5 84.5s53.833 36.5 94.5 40.5v19c-34 9.33301 -58.5 24.5 -73.5 45.5s-22.5 43.833 -22.5 68.5v14c0 48.667 21 87.167 63 115.5s97 42.5 165 42.5h327v-100l-160 21v-19c25.333 -6.66699 45.5 -19.834 60.5 -39.501s22.5 -40.5 22.5 -62.5v-15
c0 -48 -20.167 -85.667 -60.5 -113s-96.833 -41 -169.5 -41h-104c-20 0 -35.5 -4 -46.5 -12s-16.5 -21.667 -16.5 -41c0 -18.667 6.33301 -32.334 19 -41.001s31 -13 55 -13h202c62 0 112.5 -13 151.5 -39s58.5 -66.667 58.5 -122zM333.001 314.002
c34 0 59.167 6.66699 75.5 20s24.5 32.333 24.5 57v41c0 24 -8.33301 42.333 -25 55s-41.667 19 -75 19c-34 0 -59.167 -6.33301 -75.5 -19s-24.5 -31 -24.5 -55v-41c0 -24.667 8.16699 -43.667 24.5 -57s41.5 -20 75.5 -20zM262.001 -114.998l185 -0.00195312
c26 0 47.167 4.33301 63.5 13s24.5 25.334 24.5 50.001s-7.66699 41.334 -23 50.001s-35.333 13 -60 13h-268v-58c0 -22.667 6.5 -39.667 19.5 -51s32.5 -17 58.5 -17zM350.001 700c-32 0 -57.833 5 -77.5 15s-29.5 27.333 -29.5 52v11c0 25.333 9.83301 43.166 29.5 53.499
s45.5 15.5 77.5 15.5s57.833 -5.16699 77.5 -15.5s29.5 -28.166 29.5 -53.499v-11c0 -24.667 -10 -42 -30 -52s-45.667 -15 -77 -15z" />
    <glyph glyph-name="Gcommaaccent" unicode="&#x122;" 
d="M206 -300l81 200h200l-170 -200h-111zM361 -10c-95.333 0 -168.498 24.333 -219.498 73s-76.5 118.334 -76.5 209.001v252c0 92 25.167 162.667 75.5 212s122.166 74 215.499 74c89.333 0 157 -21.167 203 -63.5s71.333 -104.833 76 -187.5l-150 -10
c-4.66699 52 -16.667 88.5 -36 109.5s-50 31.5 -92 31.5c-52 0 -88.667 -13.167 -110 -39.5s-32 -71.833 -32 -136.5v-232c0 -63.333 11 -107.833 33 -133.5s59.333 -38.5 112 -38.5c50 0 85.167 13.667 105.5 41s30.166 74.666 29.499 141.999h-145v120h295v-136
c0 -92 -24.5 -162.833 -73.5 -212.5s-119.167 -74.5 -210.5 -74.5z" />
    <glyph glyph-name="gcommaaccent" unicode="&#x123;" 
d="M660 -37c0 -54.667 -20.332 -97.165 -60.999 -127.498s-93 -45.5 -157 -45.5h-180c-70 0 -124.5 12.833 -163.5 38.5s-58.5 60.5 -58.5 104.5c0 32.667 9.66699 59 29 79s44.666 31.667 75.999 35v20c-24 6 -44 16.667 -60 32s-24 39 -24 71
c0 33.333 11.167 61.5 33.5 84.5s53.833 36.5 94.5 40.5v19c-34 9.33301 -58.5 24.5 -73.5 45.5s-22.5 43.833 -22.5 68.5v14c0 48.667 21 87.167 63 115.5s97 42.5 165 42.5h327v-100l-160 21v-19c25.333 -6.66699 45.5 -19.834 60.5 -39.501s22.5 -40.5 22.5 -62.5v-15
c0 -48 -20.167 -85.667 -60.5 -113s-96.833 -41 -169.5 -41h-104c-20 0 -35.5 -4 -46.5 -12s-16.5 -21.667 -16.5 -41c0 -18.667 6.33301 -32.334 19 -41.001s31 -13 55 -13h202c62 0 112.5 -13 151.5 -39s58.5 -66.667 58.5 -122zM333.001 314.002
c34 0 59.167 6.66699 75.5 20s24.5 32.333 24.5 57v41c0 24 -8.33301 42.333 -25 55s-41.667 19 -75 19c-34 0 -59.167 -6.33301 -75.5 -19s-24.5 -31 -24.5 -55v-41c0 -24.667 8.16699 -43.667 24.5 -57s41.5 -20 75.5 -20zM262.001 -114.998l185 -0.00195312
c26 0 47.167 4.33301 63.5 13s24.5 25.334 24.5 50.001s-7.66699 41.334 -23 50.001s-35.333 13 -60 13h-268v-58c0 -22.667 6.5 -39.667 19.5 -51s32.5 -17 58.5 -17zM236.001 700l170 200h111l-81 -200h-200z" />
    <glyph glyph-name="Hcircumflex" unicode="&#x124;" 
d="M75 0v800h150v-300h250v300h150v-800h-150v380h-250v-380h-150zM164 894l-50 74l179 154h112l181 -154l-49 -73l-188 110z" />
    <glyph glyph-name="hcircumflex" unicode="&#x125;" 
d="M80 0l0.000976562 800.001h150v-305h30c15.333 36 39 64.167 71 84.5s68.333 30.5 109 30.5c55.333 0 99.166 -17.333 131.499 -52s48.5 -81.334 48.5 -140.001v-418h-150v380c0 34.667 -7.5 61.334 -22.5 80.001s-36.833 28 -65.5 28c-25.333 0 -51 -8.33301 -77 -25
s-51 -40.334 -75 -71.001v-392h-150zM-30.999 894.001l-50 74l179 154h112l181 -154l-49 -73l-188 110z" />
    <glyph glyph-name="Hbar" unicode="&#x126;" 
d="M230 425h240v130h-240v-130zM230 305v-305h-150v555h-80v105h80v140h150v-140h240v140h150v-140h80v-105h-80v-555h-150v305h-240z" />
    <glyph glyph-name="hbar" unicode="&#x127;" 
d="M230 332v-332h-150v615h-100v90h100v95h150v-95h180v-90h-180v-180h30c15.333 36 39.5 64.167 72.5 84.5s70.167 30.5 111.5 30.5c52.667 0 95.167 -16.667 127.5 -50s48.5 -77 48.5 -131v-369h-150v329c0 32.667 -7.5 57.334 -22.5 74.001s-36.833 25 -65.5 25
c-26 0 -51.667 -8.33301 -77 -25s-50.333 -40.334 -75 -71.001z" />
    <glyph glyph-name="Itilde" unicode="&#x128;" 
d="M75 0v120h200v560h-200v120h550v-120h-200v-560h200v-120h-550zM438 910c-28 0 -50.166 5.66699 -66.499 17s-30.5 23.333 -42.5 36l-31.5 35.5c-9.66699 11 -20.834 16.5 -33.501 16.5c-11.333 0 -21.5 -5.5 -30.5 -16.5s-13.167 -33.833 -12.5 -68.5v-10h-102v15
c0 52.667 12.5 96.667 37.5 132s60.5 53 106.5 53c28.667 0 51.5 -5.5 68.5 -16.5s31.167 -22.833 42.5 -35.5l31 -36c9.33301 -11.333 19.666 -17 30.999 -17c12 0 22.5 5.5 31.5 16.5s13.167 33.833 12.5 68.5v10h102v-15c0 -52.667 -12.667 -96.667 -38 -132
s-60.666 -53 -105.999 -53z" />
    <glyph glyph-name="itilde" unicode="&#x129;" 
d="M85 0v115h190v370h-190v115h340v-485h190v-115h-530zM438 710c-28 0 -50.166 5.66699 -66.499 17s-30.5 23.333 -42.5 36l-31.5 35.5c-9.66699 11 -20.834 16.5 -33.501 16.5c-11.333 0 -21.5 -5.5 -30.5 -16.5s-13.167 -33.833 -12.5 -68.5v-10h-102v15
c0 52.667 12.5 96.667 37.5 132s60.5 53 106.5 53c28.667 0 51.5 -5.5 68.5 -16.5s31.167 -22.833 42.5 -35.5l31 -36c9.33301 -11.333 19.666 -17 30.999 -17c12 0 22.5 5.5 31.5 16.5s13.167 33.833 12.5 68.5v10h102v-15c0 -52.667 -12.667 -96.667 -38 -132
s-60.666 -53 -105.999 -53z" />
    <glyph glyph-name="Imacron" unicode="&#x12a;" 
d="M75 0v120h200v560h-200v120h550v-120h-200v-560h200v-120h-550zM137 940v120h426v-120h-426z" />
    <glyph glyph-name="imacron" unicode="&#x12b;" 
d="M85 0v115h190v370h-190v115h340v-485h190v-115h-530zM137 740v120h426v-120h-426z" />
    <glyph glyph-name="Ibreve" unicode="&#x12c;" 
d="M75 0v120h200v560h-200v120h550v-120h-200v-560h200v-120h-550zM350 893c-77.333 0 -138.168 17.667 -182.501 53s-66.833 92.666 -67.5 171.999h130c0.666992 -46 10.5 -78.5 29.5 -97.5s49.167 -28.5 90.5 -28.5s71.5 9.5 90.5 28.5s28.833 51.5 29.5 97.5h130
c-0.666992 -79.333 -23.167 -136.666 -67.5 -171.999s-105.166 -53 -182.499 -53z" />
    <glyph glyph-name="ibreve" unicode="&#x12d;" 
d="M85 0v115h190v370h-190v115h340v-485h190v-115h-530zM350 693c-77.333 0 -138.168 17.667 -182.501 53s-66.833 92.666 -67.5 171.999h130c0.666992 -46 10.5 -78.5 29.5 -97.5s49.167 -28.5 90.5 -28.5s71.5 9.5 90.5 28.5s28.833 51.5 29.5 97.5h130
c-0.666992 -79.333 -23.167 -136.666 -67.5 -171.999s-105.166 -53 -182.499 -53z" />
    <glyph glyph-name="Iogonek" unicode="&#x12e;" 
d="M75 0v120h200v560h-200v120h550v-120h-200v-560h200v-120h-550zM436 -220c-50 0 -90.165 10.668 -120.498 32.001s-45.5 52 -45.5 92c0 38 14.833 71.167 44.5 99.5s62.167 47.833 97.5 58.5l27 -39c-22.667 -14 -37.334 -28.333 -44.001 -43s-10 -28.334 -10 -41.001
c0 -18 6 -31.5 18 -40.5s30.333 -13.5 55 -13.5c12 0 26.667 1 44 3s33.333 4.33301 48 7v-103c-18 -4 -37.333 -7 -58 -9s-39.334 -3 -56.001 -3z" />
    <glyph glyph-name="iogonek" unicode="&#x12f;" 
d="M356 700c-32 0 -57.833 5 -77.5 15s-29.5 27.333 -29.5 52v11c0 25.333 9.83301 43.166 29.5 53.499s45.5 15.5 77.5 15.5s57.833 -5.16699 77.5 -15.5s29.5 -28.166 29.5 -53.499v-11c0 -24.667 -10 -42 -30 -52s-45.667 -15 -77 -15zM85 0v115h190v370h-190v115h340
v-485h190v-115h-530zM431 -220c-50 0 -90.165 10.668 -120.498 32.001s-45.5 52 -45.5 92c0 38 14.833 71.167 44.5 99.5s62.167 47.833 97.5 58.5l27 -39c-22.667 -14 -37.334 -28.333 -44.001 -43s-10 -28.334 -10 -41.001c0 -18 6 -31.5 18 -40.5s30.333 -13.5 55 -13.5
c12 0 26.667 1 44 3s33.333 4.33301 48 7v-103c-18 -4 -37.333 -7 -58 -9s-39.334 -3 -56.001 -3z" />
    <glyph glyph-name="Idotaccent" unicode="&#x130;" 
d="M75 0v120h200v560h-200v120h550v-120h-200v-560h200v-120h-550zM350 900c-32 0 -57.833 5 -77.5 15s-29.5 27.333 -29.5 52v11c0 25.333 9.83301 43.166 29.5 53.499s45.5 15.5 77.5 15.5s57.833 -5.16699 77.5 -15.5s29.5 -28.166 29.5 -53.499v-11
c0 -24.667 -10 -42 -30 -52s-45.667 -15 -77 -15z" />
    <glyph glyph-name="dotlessi" unicode="&#x131;" 
d="M85 0v115h190v370h-190v115h340v-485h190v-115h-530z" />
    <glyph glyph-name="IJ" unicode="&#x132;" 
d="M175 0h-125v800h125v-800zM455 -10c-64 0 -113.5 20.167 -148.5 60.5s-53.5 110.833 -55.5 211.5l125 11c2.66699 -69.333 8.5 -115.5 17.5 -138.5s28.833 -34.5 59.5 -34.5c28 0 47.167 11.167 57.5 33.5s15.5 54.5 15.5 96.5v460h-160v110h285v-575
c0 -73.333 -16 -130.833 -48 -172.5s-81.333 -62.5 -148 -62.5z" />
    <glyph glyph-name="ij" unicode="&#x133;" 
d="M156 700c-30.667 0 -55.334 5 -74.001 15s-28 27.333 -28 52v11c0 25.333 9.33301 43.166 28 53.499s43.334 15.5 74.001 15.5s55.167 -5.16699 73.5 -15.5s27.5 -28.166 27.5 -53.499v-11c0 -24.667 -9.5 -42 -28.5 -52s-43.167 -15 -72.5 -15zM543 700
c-30 0 -54.334 5 -73.001 15s-28 27.333 -28 52v11c0 25.333 9.33301 43.166 28 53.499s43 15.5 73 15.5c30.667 0 55.334 -5.16699 74.001 -15.5s28 -28.166 28 -53.499v-11c0 -24.667 -9.5 -42 -28.5 -52s-43.5 -15 -73.5 -15zM229.999 0h-140v600h140v-600zM382.999 -209
c-24.667 0 -49.165 1.66699 -73.498 5s-48.833 9 -73.5 17l20 111c21.333 -6.66699 41.166 -11.667 59.499 -15s35.833 -5 52.5 -5c34 0 61.167 8.33301 81.5 25s30.5 44 30.5 82v474h-130v115h270v-604c0 -66.667 -21.833 -117.5 -65.5 -152.5
s-100.834 -52.5 -171.501 -52.5z" />
    <glyph glyph-name="Jcircumflex" unicode="&#x134;" 
d="M334 -10c-96 0 -166.999 22.499 -212.999 67.499s-71.333 116.5 -76 214.5l150 11c4.66699 -69.333 16.667 -115.5 36 -138.5s53.666 -34.5 102.999 -34.5c44.667 0 77.667 11.833 99 35.5s32 63.5 32 119.5v415h-215v120h365v-540
c0 -85.333 -23.167 -151.666 -69.5 -198.999s-116.833 -71 -211.5 -71zM239.001 893.999l-50 74l179 154h112l181 -154l-49 -73l-188 110z" />
    <glyph glyph-name="jcircumflex" unicode="&#x135;" 
d="M248 -209c-28.667 0 -57.1689 1.5 -85.502 4.5s-57.166 8.83301 -86.499 17.5l20 111c26 -8.66699 50.333 -14.167 73 -16.5s44.334 -3.5 65.001 -3.5c42 0 75.167 8.33301 99.5 25s36.5 44 36.5 82v474h-264v115h414v-604c0 -66.667 -25 -117.5 -75 -152.5
s-115.667 -52.5 -197 -52.5zM224.998 694l-50 74l179 154h112l181 -154l-49 -73l-188 110z" />
    <glyph glyph-name="Kcommaaccent" unicode="&#x136;" 
d="M225 358v-358h-150v800h150v-322h37l250 322h160l-293 -369l290 -431h-161l-243 358h-40zM213 -300l81 200h200l-170 -200h-111z" />
    <glyph glyph-name="kcommaaccent" unicode="&#x137;" 
d="M260 259v-259h-150v800h150v-434h44l173 234h163l-213 -274l210 -326h-163l-170 259h-44zM209 -300l81 200h200l-170 -200h-111z" />
    <glyph glyph-name="kgreenlandic" unicode="&#x138;" 
d="M260 259v-259h-150v600h150v-234h44l173 234h163l-213 -274l210 -326h-163l-170 259h-44z" />
    <glyph glyph-name="Lacute" unicode="&#x139;" 
d="M125 0v800h150v-680h350v-120h-500zM144 900l121 200h200l-210 -200h-111z" />
    <glyph glyph-name="lacute" unicode="&#x13a;" 
d="M90 0v115h195v570h-195v115h345v-685h190v-115h-535zM231 900l121 200h200l-210 -200h-111z" />
    <glyph glyph-name="Lcommaaccent" unicode="&#x13b;" 
d="M125 0v800h150v-680h350v-120h-500zM231 -300l81 200h200l-170 -200h-111z" />
    <glyph glyph-name="lcommaaccent" unicode="&#x13c;" 
d="M90 0v115h195v570h-195v115h345v-685h190v-115h-535zM181 -300l81 200h200l-170 -200h-111z" />
    <glyph glyph-name="Lcaron" unicode="&#x13d;" 
d="M125 0v800h150v-680h350v-120h-500zM391 505l66 295h197l-171 -295h-92z" />
    <glyph glyph-name="lcaron" unicode="&#x13e;" 
d="M90 0v115h195v570h-195v115h345v-685h190v-115h-535zM521 705l66 295h197l-171 -295h-92z" />
    <glyph glyph-name="Ldot" unicode="&#x13f;" 
d="M125 0v800h150v-680h350v-120h-500zM590 395c-32 0 -57.833 5 -77.5 15s-29.5 27.333 -29.5 52v11c0 25.333 9.83301 43.166 29.5 53.499s45.5 15.5 77.5 15.5s57.833 -5.16699 77.5 -15.5s29.5 -28.166 29.5 -53.499v-11c0 -24.667 -10 -42 -30 -52s-45.667 -15 -77 -15
z" />
    <glyph glyph-name="ldot" unicode="&#x140;" 
d="M90 0v115h195v570h-195v115h345v-685h190v-115h-535zM688 320c-32 0 -57.833 5 -77.5 15s-29.5 27.333 -29.5 52v11c0 25.333 9.83301 43.166 29.5 53.499s45.5 15.5 77.5 15.5s57.833 -5.16699 77.5 -15.5s29.5 -28.166 29.5 -53.499v-11c0 -24.667 -10 -42 -30 -52
s-45.667 -15 -77 -15z" />
    <glyph glyph-name="Lslash" unicode="&#x141;" 
d="M125 0v342l-85 -27v100l85 27v358h150v-311l240 76v-100l-240 -76v-269h350v-120h-500z" />
    <glyph glyph-name="lslash" unicode="&#x142;" 
d="M90 0v115h195v222l-155 -42v100l155 42v248h-195v115h345v-323l120 33v-100l-120 -33v-262h190v-115h-535z" />
    <glyph glyph-name="Nacute" unicode="&#x143;" 
d="M437 0l-232 601v-601h-130v800h177l243 -628v628h130v-800h-188zM251 900l121 200h200l-210 -200h-111z" />
    <glyph glyph-name="nacute" unicode="&#x144;" 
d="M80 0l0.000976562 600h150v-105h30c15.333 36 39.5 64.167 72.5 84.5s70.5 30.5 112.5 30.5c54.667 0 97.5 -17.167 128.5 -51.5s46.5 -81.5 46.5 -141.5v-417h-150v390c0 32 -7.5 56.333 -22.5 73s-36.833 25 -65.5 25c-25.333 0 -51.333 -7.16699 -78 -21.5
s-51.334 -35.833 -74.001 -64.5v-402h-150zM246.001 700l121 200h200l-210 -200h-111z" />
    <glyph glyph-name="Ncommaaccent" unicode="&#x145;" 
d="M191 -300l81 200h200l-170 -200h-111zM437 0l-232 601v-601h-130v800h177l243 -628v628h130v-800h-188z" />
    <glyph glyph-name="ncommaaccent" unicode="&#x146;" 
d="M201 -300l81 200h200l-170 -200h-111zM80 0l0.000976562 600h150v-105h30c15.333 36 39.5 64.167 72.5 84.5s70.5 30.5 112.5 30.5c54.667 0 97.5 -17.167 128.5 -51.5s46.5 -81.5 46.5 -141.5v-417h-150v390c0 32 -7.5 56.333 -22.5 73s-36.833 25 -65.5 25
c-25.333 0 -51.333 -7.16699 -78 -21.5s-51.334 -35.833 -74.001 -64.5v-402h-150z" />
    <glyph glyph-name="Ncaron" unicode="&#x147;" 
d="M437 0l-232 601v-601h-130v800h177l243 -628v628h130v-800h-188zM305 904l-181 154l49 74l188 -111l185 111l50 -74l-179 -154h-112z" />
    <glyph glyph-name="ncaron" unicode="&#x148;" 
d="M80 0l0.000976562 600h150v-105h30c15.333 36 39.5 64.167 72.5 84.5s70.5 30.5 112.5 30.5c54.667 0 97.5 -17.167 128.5 -51.5s46.5 -81.5 46.5 -141.5v-417h-150v390c0 32 -7.5 56.333 -22.5 73s-36.833 25 -65.5 25c-25.333 0 -51.333 -7.16699 -78 -21.5
s-51.334 -35.833 -74.001 -64.5v-402h-150zM315.001 704l-181 154l49 74l188 -111l185 111l50 -74l-179 -154h-112z" />
    <glyph glyph-name="napostrophe" unicode="&#x149;" 
d="M80 0l0.000976562 600h150v-105h30c15.333 36 39.5 64.167 72.5 84.5s70.5 30.5 112.5 30.5c54.667 0 97.5 -17.167 128.5 -51.5s46.5 -81.5 46.5 -141.5v-417h-150v390c0 32 -7.5 56.333 -22.5 73s-36.833 25 -65.5 25c-25.333 0 -51.333 -7.16699 -78 -21.5
s-51.334 -35.833 -74.001 -64.5v-402h-150zM-23.999 700l121 200h200l-210 -200h-111z" />
    <glyph glyph-name="Eng" unicode="&#x14a;" 
d="M383 -209c-23.333 0 -47.167 2.50195 -71.5 7.50195s-49.5 11.5 -75.5 19.5l20 111c22.667 -7.33301 43 -13.333 61 -18s35.333 -7 52 -7c32.667 0 58.5 10.167 77.5 30.5s28.5 54.166 28.5 101.499v528c0 42.667 -8.83301 74 -26.5 94s-39.834 30 -66.501 30
c-30.667 0 -57.167 -10.167 -79.5 -30.5s-48.166 -48.833 -77.499 -85.5v-572h-150v800h150v-125h30c18.667 43.333 44.667 76.666 78 99.999s70.333 35 111 35c52.667 0 96 -17.833 130 -53.5s51 -86.5 51 -152.5v-583c0 -79.333 -23.833 -137.5 -71.5 -174.5
s-104.5 -55.5 -170.5 -55.5z" />
    <glyph glyph-name="eng" unicode="&#x14b;" 
d="M398 -209c-20.667 0 -42.168 2 -64.501 6s-44.833 9.33301 -67.5 16l20 111c18.667 -6 36 -10.833 52 -14.5s31.333 -5.5 46 -5.5c26.667 0 47.667 8.33301 63 25s23 44 23 82v388c0 29.333 -7.5 51.5 -22.5 66.5s-36.833 22.5 -65.5 22.5c-26 0 -52 -7.16699 -78 -21.5
s-50.667 -35.833 -74 -64.5v-402h-150v600h150v-105h30c16.667 38 42.334 66.667 77.001 86s71.667 29 111 29c52.667 0 94.5 -15.667 125.5 -47s46.5 -76 46.5 -134v-433c0 -71.333 -22 -123.333 -66 -156s-96 -49 -156 -49z" />
    <glyph glyph-name="Omacron" unicode="&#x14c;" 
d="M350 -10c-93.333 0 -164.168 23.5 -212.501 70.5s-72.5 114.167 -72.5 201.5v272c0 88 24.333 156 73 204s119.667 72 213 72s164 -24 212 -72s72 -116 72 -204v-272c0 -87.333 -24.167 -154.5 -72.5 -201.5s-119.166 -70.5 -212.499 -70.5zM349.998 110
c48.667 0 83.334 12.333 104.001 37s31 66.334 31 125.001v252c0 60 -10.333 102.667 -31 128s-55.334 38 -104.001 38c-48 0 -82.5 -12.667 -103.5 -38s-31.5 -68 -31.5 -128v-252c0 -58.667 10.5 -100.334 31.5 -125.001s55.5 -37 103.5 -37zM136.998 940v120h426v-120
h-426z" />
    <glyph glyph-name="omacron" unicode="&#x14d;" 
d="M350 -10c-85.333 0 -151.668 19.833 -199.001 59.5s-71 95.5 -71 167.5v162c0 73.333 23.833 130.166 71.5 170.499s114.167 60.5 199.5 60.5s151.5 -20.5 198.5 -61.5s70.5 -98.167 70.5 -171.5v-162c0 -71.333 -23.667 -126.666 -71 -165.999
s-113.666 -59 -198.999 -59zM349.998 105c41.333 0 71.666 9.5 90.999 28.5s29 48.5 29 88.5v153c0 41.333 -9.66699 71.666 -29 90.999s-49.666 29 -90.999 29s-71.666 -9.66699 -90.999 -29s-29 -49.333 -29 -90v-151c0 -41.333 9.66699 -71.666 29 -90.999
s49.666 -29 90.999 -29zM136.998 740v120h426v-120h-426z" />
    <glyph glyph-name="Obreve" unicode="&#x14e;" 
d="M350 -10c-93.333 0 -164.168 23.5 -212.501 70.5s-72.5 114.167 -72.5 201.5v272c0 88 24.333 156 73 204s119.667 72 213 72s164 -24 212 -72s72 -116 72 -204v-272c0 -87.333 -24.167 -154.5 -72.5 -201.5s-119.166 -70.5 -212.499 -70.5zM349.998 110
c48.667 0 83.334 12.333 104.001 37s31 66.334 31 125.001v252c0 60 -10.333 102.667 -31 128s-55.334 38 -104.001 38c-48 0 -82.5 -12.667 -103.5 -38s-31.5 -68 -31.5 -128v-252c0 -58.667 10.5 -100.334 31.5 -125.001s55.5 -37 103.5 -37zM349.998 893
c-77.333 0 -138.168 17.667 -182.501 53s-66.833 92.666 -67.5 171.999h130c0.666992 -46 10.5 -78.5 29.5 -97.5s49.167 -28.5 90.5 -28.5s71.5 9.5 90.5 28.5s28.833 51.5 29.5 97.5h130c-0.666992 -79.333 -23.167 -136.666 -67.5 -171.999s-105.166 -53 -182.499 -53z
" />
    <glyph glyph-name="obreve" unicode="&#x14f;" 
d="M350 -10c-85.333 0 -151.668 19.833 -199.001 59.5s-71 95.5 -71 167.5v162c0 73.333 23.833 130.166 71.5 170.499s114.167 60.5 199.5 60.5s151.5 -20.5 198.5 -61.5s70.5 -98.167 70.5 -171.5v-162c0 -71.333 -23.667 -126.666 -71 -165.999
s-113.666 -59 -198.999 -59zM349.998 105c41.333 0 71.666 9.5 90.999 28.5s29 48.5 29 88.5v153c0 41.333 -9.66699 71.666 -29 90.999s-49.666 29 -90.999 29s-71.666 -9.66699 -90.999 -29s-29 -49.333 -29 -90v-151c0 -41.333 9.66699 -71.666 29 -90.999
s49.666 -29 90.999 -29zM354.998 693c-77.333 0 -138.168 17.667 -182.501 53s-66.833 92.666 -67.5 171.999h130c0.666992 -46 10.5 -78.5 29.5 -97.5s49.167 -28.5 90.5 -28.5s71.5 9.5 90.5 28.5s28.833 51.5 29.5 97.5h130
c-0.666992 -79.333 -23.167 -136.666 -67.5 -171.999s-105.166 -53 -182.499 -53z" />
    <glyph glyph-name="Ohungarumlaut" unicode="&#x150;" 
d="M350 -10c-93.333 0 -164.168 23.5 -212.501 70.5s-72.5 114.167 -72.5 201.5v272c0 88 24.333 156 73 204s119.667 72 213 72s164 -24 212 -72s72 -116 72 -204v-272c0 -87.333 -24.167 -154.5 -72.5 -201.5s-119.166 -70.5 -212.499 -70.5zM349.998 110
c48.667 0 83.334 12.333 104.001 37s31 66.334 31 125.001v252c0 60 -10.333 102.667 -31 128s-55.334 38 -104.001 38c-48 0 -82.5 -12.667 -103.5 -38s-31.5 -68 -31.5 -128v-252c0 -58.667 10.5 -100.334 31.5 -125.001s55.5 -37 103.5 -37zM405.998 900l51 200h165
l-130 -200h-86zM175.998 900l51 200h165l-130 -200h-86z" />
    <glyph glyph-name="ohungarumlaut" unicode="&#x151;" 
d="M350 -10c-85.333 0 -151.668 19.833 -199.001 59.5s-71 95.5 -71 167.5v162c0 73.333 23.833 130.166 71.5 170.499s114.167 60.5 199.5 60.5s151.5 -20.5 198.5 -61.5s70.5 -98.167 70.5 -171.5v-162c0 -71.333 -23.667 -126.666 -71 -165.999
s-113.666 -59 -198.999 -59zM349.998 105c41.333 0 71.666 9.5 90.999 28.5s29 48.5 29 88.5v153c0 41.333 -9.66699 71.666 -29 90.999s-49.666 29 -90.999 29s-71.666 -9.66699 -90.999 -29s-29 -49.333 -29 -90v-151c0 -41.333 9.66699 -71.666 29 -90.999
s49.666 -29 90.999 -29zM400.998 700l51 200h165l-130 -200h-86zM170.998 700l51 200h165l-130 -200h-86z" />
    <glyph glyph-name="OE" unicode="&#x152;" 
d="M275 0c-80 0 -142.5 26.333 -187.5 79s-67.5 122.667 -67.5 210v222c0 87.333 22.5 157.333 67.5 210s107.5 79 187.5 79h415v-110h-215v-200h190v-110h-190v-270h215v-110h-415zM285 115h60v570h-60c-49.333 0 -84.166 -16.167 -104.499 -48.5s-30.5 -77.5 -30.5 -135.5
v-202c0 -58 10.167 -103.167 30.5 -135.5s55.166 -48.5 104.499 -48.5z" />
    <glyph glyph-name="oe" unicode="&#x153;" 
d="M672 143c-8.66699 -56 -27.502 -95.5 -56.502 -118.5s-70.167 -34.5 -123.5 -34.5c-32.667 0 -61.667 6 -87 18s-45.333 30.333 -60 55c-14.667 -24.667 -33.667 -43 -57 -55s-49.333 -18 -78 -18c-51.333 0 -93.5 17 -126.5 51s-49.5 86 -49.5 156v202
c0 71.333 16.667 124.333 50 159s75.666 52 126.999 52c28.667 0 54.334 -6 77.001 -18s41.334 -30.333 56.001 -55c14.667 24.667 34.334 43 59.001 55s52.334 18 83.001 18c53.333 0 96.833 -16.167 130.5 -48.5s50.5 -82.166 50.5 -149.499v-142h-257v-96
c0 -28.667 5.5 -49.834 16.5 -63.501s28.833 -20.5 53.5 -20.5s43.667 4.5 57 13.5s21.666 27.833 24.999 56.5zM409.998 427v-74h130v65c0 34 -5.16699 58.333 -15.5 73s-26.833 22 -49.5 22s-39.167 -6.83301 -49.5 -20.5s-15.5 -35.5 -15.5 -65.5zM224.998 100
c22.667 0 39.167 8.16699 49.5 24.5s15.5 43.166 15.5 80.499v192c0 34.667 -5.16699 60.5 -15.5 77.5s-26.833 25.5 -49.5 25.5c-22 0 -38.333 -8.66699 -49 -26s-16 -43.333 -16 -78v-191c0 -37.333 5.33301 -64.166 16 -80.499s27 -24.5 49 -24.5z" />
    <glyph glyph-name="Racute" unicode="&#x154;" 
d="M225 414l150 0.000976562c46 0 78.333 7.83301 97 23.5s28 43.167 28 82.5v58c0 37.333 -9.33301 63.666 -28 78.999s-51 23 -97 23h-150v-266zM225 0.000976562h-150v800h316c86.667 0 150.667 -18.167 192 -54.5s62 -90.166 62 -161.499v-67
c0 -59.333 -13.833 -106.833 -41.5 -142.5s-69.167 -58.834 -124.5 -69.501l185 -305h-161l-179 295h-99v-295zM276 900.001l121 200h200l-210 -200h-111z" />
    <glyph glyph-name="racute" unicode="&#x155;" 
d="M115 0l0.00195312 600h150v-105h30c14.667 40 37.167 69.167 67.5 87.5s66.5 27.5 108.5 27.5c48 0 86.167 -14.833 114.5 -44.5s42.5 -71.5 42.5 -125.5v-101h-138v55c0 30.667 -6.83301 54 -20.5 70s-35.834 24 -66.501 24c-26.667 0 -51.834 -6.5 -75.501 -19.5
s-44.5 -34.167 -62.5 -63.5v-405h-150zM259.002 700l121 200h200l-210 -200h-111z" />
    <glyph glyph-name="Rcommaaccent" unicode="&#x156;" 
d="M225 414l150 0.000976562c46 0 78.333 7.83301 97 23.5s28 43.167 28 82.5v58c0 37.333 -9.33301 63.666 -28 78.999s-51 23 -97 23h-150v-266zM225 0.000976562h-150v800h316c86.667 0 150.667 -18.167 192 -54.5s62 -90.166 62 -161.499v-67
c0 -59.333 -13.833 -106.833 -41.5 -142.5s-69.167 -58.834 -124.5 -69.501l185 -305h-161l-179 295h-99v-295zM181 -299.999l81 200h200l-170 -200h-111z" />
    <glyph glyph-name="rcommaaccent" unicode="&#x157;" 
d="M115 0l0.00195312 600h150v-105h30c14.667 40 37.167 69.167 67.5 87.5s66.5 27.5 108.5 27.5c48 0 86.167 -14.833 114.5 -44.5s42.5 -71.5 42.5 -125.5v-101h-138v55c0 30.667 -6.83301 54 -20.5 70s-35.834 24 -66.501 24c-26.667 0 -51.834 -6.5 -75.501 -19.5
s-44.5 -34.167 -62.5 -63.5v-405h-150zM49.002 -300l81 200h200l-170 -200h-111z" />
    <glyph glyph-name="Rcaron" unicode="&#x158;" 
d="M225 414l150 0.000976562c46 0 78.333 7.83301 97 23.5s28 43.167 28 82.5v58c0 37.333 -9.33301 63.666 -28 78.999s-51 23 -97 23h-150v-266zM225 0.000976562h-150v800h316c86.667 0 150.667 -18.167 192 -54.5s62 -90.166 62 -161.499v-67
c0 -59.333 -13.833 -106.833 -41.5 -142.5s-69.167 -58.834 -124.5 -69.501l185 -305h-161l-179 295h-99v-295zM290 904.001l-181 154l49 74l188 -111l185 111l50 -74l-179 -154h-112z" />
    <glyph glyph-name="rcaron" unicode="&#x159;" 
d="M115 0l0.00195312 600h150v-105h30c14.667 40 37.167 69.167 67.5 87.5s66.5 27.5 108.5 27.5c48 0 86.167 -14.833 114.5 -44.5s42.5 -71.5 42.5 -125.5v-101h-138v55c0 30.667 -6.83301 54 -20.5 70s-35.834 24 -66.501 24c-26.667 0 -51.834 -6.5 -75.501 -19.5
s-44.5 -34.167 -62.5 -63.5v-405h-150zM328.002 704l-181 154l49 74l188 -111l185 111l50 -74l-179 -154h-112z" />
    <glyph glyph-name="Sacute" unicode="&#x15a;" 
d="M352 -8c-62 0 -118.164 8.83203 -168.497 26.499s-95.5 44.834 -135.5 81.501l58 109c34 -30.667 71 -54.5 111 -71.5s86 -25.5 138 -25.5c44 0 78 9.5 102 28.5s36 44.5 36 76.5c0 34 -12 59 -36 75s-68.667 32.667 -134 50c-94 24 -159.167 53.167 -195.5 87.5
s-54.5 83.5 -54.5 147.5c0 69.333 23.5 125 70.5 167s112.167 63 195.5 63c52 0 102.833 -9.16699 152.5 -27.5s91.167 -44.166 124.5 -77.499l-52 -105c-33.333 28.667 -69 50.667 -107 66s-77 23 -117 23c-36.667 0 -65.334 -7.33301 -86.001 -22s-31 -38.334 -31 -71.001
c0 -30 11.667 -53.667 35 -71s70.666 -35 141.999 -53c91.333 -22.667 154.666 -51.5 189.999 -86.5s53 -85.5 53 -151.5c0 -76.667 -27.5 -135.667 -82.5 -177s-124.5 -62 -208.5 -62zM226.003 899.999l121 200h200l-210 -200h-111z" />
    <glyph glyph-name="sacute" unicode="&#x15b;" 
d="M355 -8c-52 0 -102.834 7.16211 -152.501 21.4951s-93.834 35.5 -132.501 63.5l45 99c36 -25.333 75.5 -44.666 118.5 -57.999s84.167 -20 123.5 -20c32.667 0 59.834 4.83301 81.501 14.5s32.5 27.834 32.5 54.501c0 24.667 -10 42.334 -30 53.001
s-55.667 19.334 -107 26.001c-79.333 8.66699 -139.833 25.5 -181.5 50.5s-62.5 66.167 -62.5 123.5c0 60 23.167 106.667 69.5 140s104.833 50 175.5 50c44 0 88.333 -7 133 -21s85.334 -33.333 122.001 -58l-40 -95c-34 22 -69 38.833 -105 50.5s-71.333 17.5 -106 17.5
c-28.667 0 -52.5 -5.16699 -71.5 -15.5s-28.5 -27.833 -28.5 -52.5s11.167 -42 33.5 -52s61.5 -18.333 117.5 -25c77.333 -9.33301 135 -28.166 173 -56.499s57 -68.5 57 -120.5c0 -62 -24.833 -109.167 -74.5 -141.5s-113.167 -48.5 -190.5 -48.5zM228.999 699.995l121 200
h200l-210 -200h-111z" />
    <glyph glyph-name="Scircumflex" unicode="&#x15c;" 
d="M352 -8c-62 0 -118.164 8.83203 -168.497 26.499s-95.5 44.834 -135.5 81.501l58 109c34 -30.667 71 -54.5 111 -71.5s86 -25.5 138 -25.5c44 0 78 9.5 102 28.5s36 44.5 36 76.5c0 34 -12 59 -36 75s-68.667 32.667 -134 50c-94 24 -159.167 53.167 -195.5 87.5
s-54.5 83.5 -54.5 147.5c0 69.333 23.5 125 70.5 167s112.167 63 195.5 63c52 0 102.833 -9.16699 152.5 -27.5s91.167 -44.166 124.5 -77.499l-52 -105c-33.333 28.667 -69 50.667 -107 66s-77 23 -117 23c-36.667 0 -65.334 -7.33301 -86.001 -22s-31 -38.334 -31 -71.001
c0 -30 11.667 -53.667 35 -71s70.666 -35 141.999 -53c91.333 -22.667 154.666 -51.5 189.999 -86.5s53 -85.5 53 -151.5c0 -76.667 -27.5 -135.667 -82.5 -177s-124.5 -62 -208.5 -62zM164.003 893.999l-50 74l179 154h112l181 -154l-49 -73l-188 110z" />
    <glyph glyph-name="scircumflex" unicode="&#x15d;" 
d="M355 -8c-52 0 -102.834 7.16211 -152.501 21.4951s-93.834 35.5 -132.501 63.5l45 99c36 -25.333 75.5 -44.666 118.5 -57.999s84.167 -20 123.5 -20c32.667 0 59.834 4.83301 81.501 14.5s32.5 27.834 32.5 54.501c0 24.667 -10 42.334 -30 53.001
s-55.667 19.334 -107 26.001c-79.333 8.66699 -139.833 25.5 -181.5 50.5s-62.5 66.167 -62.5 123.5c0 60 23.167 106.667 69.5 140s104.833 50 175.5 50c44 0 88.333 -7 133 -21s85.334 -33.333 122.001 -58l-40 -95c-34 22 -69 38.833 -105 50.5s-71.333 17.5 -106 17.5
c-28.667 0 -52.5 -5.16699 -71.5 -15.5s-28.5 -27.833 -28.5 -52.5s11.167 -42 33.5 -52s61.5 -18.333 117.5 -25c77.333 -9.33301 135 -28.166 173 -56.499s57 -68.5 57 -120.5c0 -62 -24.833 -109.167 -74.5 -141.5s-113.167 -48.5 -190.5 -48.5zM161.999 693.995l-50 74
l179 154h112l181 -154l-49 -73l-188 110z" />
    <glyph glyph-name="Scedilla" unicode="&#x15e;" 
d="M352 -8c-62 0 -118.164 8.83203 -168.497 26.499s-95.5 44.834 -135.5 81.501l58 109c34 -30.667 71 -54.5 111 -71.5s86 -25.5 138 -25.5c44 0 78 9.5 102 28.5s36 44.5 36 76.5c0 34 -12 59 -36 75s-68.667 32.667 -134 50c-94 24 -159.167 53.167 -195.5 87.5
s-54.5 83.5 -54.5 147.5c0 69.333 23.5 125 70.5 167s112.167 63 195.5 63c52 0 102.833 -9.16699 152.5 -27.5s91.167 -44.166 124.5 -77.499l-52 -105c-33.333 28.667 -69 50.667 -107 66s-77 23 -117 23c-36.667 0 -65.334 -7.33301 -86.001 -22s-31 -38.334 -31 -71.001
c0 -30 11.667 -53.667 35 -71s70.666 -35 141.999 -53c91.333 -22.667 154.666 -51.5 189.999 -86.5s53 -85.5 53 -151.5c0 -76.667 -27.5 -135.667 -82.5 -177s-124.5 -62 -208.5 -62zM320.003 -0.000976562l20 41.998c43.333 -5.33301 80.666 -17.666 111.999 -36.999
s47 -51 47 -95c0 -46 -18.667 -79.333 -56 -100s-79 -31 -125 -31c-54 0 -98.167 9.16699 -132.5 27.5s-52.833 49.5 -55.5 93.5l128 10c1.33301 -12.667 5.83301 -21.5 13.5 -26.5s20.834 -7.5 39.501 -7.5s33 3.83301 43 11.5s15 22.834 15 45.501
c0 20 -3.5 34.833 -10.5 44.5s-19.833 17.167 -38.5 22.5z" />
    <glyph glyph-name="scedilla" unicode="&#x15f;" 
d="M355 -8c-52 0 -102.834 7.16211 -152.501 21.4951s-93.834 35.5 -132.501 63.5l45 99c36 -25.333 75.5 -44.666 118.5 -57.999s84.167 -20 123.5 -20c32.667 0 59.834 4.83301 81.501 14.5s32.5 27.834 32.5 54.501c0 24.667 -10 42.334 -30 53.001
s-55.667 19.334 -107 26.001c-79.333 8.66699 -139.833 25.5 -181.5 50.5s-62.5 66.167 -62.5 123.5c0 60 23.167 106.667 69.5 140s104.833 50 175.5 50c44 0 88.333 -7 133 -21s85.334 -33.333 122.001 -58l-40 -95c-34 22 -69 38.833 -105 50.5s-71.333 17.5 -106 17.5
c-28.667 0 -52.5 -5.16699 -71.5 -15.5s-28.5 -27.833 -28.5 -52.5s11.167 -42 33.5 -52s61.5 -18.333 117.5 -25c77.333 -9.33301 135 -28.166 173 -56.499s57 -68.5 57 -120.5c0 -62 -24.833 -109.167 -74.5 -141.5s-113.167 -48.5 -190.5 -48.5zM312.999 -0.00488281
l20 41.998c43.333 -5.33301 80.666 -17.666 111.999 -36.999s47 -51 47 -95c0 -46 -18.667 -79.333 -56 -100s-79 -31 -125 -31c-54 0 -98.167 9.16699 -132.5 27.5s-52.833 49.5 -55.5 93.5l128 10c1.33301 -12.667 5.83301 -21.5 13.5 -26.5s20.834 -7.5 39.501 -7.5
s33 3.83301 43 11.5s15 22.834 15 45.501c0 20 -3.5 34.833 -10.5 44.5s-19.833 17.167 -38.5 22.5z" />
    <glyph glyph-name="Scaron" unicode="&#x160;" 
d="M352 -8c-62 0 -118.164 8.83203 -168.497 26.499s-95.5 44.834 -135.5 81.501l58 109c34 -30.667 71 -54.5 111 -71.5s86 -25.5 138 -25.5c44 0 78 9.5 102 28.5s36 44.5 36 76.5c0 34 -12 59 -36 75s-68.667 32.667 -134 50c-94 24 -159.167 53.167 -195.5 87.5
s-54.5 83.5 -54.5 147.5c0 69.333 23.5 125 70.5 167s112.167 63 195.5 63c52 0 102.833 -9.16699 152.5 -27.5s91.167 -44.166 124.5 -77.499l-52 -105c-33.333 28.667 -69 50.667 -107 66s-77 23 -117 23c-36.667 0 -65.334 -7.33301 -86.001 -22s-31 -38.334 -31 -71.001
c0 -30 11.667 -53.667 35 -71s70.666 -35 141.999 -53c91.333 -22.667 154.666 -51.5 189.999 -86.5s53 -85.5 53 -151.5c0 -76.667 -27.5 -135.667 -82.5 -177s-124.5 -62 -208.5 -62zM295.003 903.999l-181 154l49 74l188 -111l185 111l50 -74l-179 -154h-112z" />
    <glyph glyph-name="scaron" unicode="&#x161;" 
d="M355 -8c-52 0 -102.834 7.16211 -152.501 21.4951s-93.834 35.5 -132.501 63.5l45 99c36 -25.333 75.5 -44.666 118.5 -57.999s84.167 -20 123.5 -20c32.667 0 59.834 4.83301 81.501 14.5s32.5 27.834 32.5 54.501c0 24.667 -10 42.334 -30 53.001
s-55.667 19.334 -107 26.001c-79.333 8.66699 -139.833 25.5 -181.5 50.5s-62.5 66.167 -62.5 123.5c0 60 23.167 106.667 69.5 140s104.833 50 175.5 50c44 0 88.333 -7 133 -21s85.334 -33.333 122.001 -58l-40 -95c-34 22 -69 38.833 -105 50.5s-71.333 17.5 -106 17.5
c-28.667 0 -52.5 -5.16699 -71.5 -15.5s-28.5 -27.833 -28.5 -52.5s11.167 -42 33.5 -52s61.5 -18.333 117.5 -25c77.333 -9.33301 135 -28.166 173 -56.499s57 -68.5 57 -120.5c0 -62 -24.833 -109.167 -74.5 -141.5s-113.167 -48.5 -190.5 -48.5zM292.999 703.995
l-181 154l49 74l188 -111l185 111l50 -74l-179 -154h-112z" />
    <glyph glyph-name="Tcedilla" unicode="&#x162;" 
d="M275 0v680h-235v120h620v-120h-235v-680h-150zM309 0l20 41.998c43.333 -5.33301 80.666 -17.666 111.999 -36.999s47 -51 47 -95c0 -46 -18.667 -79.333 -56 -100s-79 -31 -125 -31c-54 0 -98.167 9.16699 -132.5 27.5s-52.833 49.5 -55.5 93.5l128 10
c1.33301 -12.667 5.83301 -21.5 13.5 -26.5s20.834 -7.5 39.501 -7.5s33 3.83301 43 11.5s15 22.834 15 45.501c0 20 -3.5 34.833 -10.5 44.5s-19.833 17.167 -38.5 22.5z" />
    <glyph glyph-name="tcedilla" unicode="&#x163;" 
d="M455 -10c-74.667 0 -132.5 17.668 -173.5 53.001s-61.5 87.333 -61.5 156v286h-155v115h155v200h150v-200h240v-115h-240v-267c0 -38 9 -65.833 27 -83.5s43.333 -26.5 76 -26.5c20.667 0 41.667 1.5 63 4.5s42.333 8.16699 63 15.5l20 -114
c-18 -6.66699 -41.167 -12.334 -69.5 -17.001s-59.833 -7 -94.5 -7zM374 0.000976562l20 41.998c43.333 -5.33301 80.666 -17.666 111.999 -36.999s47 -51 47 -95c0 -46 -18.667 -79.333 -56 -100s-79 -31 -125 -31c-54 0 -98.167 9.16699 -132.5 27.5
s-52.833 49.5 -55.5 93.5l128 10c1.33301 -12.667 5.83301 -21.5 13.5 -26.5s20.834 -7.5 39.501 -7.5s33 3.83301 43 11.5s15 22.834 15 45.501c0 20 -3.5 34.833 -10.5 44.5s-19.833 17.167 -38.5 22.5z" />
    <glyph glyph-name="Tcaron" unicode="&#x164;" 
d="M275 0v680h-235v120h620v-120h-235v-680h-150zM295 904l-181 154l49 74l188 -111l185 111l50 -74l-179 -154h-112z" />
    <glyph glyph-name="tcaron" unicode="&#x165;" 
d="M455 -10c-74.667 0 -132.5 17.668 -173.5 53.001s-61.5 87.333 -61.5 156v286h-155v115h155v200h150v-200h240v-115h-240v-267c0 -38 9 -65.833 27 -83.5s43.333 -26.5 76 -26.5c20.667 0 41.667 1.5 63 4.5s42.333 8.16699 63 15.5l20 -114
c-18 -6.66699 -41.167 -12.334 -69.5 -17.001s-59.833 -7 -94.5 -7zM466 705.001l66 295h197l-171 -295h-92z" />
    <glyph glyph-name="Tbar" unicode="&#x166;" 
d="M275 0v300h-180v105h180v275h-235v120h620v-120h-235v-275h180v-105h-180v-300h-150z" />
    <glyph glyph-name="tbar" unicode="&#x167;" 
d="M455 -10c-74.667 0 -132.5 17.668 -173.5 53.001s-61.5 87.333 -61.5 156v66h-125v105h125v115h-155v115h155v200h150v-200h240v-115h-240v-115h215v-105h-215v-47c0 -38 9 -65.833 27 -83.5s43.333 -26.5 76 -26.5c20.667 0 41.667 1.5 63 4.5s42.333 8.16699 63 15.5
l20 -114c-18 -6.66699 -41.167 -12.334 -69.5 -17.001s-59.833 -7 -94.5 -7z" />
    <glyph glyph-name="Utilde" unicode="&#x168;" 
d="M350 -10c-93.333 0 -162.5 23.5 -207.5 70.5s-67.5 119.167 -67.5 216.5v523h150v-518c0 -62 9.66699 -105.333 29 -130s51.333 -37 96 -37c45.333 0 77.5 12.333 96.5 37s28.5 68 28.5 130v518h150v-523c0 -97.333 -22.5 -169.5 -67.5 -216.5
s-114.167 -70.5 -207.5 -70.5zM438 910c-28 0 -50.166 5.66699 -66.499 17s-30.5 23.333 -42.5 36l-31.5 35.5c-9.66699 11 -20.834 16.5 -33.501 16.5c-11.333 0 -21.5 -5.5 -30.5 -16.5s-13.167 -33.833 -12.5 -68.5v-10h-102v15c0 52.667 12.5 96.667 37.5 132
s60.5 53 106.5 53c28.667 0 51.5 -5.5 68.5 -16.5s31.167 -22.833 42.5 -35.5l31 -36c9.33301 -11.333 19.666 -17 30.999 -17c12 0 22.5 5.5 31.5 16.5s13.167 33.833 12.5 68.5v10h102v-15c0 -52.667 -12.667 -96.667 -38 -132s-60.666 -53 -105.999 -53z" />
    <glyph glyph-name="utilde" unicode="&#x169;" 
d="M261 -10c-52 0 -95.167 17.167 -129.5 51.5s-51.5 81.5 -51.5 141.5v417h150v-379c0 -36 7.5 -63 22.5 -81s37.167 -27 66.5 -27c26 0 51.5 8.16699 76.5 24.5s49.833 39.833 74.5 70.5v392h150v-600h-150v105h-30c-16 -38 -41 -66.667 -75 -86s-68.667 -29 -104 -29z
M438 710c-28 0 -50.166 5.66699 -66.499 17s-30.5 23.333 -42.5 36l-31.5 35.5c-9.66699 11 -20.834 16.5 -33.501 16.5c-11.333 0 -21.5 -5.5 -30.5 -16.5s-13.167 -33.833 -12.5 -68.5v-10h-102v15c0 52.667 12.5 96.667 37.5 132s60.5 53 106.5 53
c28.667 0 51.5 -5.5 68.5 -16.5s31.167 -22.833 42.5 -35.5l31 -36c9.33301 -11.333 19.666 -17 30.999 -17c12 0 22.5 5.5 31.5 16.5s13.167 33.833 12.5 68.5v10h102v-15c0 -52.667 -12.667 -96.667 -38 -132s-60.666 -53 -105.999 -53z" />
    <glyph glyph-name="Umacron" unicode="&#x16a;" 
d="M350 -10c-93.333 0 -162.5 23.5 -207.5 70.5s-67.5 119.167 -67.5 216.5v523h150v-518c0 -62 9.66699 -105.333 29 -130s51.333 -37 96 -37c45.333 0 77.5 12.333 96.5 37s28.5 68 28.5 130v518h150v-523c0 -97.333 -22.5 -169.5 -67.5 -216.5
s-114.167 -70.5 -207.5 -70.5zM137 940v120h426v-120h-426z" />
    <glyph glyph-name="umacron" unicode="&#x16b;" 
d="M261 -10c-52 0 -95.167 17.167 -129.5 51.5s-51.5 81.5 -51.5 141.5v417h150v-379c0 -36 7.5 -63 22.5 -81s37.167 -27 66.5 -27c26 0 51.5 8.16699 76.5 24.5s49.833 39.833 74.5 70.5v392h150v-600h-150v105h-30c-16 -38 -41 -66.667 -75 -86s-68.667 -29 -104 -29z
M137 740v120h426v-120h-426z" />
    <glyph glyph-name="Ubreve" unicode="&#x16c;" 
d="M350 -10c-93.333 0 -162.5 23.5 -207.5 70.5s-67.5 119.167 -67.5 216.5v523h150v-518c0 -62 9.66699 -105.333 29 -130s51.333 -37 96 -37c45.333 0 77.5 12.333 96.5 37s28.5 68 28.5 130v518h150v-523c0 -97.333 -22.5 -169.5 -67.5 -216.5
s-114.167 -70.5 -207.5 -70.5zM350 893c-77.333 0 -138.168 17.667 -182.501 53s-66.833 92.666 -67.5 171.999h130c0.666992 -46 10.5 -78.5 29.5 -97.5s49.167 -28.5 90.5 -28.5s71.5 9.5 90.5 28.5s28.833 51.5 29.5 97.5h130
c-0.666992 -79.333 -23.167 -136.666 -67.5 -171.999s-105.166 -53 -182.499 -53z" />
    <glyph glyph-name="ubreve" unicode="&#x16d;" 
d="M261 -10c-52 0 -95.167 17.167 -129.5 51.5s-51.5 81.5 -51.5 141.5v417h150v-379c0 -36 7.5 -63 22.5 -81s37.167 -27 66.5 -27c26 0 51.5 8.16699 76.5 24.5s49.833 39.833 74.5 70.5v392h150v-600h-150v105h-30c-16 -38 -41 -66.667 -75 -86s-68.667 -29 -104 -29z
M355 693c-77.333 0 -138.168 17.667 -182.501 53s-66.833 92.666 -67.5 171.999h130c0.666992 -46 10.5 -78.5 29.5 -97.5s49.167 -28.5 90.5 -28.5s71.5 9.5 90.5 28.5s28.833 51.5 29.5 97.5h130c-0.666992 -79.333 -23.167 -136.666 -67.5 -171.999
s-105.166 -53 -182.499 -53z" />
    <glyph glyph-name="Uring" unicode="&#x16e;" 
d="M350 -10c-93.333 0 -162.5 23.5 -207.5 70.5s-67.5 119.167 -67.5 216.5v523h150v-518c0 -62 9.66699 -105.333 29 -130s51.333 -37 96 -37c45.333 0 77.5 12.333 96.5 37s28.5 68 28.5 130v518h150v-523c0 -97.333 -22.5 -169.5 -67.5 -216.5
s-114.167 -70.5 -207.5 -70.5zM350 880c-55.333 0 -100 12.333 -134 37s-51 62.334 -51 113.001v32c0 52 17 90.5 51 115.5s78.667 37.5 134 37.5c56 0 100.833 -12.5 134.5 -37.5s50.5 -63.5 50.5 -115.5v-32c0 -50.667 -17 -88.334 -51 -113.001s-78.667 -37 -134 -37z
M350 961c25.333 0 44.5 5.33301 57.5 16s19.5 28.334 19.5 53.001v32c0 24.667 -6.5 42.834 -19.5 54.501s-32.167 17.5 -57.5 17.5c-26 0 -45.333 -5.83301 -58 -17.5s-19 -29.834 -19 -54.501v-32c0 -24.667 6.33301 -42.334 19 -53.001s32 -16 58 -16z" />
    <glyph glyph-name="uring" unicode="&#x16f;" 
d="M261 -10c-52 0 -95.167 17.167 -129.5 51.5s-51.5 81.5 -51.5 141.5v417h150v-379c0 -36 7.5 -63 22.5 -81s37.167 -27 66.5 -27c26 0 51.5 8.16699 76.5 24.5s49.833 39.833 74.5 70.5v392h150v-600h-150v105h-30c-16 -38 -41 -66.667 -75 -86s-68.667 -29 -104 -29z
M355 680c-55.333 0 -100 12.333 -134 37s-51 62.334 -51 113.001v32c0 52 17 90.5 51 115.5s78.667 37.5 134 37.5c56 0 100.833 -12.5 134.5 -37.5s50.5 -63.5 50.5 -115.5v-32c0 -50.667 -17 -88.334 -51 -113.001s-78.667 -37 -134 -37zM355 761
c25.333 0 44.5 5.33301 57.5 16s19.5 28.334 19.5 53.001v32c0 24.667 -6.5 42.834 -19.5 54.501s-32.167 17.5 -57.5 17.5c-26 0 -45.333 -5.83301 -58 -17.5s-19 -29.834 -19 -54.501v-32c0 -24.667 6.33301 -42.334 19 -53.001s32 -16 58 -16z" />
    <glyph glyph-name="Uhungarumlaut" unicode="&#x170;" 
d="M350 -10c-93.333 0 -162.5 23.5 -207.5 70.5s-67.5 119.167 -67.5 216.5v523h150v-518c0 -62 9.66699 -105.333 29 -130s51.333 -37 96 -37c45.333 0 77.5 12.333 96.5 37s28.5 68 28.5 130v518h150v-523c0 -97.333 -22.5 -169.5 -67.5 -216.5
s-114.167 -70.5 -207.5 -70.5zM416 900l51 200h165l-130 -200h-86zM186 900l51 200h165l-130 -200h-86z" />
    <glyph glyph-name="uhungarumlaut" unicode="&#x171;" 
d="M261 -10c-52 0 -95.167 17.167 -129.5 51.5s-51.5 81.5 -51.5 141.5v417h150v-379c0 -36 7.5 -63 22.5 -81s37.167 -27 66.5 -27c26 0 51.5 8.16699 76.5 24.5s49.833 39.833 74.5 70.5v392h150v-600h-150v105h-30c-16 -38 -41 -66.667 -75 -86s-68.667 -29 -104 -29z
M411 700l51 200h165l-130 -200h-86zM181 700l51 200h165l-130 -200h-86z" />
    <glyph glyph-name="Uogonek" unicode="&#x172;" 
d="M421 -220c-50 0 -90.165 10.668 -120.498 32.001s-45.5 52 -45.5 92c0 38 14.833 71.167 44.5 99.5s62.167 47.833 97.5 58.5l27 -39c-22.667 -14 -37.334 -28.333 -44.001 -43s-10 -28.334 -10 -41.001c0 -18 6 -31.5 18 -40.5s30.333 -13.5 55 -13.5
c12 0 26.667 1 44 3s33.333 4.33301 48 7v-103c-18 -4 -37.333 -7 -58 -9s-39.334 -3 -56.001 -3zM350.002 -9.99902c-93.333 0 -162.5 23.5 -207.5 70.5s-67.5 119.167 -67.5 216.5v523h150v-518c0 -62 9.66699 -105.333 29 -130s51.333 -37 96 -37
c45.333 0 77.5 12.333 96.5 37s28.5 68 28.5 130v518h150v-523c0 -97.333 -22.5 -169.5 -67.5 -216.5s-114.167 -70.5 -207.5 -70.5z" />
    <glyph glyph-name="uogonek" unicode="&#x173;" 
d="M576 -220c-50 0 -90.165 10.668 -120.498 32.001s-45.5 52 -45.5 92c0 38 14.833 71.167 44.5 99.5s62.167 47.833 97.5 58.5l27 -39c-22.667 -14 -37.334 -28.333 -44.001 -43s-10 -28.334 -10 -41.001c0 -18 6 -31.5 18 -40.5s30.333 -13.5 55 -13.5
c12 0 26.667 1 44 3s33.333 4.33301 48 7v-103c-18 -4 -37.333 -7 -58 -9s-39.334 -3 -56.001 -3zM261.002 -9.99902c-52 0 -95.167 17.167 -129.5 51.5s-51.5 81.5 -51.5 141.5v417h150v-379c0 -36 7.5 -63 22.5 -81s37.167 -27 66.5 -27c26 0 51.5 8.16699 76.5 24.5
s49.833 39.833 74.5 70.5v392h150v-600h-150v105h-30c-16 -38 -41 -66.667 -75 -86s-68.667 -29 -104 -29z" />
    <glyph glyph-name="Wcircumflex" unicode="&#x174;" 
d="M443 0l-92 416l-92 -416h-137l-105 800h134l55 -621l85 421h120l87 -413l54 613h132l-106 -800h-135zM164 894l-50 74l179 154h112l181 -154l-49 -73l-188 110z" />
    <glyph glyph-name="wcircumflex" unicode="&#x175;" 
d="M433 0l-83 337l-79 -337h-144l-103 600h133l61 -456l72 351h116l80 -339l58 444h132l-103 -600h-140zM169 694l-50 74l179 154h112l181 -154l-49 -73l-188 110z" />
    <glyph glyph-name="Ycircumflex" unicode="&#x176;" 
d="M425 0h-150v300l-261 500h156l182 -374l179 374h154l-260 -500v-300zM164 894l-50 74l179 154h112l181 -154l-49 -73l-188 110z" />
    <glyph glyph-name="ycircumflex" unicode="&#x177;" 
d="M184 -209c-19.333 0 -39.501 0.999023 -60.501 2.99902s-42.833 4.66699 -65.5 8l13 115c23.333 -4.66699 44.333 -8.16699 63 -10.5s35.334 -3.5 50.001 -3.5c34 0 61.5 8 82.5 24s37.833 44.667 50.5 86l2 7h-82l-188 580h156l145 -480l150 480h150l-202 -602
c-24.667 -75.333 -57.667 -128.666 -99 -159.999s-96.333 -47 -165 -47zM163.999 693.999l-50 74l179 154h112l181 -154l-49 -73l-188 110z" />
    <glyph glyph-name="Ydieresis" unicode="&#x178;" 
d="M425 0h-150v300l-261 500h156l182 -374l179 374h154l-260 -500v-300zM227 900c-24 0 -43.5 5 -58.5 15s-22.5 27.333 -22.5 52v11c0 25.333 7.5 43.166 22.5 53.499s34.5 15.5 58.5 15.5c24.667 0 44.5 -5.16699 59.5 -15.5s22.5 -28.166 22.5 -53.499v-11
c0 -24.667 -7.66699 -42 -23 -52s-35 -15 -59 -15zM473 900c-24.667 0 -44.502 5 -59.502 15s-22.5 27.333 -22.5 52v11c0 25.333 7.5 43.166 22.5 53.499s34.833 15.5 59.5 15.5s44.334 -5.16699 59.001 -15.5s22 -28.166 22 -53.499v-11c0 -24.667 -7.66699 -42 -23 -52
s-34.666 -15 -57.999 -15z" />
    <glyph glyph-name="Zacute" unicode="&#x179;" 
d="M635 0h-570v120l407 560h-407v120h570v-120l-405 -560h405v-120zM256 900l121 200h200l-210 -200h-111z" />
    <glyph glyph-name="zacute" unicode="&#x17a;" 
d="M605 0h-510v115l346 370h-346v115h510v-115l-344 -370h344v-115zM251 700l121 200h200l-210 -200h-111z" />
    <glyph glyph-name="Zdotaccent" unicode="&#x17b;" 
d="M635 0h-570v120l407 560h-407v120h570v-120l-405 -560h405v-120zM350 900c-32 0 -57.833 5 -77.5 15s-29.5 27.333 -29.5 52v11c0 25.333 9.83301 43.166 29.5 53.499s45.5 15.5 77.5 15.5s57.833 -5.16699 77.5 -15.5s29.5 -28.166 29.5 -53.499v-11
c0 -24.667 -10 -42 -30 -52s-45.667 -15 -77 -15z" />
    <glyph glyph-name="zdotaccent" unicode="&#x17c;" 
d="M605 0h-510v115l346 370h-346v115h510v-115l-344 -370h344v-115zM345 700c-32 0 -57.833 5 -77.5 15s-29.5 27.333 -29.5 52v11c0 25.333 9.83301 43.166 29.5 53.499s45.5 15.5 77.5 15.5s57.833 -5.16699 77.5 -15.5s29.5 -28.166 29.5 -53.499v-11
c0 -24.667 -10 -42 -30 -52s-45.667 -15 -77 -15z" />
    <glyph glyph-name="Zcaron" unicode="&#x17d;" 
d="M635 0h-570v120l407 560h-407v120h570v-120l-405 -560h405v-120zM295 904l-181 154l49 74l188 -111l185 111l50 -74l-179 -154h-112z" />
    <glyph glyph-name="zcaron" unicode="&#x17e;" 
d="M605 0h-510v115l346 370h-346v115h510v-115l-344 -370h344v-115zM295 704l-181 154l49 74l188 -111l185 111l50 -74l-179 -154h-112z" />
    <glyph glyph-name="longs" unicode="&#x17f;" 
d="M275 0l0.000976562 485.001h-120v115h120v36c0 60 20.5 106.5 61.5 139.5s94.5 49.5 160.5 49.5c22 0 45.333 -2.5 70 -7.5s47 -10.833 67 -17.5l-20 -105c-16.667 6 -33.334 10.833 -50.001 14.5s-33 5.5 -49 5.5c-28 0 -50 -6.83301 -66 -20.5s-24 -35.834 -24 -66.501
v-628h-150z" />
    <glyph glyph-name="florin" unicode="&#x192;" 
d="M203 -6c-11.333 0 -23.3301 0.49707 -35.9971 1.49707s-25.667 2.5 -39 4.5s-26.166 4.5 -38.499 7.5s-23.5 6.5 -33.5 10.5l20 106c9.33301 -3.33301 18.666 -6.16602 27.999 -8.49902s18.666 -4.16602 27.999 -5.49902c8.66699 -2 17 -3.33301 25 -4s15.667 -1 23 -1
c16.667 0 31 1.83301 43 5.5s21.667 9.16699 29 16.5c8 8 13.833 18.333 17.5 31s5.5 28.334 5.5 47.001v195h-205v115h205v121c0 28.667 5.16699 54.667 15.5 78s25.166 43.333 44.499 60s42.666 29.334 69.999 38.001s58 13 92 13c11.333 0 23.333 -0.5 36 -1.5
s25.667 -2.5 39 -4.5s26.166 -4.5 38.499 -7.5s23.5 -6.5 33.5 -10.5l-20 -106c-9.33301 3.33301 -18.666 6.33301 -27.999 9s-18.666 4.66699 -27.999 6c-8.66699 2 -17 3.33301 -25 4s-15.667 1 -23 1c-16.667 0 -30.834 -1.83301 -42.501 -5.5s-21.5 -9.5 -29.5 -17.5
s-13.833 -18.333 -17.5 -31s-5.5 -28.334 -5.5 -47.001v-99h210v-115h-210v-216c0 -29.333 -5 -55.666 -15 -78.999s-24.667 -43.333 -44 -60s-42.833 -29.334 -70.5 -38.001s-58.5 -13 -92.5 -13z" />
    <glyph glyph-name="Aringacute" unicode="&#x1fa;" 
d="M443 325l-91 346l-96 -346h187zM529 0l-54 205h-252l-57 -205h-141l238 800h175l238 -800h-147zM351 880c-55.333 0 -100 12.333 -134 37s-51 62.334 -51 113.001v32c0 52 17 90.5 51 115.5s78.667 37.5 134 37.5c56 0 100.833 -12.5 134.5 -37.5s50.5 -63.5 50.5 -115.5
v-32c0 -50.667 -17 -88.334 -51 -113.001s-78.667 -37 -134 -37zM351 961c25.333 0 44.5 5.33301 57.5 16s19.5 28.334 19.5 53.001v32c0 24.667 -6.5 42.834 -19.5 54.501s-32.167 17.5 -57.5 17.5c-26 0 -45.333 -5.83301 -58 -17.5s-19 -29.834 -19 -54.501v-32
c0 -24.667 6.33301 -42.334 19 -53.001s32 -16 58 -16zM291 1200l121 200h200l-210 -200h-111z" />
    <glyph glyph-name="aringacute" unicode="&#x1fb;" 
d="M281 93c28 0 54 4.50098 78 13.501s46 23.167 66 42.5v97h-150c-24.667 0 -44.167 -5.33301 -58.5 -16s-21.5 -31.334 -21.5 -62.001c0 -24 6.66699 -42.5 20 -55.5s35.333 -19.5 66 -19.5zM248 -9.99902c-54.667 0 -100.498 14.666 -137.498 43.999
s-55.5 72.333 -55.5 129c0 54.667 18.667 96.834 56 126.501s85 44.5 143 44.5h171v77c0 30 -9 52 -27 66s-45 21 -81 21c-36.667 0 -64 -6.16699 -82 -18.5s-31.667 -37.5 -41 -75.5l-125 25c13.333 64 39.666 110.167 78.999 138.5s96.666 42.5 171.999 42.5
c78 0 139.167 -15.667 183.5 -47s66.5 -80 66.5 -146v-242c0 -30.667 9 -49.667 27 -57s44 -8.66602 78 -3.99902v-113c-48.667 -10 -90.5 -8.5 -125.5 4.5s-56.833 42.833 -65.5 89.5h-25c-20 -28.667 -48.667 -53.334 -86 -74.001s-79 -31 -125 -31zM330.002 680
c-55.333 0 -100 12.333 -134 37s-51 62.334 -51 113.001v32c0 52 17 90.5 51 115.5s78.667 37.5 134 37.5c56 0 100.833 -12.5 134.5 -37.5s50.5 -63.5 50.5 -115.5v-32c0 -50.667 -17 -88.334 -51 -113.001s-78.667 -37 -134 -37zM330.002 761
c25.333 0 44.5 5.33301 57.5 16s19.5 28.334 19.5 53.001v32c0 24.667 -6.5 42.834 -19.5 54.501s-32.167 17.5 -57.5 17.5c-26 0 -45.333 -5.83301 -58 -17.5s-19 -29.834 -19 -54.501v-32c0 -24.667 6.33301 -42.334 19 -53.001s32 -16 58 -16zM261.002 1000l121 200h200
l-210 -200h-111z" />
    <glyph glyph-name="AEacute" unicode="&#x1fc;" 
d="M303 690l-101 -375h143v375h-42zM345 205h-172l-55 -205h-113l223 800h457v-110h-210v-205h195v-110h-195v-265h210v-110h-340v205zM351 900l121 200h200l-210 -200h-111z" />
    <glyph glyph-name="aeacute" unicode="&#x1fd;" 
d="M675 148c-10.667 -52.667 -30.6611 -92.1641 -59.9941 -118.497s-70 -39.5 -122 -39.5c-34.667 0 -64.834 7.5 -90.501 22.5s-45.5 37.5 -59.5 67.5h-24c-12 -26.667 -29.667 -48.334 -53 -65.001s-52.333 -25 -87 -25c-42 0 -78.167 14.167 -108.5 42.5
s-45.5 70.5 -45.5 126.5c0 57.333 16 100.833 48 130.5s73 44.5 123 44.5h104v72c0 32.667 -5.83301 57 -17.5 73s-29.834 24 -54.501 24c-22 0 -38 -5.83301 -48 -17.5s-20.333 -35.5 -31 -71.5l-110 25c12.667 57.333 33.5 100.166 62.5 128.499s70.167 42.5 123.5 42.5
c29.333 0 55.166 -5.66699 77.499 -17s39.833 -30 52.5 -56c16 24.667 36.167 43 60.5 55s51.166 18 80.499 18c52.667 0 95.667 -17.833 129 -53.5s50 -90.5 50 -164.5v-122h-260v-76c0 -34 5.5 -59.833 16.5 -77.5s28.833 -26.5 53.5 -26.5
c23.333 0 40.666 5.66699 51.999 17s19.666 30.666 24.999 57.999zM415.006 407.003v-54h145v48c0 40 -5.66699 68.667 -17 86s-29.333 26 -54 26c-24 0 -42.333 -8.33301 -55 -25s-19 -43.667 -19 -81zM300.006 139.003v112.001h-72c-24 0 -43 -6 -57 -18
s-21 -33.667 -21 -65c0 -25.333 4.83301 -45 14.5 -59s25.167 -21 46.5 -21c17.333 0 33 4.66699 47 14s28 21.666 42 36.999zM297.006 700.004l121 200h200l-210 -200h-111z" />
    <glyph glyph-name="Oslashacute" unicode="&#x1fe;" 
d="M216 202l191.999 482c-8.66699 2 -17.667 3.5 -27 4.5s-19.666 1.5 -30.999 1.5c-53.333 0 -90.833 -13.333 -112.5 -40s-32.5 -72 -32.5 -136v-232c0 -16.667 0.833008 -31.5 2.5 -44.5s4.5 -24.833 8.5 -35.5zM349.999 110c54 0 91.668 13 113.001 39s32 70.333 32 133
v232c0 20.667 -1.33301 38.667 -4 54s-7 28.333 -13 39l-195 -487c9.33301 -3.33301 19.666 -5.83301 30.999 -7.5s23.333 -2.5 36 -2.5zM350 -10c-18.667 0 -36.833 1.16602 -54.5 3.49902s-33.834 5.83301 -48.501 10.5l-42 -104h-120l62 155
c-26.667 24 -47 54.333 -61 91s-21 78.667 -21 126v252c0 91.333 24.333 161.833 73 211.5s119.667 74.5 213 74.5c16.667 0 33 -0.833008 49 -2.5s31 -4.16699 45 -7.5l40 100h120l-59 -148c29.333 -24 51.5 -55.167 66.5 -93.5s22.5 -83.166 22.5 -134.499v-252
c0 -90 -24.167 -159.5 -72.5 -208.5s-119.166 -73.5 -212.499 -73.5zM261.001 899.999l121 200h200l-210 -200h-111z" />
    <glyph glyph-name="oslashacute" unicode="&#x1ff;" 
d="M215 225c0 -16.667 1.50098 -31.668 4.50098 -45.001s7.5 -24.666 13.5 -33.999l174 348c-8 2 -16.833 3.5 -26.5 4.5s-19.834 1.5 -30.501 1.5c-48 0 -82.5 -10.333 -103.5 -31s-31.5 -51.667 -31.5 -93v-151zM350.001 99.999c48 0 82.499 9.83301 103.499 29.5
s31.5 51.5 31.5 95.5v152c0 16 -1.5 30.5 -4.5 43.5s-7.5 24.167 -13.5 33.5l-174 -348c8 -2 16.833 -3.5 26.5 -4.5s19.834 -1.5 30.501 -1.5zM350 -10.001c-16 0 -32.167 0.834961 -48.5 2.50195s-31.833 4.5 -46.5 8.5l-50 -101h-110l69 138
c-28 18.667 -49.833 43.5 -65.5 74.5s-23.5 65.833 -23.5 104.5v162c0 75.333 25 132.666 75 171.999s117 59 201 59c16 0 32 -0.833008 48 -2.5s31.333 -4.16699 46 -7.5l50 100h110l-69 -138c28 -18.667 49.833 -43.834 65.5 -75.501s23.5 -67.5 23.5 -107.5v-162
c0 -73.333 -24.833 -129.5 -74.5 -168.5s-116.5 -58.5 -200.5 -58.5zM251 700.001l121 200h200l-210 -200h-111z" />
    <glyph glyph-name="Scommaaccent" unicode="&#x218;" 
d="M352 -8c-62 0 -118.164 8.83203 -168.497 26.499s-95.5 44.834 -135.5 81.501l58 109c34 -30.667 71 -54.5 111 -71.5s86 -25.5 138 -25.5c44 0 78 9.5 102 28.5s36 44.5 36 76.5c0 34 -12 59 -36 75s-68.667 32.667 -134 50c-94 24 -159.167 53.167 -195.5 87.5
s-54.5 83.5 -54.5 147.5c0 69.333 23.5 125 70.5 167s112.167 63 195.5 63c52 0 102.833 -9.16699 152.5 -27.5s91.167 -44.166 124.5 -77.499l-52 -105c-33.333 28.667 -69 50.667 -107 66s-77 23 -117 23c-36.667 0 -65.334 -7.33301 -86.001 -22s-31 -38.334 -31 -71.001
c0 -30 11.667 -53.667 35 -71s70.666 -35 141.999 -53c91.333 -22.667 154.666 -51.5 189.999 -86.5s53 -85.5 53 -151.5c0 -76.667 -27.5 -135.667 -82.5 -177s-124.5 -62 -208.5 -62zM181.003 -300.001l81 200h200l-170 -200h-111z" />
    <glyph glyph-name="scommaaccent" unicode="&#x219;" 
d="M355 -8c-52 0 -102.834 7.16211 -152.501 21.4951s-93.834 35.5 -132.501 63.5l45 99c36 -25.333 75.5 -44.666 118.5 -57.999s84.167 -20 123.5 -20c32.667 0 59.834 4.83301 81.501 14.5s32.5 27.834 32.5 54.501c0 24.667 -10 42.334 -30 53.001
s-55.667 19.334 -107 26.001c-79.333 8.66699 -139.833 25.5 -181.5 50.5s-62.5 66.167 -62.5 123.5c0 60 23.167 106.667 69.5 140s104.833 50 175.5 50c44 0 88.333 -7 133 -21s85.334 -33.333 122.001 -58l-40 -95c-34 22 -69 38.833 -105 50.5s-71.333 17.5 -106 17.5
c-28.667 0 -52.5 -5.16699 -71.5 -15.5s-28.5 -27.833 -28.5 -52.5s11.167 -42 33.5 -52s61.5 -18.333 117.5 -25c77.333 -9.33301 135 -28.166 173 -56.499s57 -68.5 57 -120.5c0 -62 -24.833 -109.167 -74.5 -141.5s-113.167 -48.5 -190.5 -48.5zM185.999 -300.005l81 200
h200l-170 -200h-111z" />
    <glyph glyph-name="Tcommaaccent" unicode="&#x21a;" 
d="M275 0v680h-235v120h620v-120h-235v-680h-150zM186 -300l81 200h200l-170 -200h-111z" />
    <glyph glyph-name="tcommaaccent" unicode="&#x21b;" 
d="M455 -10c-74.667 0 -132.5 17.668 -173.5 53.001s-61.5 87.333 -61.5 156v286h-155v115h155v200h150v-200h240v-115h-240v-267c0 -38 9 -65.833 27 -83.5s43.333 -26.5 76 -26.5c20.667 0 41.667 1.5 63 4.5s42.333 8.16699 63 15.5l20 -114
c-18 -6.66699 -41.167 -12.334 -69.5 -17.001s-59.833 -7 -94.5 -7zM216 -299.999l81 200h200l-170 -200h-111z" />
    <glyph glyph-name="dotlessj" unicode="&#xf6be;" 
d="M248 -209c-28.667 0 -57.1689 1.5 -85.502 4.5s-57.166 8.83301 -86.499 17.5l20 111c26 -8.66699 50.333 -14.167 73 -16.5s44.334 -3.5 65.001 -3.5c42 0 75.167 8.33301 99.5 25s36.5 44 36.5 82v474h-264v115h414v-604c0 -66.667 -25 -117.5 -75 -152.5
s-115.667 -52.5 -197 -52.5z" />
    <glyph glyph-name="dotlessj" unicode="&#x237;" 
d="M248 -209c-28.667 0 -57.1689 1.5 -85.502 4.5s-57.166 8.83301 -86.499 17.5l20 111c26 -8.66699 50.333 -14.167 73 -16.5s44.334 -3.5 65.001 -3.5c42 0 75.167 8.33301 99.5 25s36.5 44 36.5 82v474h-264v115h414v-604c0 -66.667 -25 -117.5 -75 -152.5
s-115.667 -52.5 -197 -52.5z" />
    <glyph glyph-name="quoteleft" unicode="&#x2018;" 
d="M180 375l238 425h106l-103 -425h-241z" />
    <glyph glyph-name="quoteleft" unicode="&#x2bb;" 
d="M180 375l238 425h106l-103 -425h-241z" />
    <glyph glyph-name="circumflex" unicode="&#x2c6;" 
d="M164 694l-50 74l179 154h112l181 -154l-49 -73l-188 110z" />
    <glyph glyph-name="caron" unicode="&#x2c7;" 
d="M295 704l-181 154l49 74l188 -111l185 111l50 -74l-179 -154h-112z" />
    <glyph glyph-name="breve" unicode="&#x2d8;" 
d="M350 693c-77.333 0 -138.168 17.667 -182.501 53s-66.833 92.666 -67.5 171.999h130c0.666992 -46 10.5 -78.5 29.5 -97.5s49.167 -28.5 90.5 -28.5s71.5 9.5 90.5 28.5s28.833 51.5 29.5 97.5h130c-0.666992 -79.333 -23.167 -136.666 -67.5 -171.999
s-105.166 -53 -182.499 -53z" />
    <glyph glyph-name="dotaccent" unicode="&#x2d9;" 
d="M350 700c-32 0 -57.833 5 -77.5 15s-29.5 27.333 -29.5 52v11c0 25.333 9.83301 43.166 29.5 53.499s45.5 15.5 77.5 15.5s57.833 -5.16699 77.5 -15.5s29.5 -28.166 29.5 -53.499v-11c0 -24.667 -10 -42 -30 -52s-45.667 -15 -77 -15z" />
    <glyph glyph-name="ring" unicode="&#x2da;" 
d="M350 680c-55.333 0 -100 12.333 -134 37s-51 62.334 -51 113.001v32c0 52 17 90.5 51 115.5s78.667 37.5 134 37.5c56 0 100.833 -12.5 134.5 -37.5s50.5 -63.5 50.5 -115.5v-32c0 -50.667 -17 -88.334 -51 -113.001s-78.667 -37 -134 -37zM350 761
c25.333 0 44.5 5.33301 57.5 16s19.5 28.334 19.5 53.001v32c0 24.667 -6.5 42.834 -19.5 54.501s-32.167 17.5 -57.5 17.5c-26 0 -45.333 -5.83301 -58 -17.5s-19 -29.834 -19 -54.501v-32c0 -24.667 6.33301 -42.334 19 -53.001s32 -16 58 -16z" />
    <glyph glyph-name="ogonek" unicode="&#x2db;" 
d="M386 -220c-50 0 -90.165 10.668 -120.498 32.001s-45.5 52 -45.5 92c0 38 14.833 71.167 44.5 99.5s62.167 47.833 97.5 58.5l27 -39c-22.667 -14 -37.334 -28.333 -44.001 -43s-10 -28.334 -10 -41.001c0 -18 6 -31.5 18 -40.5s30.333 -13.5 55 -13.5
c12 0 26.667 1 44 3s33.333 4.33301 48 7v-103c-18 -4 -37.333 -7 -58 -9s-39.334 -3 -56.001 -3z" />
    <glyph glyph-name="tilde" unicode="&#x2dc;" 
d="M438 710c-28 0 -50.166 5.66699 -66.499 17s-30.5 23.333 -42.5 36l-31.5 35.5c-9.66699 11 -20.834 16.5 -33.501 16.5c-11.333 0 -21.5 -5.5 -30.5 -16.5s-13.167 -33.833 -12.5 -68.5v-10h-102v15c0 52.667 12.5 96.667 37.5 132s60.5 53 106.5 53
c28.667 0 51.5 -5.5 68.5 -16.5s31.167 -22.833 42.5 -35.5l31 -36c9.33301 -11.333 19.666 -17 30.999 -17c12 0 22.5 5.5 31.5 16.5s13.167 33.833 12.5 68.5v10h102v-15c0 -52.667 -12.667 -96.667 -38 -132s-60.666 -53 -105.999 -53z" />
    <glyph glyph-name="hungarumlaut" unicode="&#x2dd;" 
d="M406 700l51 200h165l-130 -200h-86zM176 700l51 200h165l-130 -200h-86z" />
    <glyph glyph-name="gravecmb" unicode="&#x300;" horiz-adv-x="0" 
d="M-9 700l-210 200h200l121 -200h-111z" />
    <glyph glyph-name="acutecmb" unicode="&#x301;" horiz-adv-x="0" 
d="M-124 700l121 200h200l-210 -200h-111z" />
    <glyph glyph-name="circumflexcmb" unicode="&#x302;" horiz-adv-x="0" 
d="M-186 694l-50 74l179 154h112l181 -154l-49 -73l-188 110z" />
    <glyph glyph-name="tildecmb" unicode="&#x303;" horiz-adv-x="0" 
d="M88 710c-28 0 -50.166 5.66699 -66.499 17s-30.5 23.333 -42.5 36l-31.5 35.5c-9.66699 11 -20.834 16.5 -33.501 16.5c-11.333 0 -21.5 -5.5 -30.5 -16.5s-13.167 -33.833 -12.5 -68.5v-10h-102v15c0 52.667 12.5 96.667 37.5 132s60.5 53 106.5 53
c28.667 0 51.5 -5.5 68.5 -16.5s31.167 -22.833 42.5 -35.5l31 -36c9.33301 -11.333 19.666 -17 30.999 -17c12 0 22.5 5.5 31.5 16.5s13.167 33.833 12.5 68.5v10h102v-15c0 -52.667 -12.667 -96.667 -38 -132s-60.666 -53 -105.999 -53z" />
    <glyph glyph-name="macroncmb" unicode="&#x304;" horiz-adv-x="0" 
d="M-213 740v120h426v-120h-426z" />
    <glyph glyph-name="brevecmb" unicode="&#x306;" horiz-adv-x="0" 
d="M0 693c-77.333 0 -138.168 17.667 -182.501 53s-66.833 92.666 -67.5 171.999h130c0.666992 -46 10.5 -78.5 29.5 -97.5s49.167 -28.5 90.5 -28.5s71.5 9.5 90.5 28.5s28.833 51.5 29.5 97.5h130c-0.666992 -79.333 -23.167 -136.666 -67.5 -171.999
s-105.166 -53 -182.499 -53z" />
    <glyph glyph-name="dotaccentcmb" unicode="&#x307;" horiz-adv-x="0" 
d="M0 700c-32 0 -57.833 5 -77.5 15s-29.5 27.333 -29.5 52v11c0 25.333 9.83301 43.166 29.5 53.499s45.5 15.5 77.5 15.5s57.833 -5.16699 77.5 -15.5s29.5 -28.166 29.5 -53.499v-11c0 -24.667 -10 -42 -30 -52s-45.667 -15 -77 -15z" />
    <glyph glyph-name="dieresiscmb" unicode="&#x308;" horiz-adv-x="0" 
d="M-123 700c-24 0 -43.5 5 -58.5 15s-22.5 27.333 -22.5 52v11c0 25.333 7.5 43.166 22.5 53.499s34.5 15.5 58.5 15.5c24.667 0 44.5 -5.16699 59.5 -15.5s22.5 -28.166 22.5 -53.499v-11c0 -24.667 -7.66699 -42 -23 -52s-35 -15 -59 -15zM123 700
c-24.667 0 -44.502 5 -59.502 15s-22.5 27.333 -22.5 52v11c0 25.333 7.5 43.166 22.5 53.499s34.833 15.5 59.5 15.5s44.334 -5.16699 59.001 -15.5s22 -28.166 22 -53.499v-11c0 -24.667 -7.66699 -42 -23 -52s-34.666 -15 -57.999 -15z" />
    <glyph glyph-name="ringcmb" unicode="&#x30a;" horiz-adv-x="0" 
d="M0 680c-55.333 0 -100 12.333 -134 37s-51 62.334 -51 113.001v32c0 52 17 90.5 51 115.5s78.667 37.5 134 37.5c56 0 100.833 -12.5 134.5 -37.5s50.5 -63.5 50.5 -115.5v-32c0 -50.667 -17 -88.334 -51 -113.001s-78.667 -37 -134 -37zM0 761
c25.333 0 44.5 5.33301 57.5 16s19.5 28.334 19.5 53.001v32c0 24.667 -6.5 42.834 -19.5 54.501s-32.167 17.5 -57.5 17.5c-26 0 -45.333 -5.83301 -58 -17.5s-19 -29.834 -19 -54.501v-32c0 -24.667 6.33301 -42.334 19 -53.001s32 -16 58 -16z" />
    <glyph glyph-name="hungarumlautcmb" unicode="&#x30b;" horiz-adv-x="0" 
d="M56 700l51 200h165l-130 -200h-86zM-174 700l51 200h165l-130 -200h-86z" />
    <glyph glyph-name="caroncmb" unicode="&#x30c;" horiz-adv-x="0" 
d="M-55 704l-181 154l49 74l188 -111l185 111l50 -74l-179 -154h-112z" />
    <glyph glyph-name="commaturnedabovecmb" unicode="&#x312;" horiz-adv-x="0" 
d="M-144 700l170 200h111l-81 -200h-200z" />
    <glyph glyph-name="commaaccentcmb" unicode="&#x326;" horiz-adv-x="0" 
d="M-149 -300l81 200h200l-170 -200h-111z" />
    <glyph glyph-name="cedillacmb" unicode="&#x327;" horiz-adv-x="0" 
d="M-30 0l20 41.998c43.333 -5.33301 80.666 -17.666 111.999 -36.999s47 -51 47 -95c0 -46 -18.667 -79.333 -56 -100s-79 -31 -125 -31c-54 0 -98.167 9.16699 -132.5 27.5s-52.833 49.5 -55.5 93.5l128 10c1.33301 -12.667 5.83301 -21.5 13.5 -26.5
s20.834 -7.5 39.501 -7.5s33 3.83301 43 11.5s15 22.834 15 45.501c0 20 -3.5 34.833 -10.5 44.5s-19.833 17.167 -38.5 22.5z" />
    <glyph glyph-name="ogonekcmb" unicode="&#x328;" horiz-adv-x="0" 
d="M36 -220c-50 0 -90.165 10.668 -120.498 32.001s-45.5 52 -45.5 92c0 38 14.833 71.167 44.5 99.5s62.167 47.833 97.5 58.5l27 -39c-22.667 -14 -37.334 -28.333 -44.001 -43s-10 -28.334 -10 -41.001c0 -18 6 -31.5 18 -40.5s30.333 -13.5 55 -13.5c12 0 26.667 1 44 3
s33.333 4.33301 48 7v-103c-18 -4 -37.333 -7 -58 -9s-39.334 -3 -56.001 -3z" />
    <glyph glyph-name="tonos" unicode="&#x384;" 
d="M266 700l61 200h190l-150 -200h-101z" />
    <glyph glyph-name="dieresistonos" unicode="&#x385;" 
d="M273 700l46 200h146l-105 -200h-87zM150 695c-21.333 0 -38.666 5 -51.999 15s-20 27.333 -20 52v11c0 25.333 6.66699 43.166 20 53.499s30.666 15.5 51.999 15.5s38.5 -5.16699 51.5 -15.5s19.5 -28.166 19.5 -53.499v-11c0 -24.667 -6.66699 -42 -20 -52
s-30.333 -15 -51 -15zM550 695c-20.667 0 -37.665 5 -50.998 15s-20 27.333 -20 52v11c0 25.333 6.66699 43.166 20 53.499s30.333 15.5 51 15.5c21.333 0 38.666 -5.16699 51.999 -15.5s20 -28.166 20 -53.499v-11c0 -24.667 -6.83301 -42 -20.5 -52
s-30.834 -15 -51.501 -15z" />
    <glyph glyph-name="Alphatonos" unicode="&#x386;" 
d="M443 325l-91 346l-96 -346h187zM529 0l-54 205h-252l-57 -205h-141l238 800h175l238 -800h-147zM-3 700l61 200h190l-150 -200h-101z" />
    <glyph glyph-name="anoteleia" unicode="&#x387;" 
d="M351 268c-39.333 0 -71 8.66699 -95 26s-36 42.666 -36 75.999v58c0 34 12 59.833 36 77.5s55.667 26.5 95 26.5s70.833 -8.83301 94.5 -26.5s35.5 -43.5 35.5 -77.5v-58c0 -33.333 -12.167 -58.666 -36.5 -75.999s-55.5 -26 -93.5 -26z" />
    <glyph glyph-name="Epsilontonos" unicode="&#x388;" 
d="M75 0v800h560v-120h-410v-190h360v-120h-360v-250h410v-120h-560zM-148 700l61 200h190l-150 -200h-101z" />
    <glyph glyph-name="Etatonos" unicode="&#x389;" 
d="M75 0v800h150v-300h250v300h150v-800h-150v380h-250v-380h-150zM-163 700l61 200h190l-150 -200h-101z" />
    <glyph glyph-name="Iotatonos" unicode="&#x38a;" 
d="M75 0v120h200v560h-200v120h550v-120h-200v-560h200v-120h-550zM-163 700l61 200h190l-150 -200h-101z" />
    <glyph glyph-name="Omicrontonos" unicode="&#x38c;" 
d="M353 -10c-93.333 0 -164.168 23.5 -212.501 70.5s-72.5 114.167 -72.5 201.5v272c0 88 24.333 156 73 204s119.667 72 213 72s164 -24 212 -72s72 -116 72 -204v-272c0 -87.333 -24.167 -154.5 -72.5 -201.5s-119.166 -70.5 -212.499 -70.5zM352.998 110
c48.667 0 83.334 12.333 104.001 37s31 66.334 31 125.001v252c0 60 -10.333 102.667 -31 128s-55.334 38 -104.001 38c-48 0 -82.5 -12.667 -103.5 -38s-31.5 -68 -31.5 -128v-252c0 -58.667 10.5 -100.334 31.5 -125.001s55.5 -37 103.5 -37zM-60.002 700l61 200h190
l-150 -200h-101z" />
    <glyph glyph-name="Upsilontonos" unicode="&#x38e;" 
d="M425 0h-150v300l-261 500h156l182 -374l179 374h154l-260 -500v-300zM-178 700l61 200h190l-150 -200h-101z" />
    <glyph glyph-name="Omegatonos" unicode="&#x38f;" 
d="M310 0h-255.001v105h120v90c-40.667 16.667 -70.834 44.167 -90.501 82.5s-29.5 82.833 -29.5 133.5v113c0 93.333 25.167 164.333 75.5 213s123.5 73 219.5 73c96.667 0 170 -24.333 220 -73s75 -119.667 75 -213v-113c0 -50.667 -9.66699 -95.167 -29 -133.5
s-49.666 -65.833 -90.999 -82.5v-90h120v-105h-255v230c38.667 8.66699 65.834 28.5 81.501 59.5s23.5 71.5 23.5 121.5v118c0 58.667 -11.667 100.167 -35 124.5s-60 36.5 -110 36.5s-86.667 -12.167 -110 -36.5s-35 -65.833 -35 -124.5v-118c0 -50 8 -90.5 24 -121.5
s43 -50.833 81 -59.5v-230zM-93.001 700l61 200h190l-150 -200h-101z" />
    <glyph glyph-name="iotadieresistonos" unicode="&#x390;" 
d="M491 -7c-69.333 0 -124.333 18.668 -165 56.001s-61 86.666 -61 147.999v288h-190v115h340v-384c0 -34.667 8.16699 -60.5 24.5 -77.5s39.833 -25.5 70.5 -25.5c17.333 0 35 2 53 6s33.333 8.66699 46 14l25 -112c-22.667 -8.66699 -46.167 -15.5 -70.5 -20.5
s-48.5 -7.5 -72.5 -7.5zM263 700.001l46 200h146l-105 -200h-87zM140 695.001c-21.333 0 -38.666 5 -51.999 15s-20 27.333 -20 52v11c0 25.333 6.66699 43.166 20 53.499s30.666 15.5 51.999 15.5s38.5 -5.16699 51.5 -15.5s19.5 -28.166 19.5 -53.499v-11
c0 -24.667 -6.66699 -42 -20 -52s-30.333 -15 -51 -15zM540 695.001c-20.667 0 -37.665 5 -50.998 15s-20 27.333 -20 52v11c0 25.333 6.66699 43.166 20 53.499s30.333 15.5 51 15.5c21.333 0 38.666 -5.16699 51.999 -15.5s20 -28.166 20 -53.499v-11
c0 -24.667 -6.83301 -42 -20.5 -52s-30.834 -15 -51.501 -15z" />
    <glyph glyph-name="Alpha" unicode="&#x391;" 
d="M443 325l-91 346l-96 -346h187zM529 0l-54 205h-252l-57 -205h-141l238 800h175l238 -800h-147z" />
    <glyph glyph-name="Beta" unicode="&#x392;" 
d="M75 0l-0.000976562 800.001h281c86.667 0 150.667 -15.333 192 -46s62 -78 62 -142v-39c0 -38.667 -9.5 -69.167 -28.5 -91.5s-47.5 -36.833 -85.5 -43.5v-29c44 -4 78.5 -19.833 103.5 -47.5s37.5 -62.834 37.5 -105.501v-48c0 -70.667 -22.667 -123 -68 -157
s-115.666 -51 -210.999 -51h-283zM224.999 470.001h126c39.333 0 67.666 7 84.999 21s26 36.667 26 68v38c0 31.333 -8.66699 53.833 -26 67.5s-45.666 20.5 -84.999 20.5h-126v-215zM224.999 115.001h134c46 0 78.833 8 98.5 24s29.5 42.333 29.5 79v42
c0 36 -9.83301 62 -29.5 78s-52.5 24 -98.5 24h-134v-247z" />
    <glyph glyph-name="Gamma" unicode="&#x393;" 
d="M100 0v800h545v-120h-395v-680h-150z" />
    <glyph glyph-name="Delta" unicode="&#x394;" 
d="M35 0v120l218 680h195l217 -680v-120h-630zM520 120l-170 567l-175 -567h345z" />
    <glyph glyph-name="Epsilon" unicode="&#x395;" 
d="M75 0v800h560v-120h-410v-190h360v-120h-360v-250h410v-120h-560z" />
    <glyph glyph-name="Zeta" unicode="&#x396;" 
d="M635 0h-570v120l407 560h-407v120h570v-120l-405 -560h405v-120z" />
    <glyph glyph-name="Eta" unicode="&#x397;" 
d="M75 0v800h150v-300h250v300h150v-800h-150v380h-250v-380h-150z" />
    <glyph glyph-name="Theta" unicode="&#x398;" 
d="M350 -10c-97.333 0 -171.668 24.167 -223.001 72.5s-77 118.166 -77 209.499v252c0 92.667 25.833 163.5 77.5 212.5s126.167 73.5 223.5 73.5s171.5 -24.5 222.5 -73.5s76.5 -119.833 76.5 -212.5v-252c0 -91.333 -25.667 -161.166 -77 -209.499
s-125.666 -72.5 -222.999 -72.5zM349.998 110c58 0 100 13.167 126 39.5s39 70.5 39 132.5v232c0 63.333 -13 108.5 -39 135.5s-68 40.5 -126 40.5s-100 -13.5 -126 -40.5s-39 -72.167 -39 -135.5v-232c0 -62 13 -106.167 39 -132.5s68 -39.5 126 -39.5zM259.998 350v110
h180v-110h-180z" />
    <glyph glyph-name="Iota" unicode="&#x399;" 
d="M75 0v120h200v560h-200v120h550v-120h-200v-560h200v-120h-550z" />
    <glyph glyph-name="Kappa" unicode="&#x39a;" 
d="M225 358v-358h-150v800h150v-322h37l250 322h160l-293 -369l290 -431h-161l-243 358h-40z" />
    <glyph glyph-name="Lambda" unicode="&#x39b;" 
d="M529 0l-177 671l-186 -671h-141l238 800h175l238 -800h-147z" />
    <glyph glyph-name="Mu" unicode="&#x39c;" 
d="M295 225l-118 349l11 -574h-133v800h160l139 -424l136 424h155v-800h-132l10 571l-117 -346h-111z" />
    <glyph glyph-name="Nu" unicode="&#x39d;" 
d="M437 0l-232 601v-601h-130v800h177l243 -628v628h130v-800h-188z" />
    <glyph glyph-name="Xi" unicode="&#x39e;" 
d="M65 680v120h570v-120h-570zM90 370v120h520v-120h-520zM65 0v120h570v-120h-570z" />
    <glyph glyph-name="Omicron" unicode="&#x39f;" 
d="M350 -10c-93.333 0 -164.168 23.5 -212.501 70.5s-72.5 114.167 -72.5 201.5v272c0 88 24.333 156 73 204s119.667 72 213 72s164 -24 212 -72s72 -116 72 -204v-272c0 -87.333 -24.167 -154.5 -72.5 -201.5s-119.166 -70.5 -212.499 -70.5zM349.998 110
c48.667 0 83.334 12.333 104.001 37s31 66.334 31 125.001v252c0 60 -10.333 102.667 -31 128s-55.334 38 -104.001 38c-48 0 -82.5 -12.667 -103.5 -38s-31.5 -68 -31.5 -128v-252c0 -58.667 10.5 -100.334 31.5 -125.001s55.5 -37 103.5 -37z" />
    <glyph glyph-name="Pi" unicode="&#x3a0;" 
d="M75 0v800h550v-800h-150v680h-250v-680h-150z" />
    <glyph glyph-name="Rho" unicode="&#x3a1;" 
d="M75 0v800h297c86 0 152.167 -17.833 198.5 -53.5s69.5 -91.167 69.5 -166.5v-104c0 -73.333 -23 -127.5 -69 -162.5s-112.333 -52.5 -199 -52.5h-147v-261h-150zM225 379l140 -0.000976562c44 0 75.833 7.66699 95.5 23s29.5 43 29.5 83v87
c0 40.667 -9.83301 68.834 -29.5 84.501s-51.5 23.5 -95.5 23.5h-140v-301z" />
    <glyph glyph-name="Sigma" unicode="&#x3a3;" 
d="M620 0h-550v120l326 291l-326 269v120h550v-120h-383l263 -215v-98l-275 -247h395v-120z" />
    <glyph glyph-name="Tau" unicode="&#x3a4;" 
d="M275 0v680h-235v120h620v-120h-235v-680h-150z" />
    <glyph glyph-name="Upsilon" unicode="&#x3a5;" 
d="M425 0h-150v300l-261 500h156l182 -374l179 374h154l-260 -500v-300z" />
    <glyph glyph-name="Phi" unicode="&#x3a6;" 
d="M435 90h-20v-100h-130v100h-19c-74 0 -129.5 24 -166.5 72s-55.5 113 -55.5 195v82c0 83.333 18.667 149.333 56 198s93 73 167 73h18v100h130v-100h20c73.333 0 128.666 -24.333 165.999 -73s56 -114.667 56 -198v-82c0 -82 -18.667 -147 -56 -195
s-92.666 -72 -165.999 -72zM440 595h-30v-390h30c30.667 0 52.5 12.333 65.5 37s19.5 63 19.5 115v82c0 52 -6.5 91 -19.5 117s-34.833 39 -65.5 39zM264 205h26v390h-26c-33.333 0 -56.5 -13 -69.5 -39s-19.5 -65 -19.5 -117v-82c0 -52 6.5 -90.333 19.5 -115
s36.167 -37 69.5 -37z" />
    <glyph glyph-name="Chi" unicode="&#x3a7;" 
d="M522 0l-174 289l-172 -289h-154l257 410l-232 390h160l159 -266l160 266h153l-244 -389l241 -411h-154z" />
    <glyph glyph-name="Psi" unicode="&#x3a8;" 
d="M415 0h-130v190c-75.333 10 -131.833 38.167 -169.5 84.5s-56.5 107.166 -56.5 182.499v343h129v-338c0 -46.667 7.66699 -82.167 23 -106.5s40 -39.166 74 -44.499v489h130v-489c34 5.33301 58.833 20.166 74.5 44.499s23.5 59.833 23.5 106.5v338h128v-343
c0 -75.333 -18.833 -136.166 -56.5 -182.499s-94.167 -74.5 -169.5 -84.5v-190z" />
    <glyph glyph-name="Omega" unicode="&#x3a9;" 
d="M310 0h-255.001v105h120v90c-40.667 16.667 -70.834 44.167 -90.501 82.5s-29.5 82.833 -29.5 133.5v113c0 93.333 25.167 164.333 75.5 213s123.5 73 219.5 73c96.667 0 170 -24.333 220 -73s75 -119.667 75 -213v-113c0 -50.667 -9.66699 -95.167 -29 -133.5
s-49.666 -65.833 -90.999 -82.5v-90h120v-105h-255v230c38.667 8.66699 65.834 28.5 81.501 59.5s23.5 71.5 23.5 121.5v118c0 58.667 -11.667 100.167 -35 124.5s-60 36.5 -110 36.5s-86.667 -12.167 -110 -36.5s-35 -65.833 -35 -124.5v-118c0 -50 8 -90.5 24 -121.5
s43 -50.833 81 -59.5v-230z" />
    <glyph glyph-name="Iotadieresis" unicode="&#x3aa;" 
d="M75 0v120h200v560h-200v120h550v-120h-200v-560h200v-120h-550zM227 900c-24 0 -43.5 5 -58.5 15s-22.5 27.333 -22.5 52v11c0 25.333 7.5 43.166 22.5 53.499s34.5 15.5 58.5 15.5c24.667 0 44.5 -5.16699 59.5 -15.5s22.5 -28.166 22.5 -53.499v-11
c0 -24.667 -7.66699 -42 -23 -52s-35 -15 -59 -15zM473 900c-24.667 0 -44.502 5 -59.502 15s-22.5 27.333 -22.5 52v11c0 25.333 7.5 43.166 22.5 53.499s34.833 15.5 59.5 15.5s44.334 -5.16699 59.001 -15.5s22 -28.166 22 -53.499v-11c0 -24.667 -7.66699 -42 -23 -52
s-34.666 -15 -57.999 -15z" />
    <glyph glyph-name="Upsilondieresis" unicode="&#x3ab;" 
d="M425 0h-150v300l-261 500h156l182 -374l179 374h154l-260 -500v-300zM227 900c-24 0 -43.5 5 -58.5 15s-22.5 27.333 -22.5 52v11c0 25.333 7.5 43.166 22.5 53.499s34.5 15.5 58.5 15.5c24.667 0 44.5 -5.16699 59.5 -15.5s22.5 -28.166 22.5 -53.499v-11
c0 -24.667 -7.66699 -42 -23 -52s-35 -15 -59 -15zM473 900c-24.667 0 -44.502 5 -59.502 15s-22.5 27.333 -22.5 52v11c0 25.333 7.5 43.166 22.5 53.499s34.833 15.5 59.5 15.5s44.334 -5.16699 59.001 -15.5s22 -28.166 22 -53.499v-11c0 -24.667 -7.66699 -42 -23 -52
s-34.666 -15 -57.999 -15z" />
    <glyph glyph-name="alphatonos" unicode="&#x3ac;" 
d="M310 113c23.333 0 45.001 6.66699 65.001 20s40 32.666 60 57.999v220c-20.667 24.667 -40.834 43.834 -60.501 57.501s-41.834 20.5 -66.501 20.5c-26 0 -46.167 -9.66699 -60.5 -29s-21.5 -48.333 -21.5 -87v-148c0 -38.667 7.33301 -67 22 -85s35.334 -27 62.001 -27z
M480.001 121l-29.998 -0.000976562c-18.667 -42 -44.5 -74.333 -77.5 -97s-71.5 -34 -115.5 -34c-55.333 0 -99.5 19 -132.5 57s-49.5 90.667 -49.5 158v181c0 68 16 122.5 48 163.5s73.333 61.5 124 61.5c36 0 67.167 -9.66699 93.5 -29s47.833 -48 64.5 -86h30v104h150
v-415c0 -33.333 6.66699 -54.666 20 -63.999s35 -11.666 65 -6.99902v-113c-54.667 -10.667 -97.834 -6.83398 -129.501 11.499s-51.834 54.5 -60.501 108.5zM326.003 699.999l61 200h190l-150 -200h-101z" />
    <glyph glyph-name="epsilontonos" unicode="&#x3ad;" 
d="M359 -10c-98 0 -170.501 14 -217.501 42s-70.5 71 -70.5 129v15c0 32.667 13 61 39 85s65 37.667 117 41v22c-42.667 2.66699 -76.334 13.167 -101.001 31.5s-37 43.833 -37 76.5v19c0 56 23.167 96.5 69.5 121.5s113.166 37.5 200.499 37.5
c84 0 147.333 -15.167 190 -45.5s66.667 -78.5 72 -144.5l-139 -8c-4 34 -15 58.5 -33 73.5s-48 22.5 -90 22.5c-44 0 -75 -5.16699 -93 -15.5s-27 -27.5 -27 -51.5v-14c0 -24.667 9 -41.667 27 -51s48 -14 90 -14h56v-90h-56c-53.333 0 -89.166 -6.5 -107.499 -19.5
s-27.5 -33.5 -27.5 -61.5v-10c0 -28.667 9.83301 -49.834 29.5 -63.501s55.834 -20.5 108.501 -20.5s88.167 8.33301 106.5 25s29.833 42.334 34.5 77.001l139 -7c-5.33301 -67.333 -28.666 -117.833 -69.999 -151.5s-111.333 -50.5 -210 -50.5zM275.999 700l61 200h190
l-150 -200h-101z" />
    <glyph glyph-name="etatonos" unicode="&#x3ae;" 
d="M470 -200l0.000976562 599c0 29.333 -7.5 51.5 -22.5 66.5s-36.833 22.5 -65.5 22.5c-26 0 -52 -7.16699 -78 -21.5s-50.667 -35.833 -74 -64.5v-402h-150v600h150v-105h30c15.333 36 39.833 64.167 73.5 84.5s72.167 30.5 115.5 30.5
c53.333 0 95.166 -16.167 125.499 -48.5s45.5 -76.5 45.5 -132.5v-629h-150zM306.001 700l61 200h190l-150 -200h-101z" />
    <glyph glyph-name="iotatonos" unicode="&#x3af;" 
d="M491 -7c-69.333 0 -124.333 18.668 -165 56.001s-61 86.666 -61 147.999v288h-190v115h340v-384c0 -34.667 8.16699 -60.5 24.5 -77.5s39.833 -25.5 70.5 -25.5c17.333 0 35 2 53 6s33.333 8.66699 46 14l25 -112c-22.667 -8.66699 -46.167 -15.5 -70.5 -20.5
s-48.5 -7.5 -72.5 -7.5zM266 700.001l61 200h190l-150 -200h-101z" />
    <glyph glyph-name="upsilondieresistonos" unicode="&#x3b0;" 
d="M351 -10c-86.667 0 -153.5 21.333 -200.5 64s-70.5 102.667 -70.5 180v366h150v-362c0 -45.333 9.5 -78 28.5 -98s49.5 -30 91.5 -30s72.5 10 91.5 30s28.5 52 28.5 96v364h150v-366c0 -77.333 -23.333 -137.333 -70 -180s-113 -64 -199 -64zM273 700l46 200h146
l-105 -200h-87zM150 695c-21.333 0 -38.666 5 -51.999 15s-20 27.333 -20 52v11c0 25.333 6.66699 43.166 20 53.499s30.666 15.5 51.999 15.5s38.5 -5.16699 51.5 -15.5s19.5 -28.166 19.5 -53.499v-11c0 -24.667 -6.66699 -42 -20 -52s-30.333 -15 -51 -15zM550 695
c-20.667 0 -37.665 5 -50.998 15s-20 27.333 -20 52v11c0 25.333 6.66699 43.166 20 53.499s30.333 15.5 51 15.5c21.333 0 38.666 -5.16699 51.999 -15.5s20 -28.166 20 -53.499v-11c0 -24.667 -6.83301 -42 -20.5 -52s-30.834 -15 -51.501 -15z" />
    <glyph glyph-name="alpha" unicode="&#x3b1;" 
d="M310 113c23.333 0 45.001 6.66699 65.001 20s40 32.666 60 57.999v220c-20.667 24.667 -40.834 43.834 -60.501 57.501s-41.834 20.5 -66.501 20.5c-26 0 -46.167 -9.66699 -60.5 -29s-21.5 -48.333 -21.5 -87v-148c0 -38.667 7.33301 -67 22 -85s35.334 -27 62.001 -27z
M480.001 121l-29.998 -0.000976562c-18.667 -42 -44.5 -74.333 -77.5 -97s-71.5 -34 -115.5 -34c-55.333 0 -99.5 19 -132.5 57s-49.5 90.667 -49.5 158v181c0 68 16 122.5 48 163.5s73.333 61.5 124 61.5c36 0 67.167 -9.66699 93.5 -29s47.833 -48 64.5 -86h30v104h150
v-415c0 -33.333 6.66699 -54.666 20 -63.999s35 -11.666 65 -6.99902v-113c-54.667 -10.667 -97.834 -6.83398 -129.501 11.499s-51.834 54.5 -60.501 108.5z" />
    <glyph glyph-name="beta" unicode="&#x3b2;" 
d="M346 108c36.667 0 66.168 9.50293 88.501 28.5029s33.5 50.5 33.5 94.5v32c0 41.333 -10.333 70.666 -31 87.999s-51.334 26 -92.001 26h-40v98h34c34 0 59.333 7.33301 76 22s25 38 25 70v18c0 37.333 -8.66699 64.166 -26 80.499s-44 24.5 -80 24.5
s-62.333 -10.167 -79 -30.5s-25 -51.5 -25 -93.5v-425c16.667 -10.667 34.5 -18.834 53.5 -24.501s39.833 -8.5 62.5 -8.5zM367.001 -9.99707c-25.333 0 -49.5 2.1709 -72.5 6.50391s-44.5 10.166 -64.5 17.499v-214h-150v773c0 79.333 23.167 138.666 69.5 177.999
s107.833 59 184.5 59c75.333 0 136.5 -17.333 183.5 -52s70.5 -83 70.5 -145v-21c0 -38 -10.833 -69.333 -32.5 -94s-55.5 -41.334 -101.5 -50.001v-29c52 -4.66699 92.5 -21.834 121.5 -51.501s43.833 -67.167 44.5 -112.5v-41c0 -75.333 -24.833 -131.5 -74.5 -168.5
s-109.167 -55.5 -178.5 -55.5z" />
    <glyph glyph-name="gamma" unicode="&#x3b3;" 
d="M440 -200h-180l15 220l-226 580h155l148 -445l146 445h152l-225 -580z" />
    <glyph glyph-name="delta" unicode="&#x3b4;" 
d="M350 -10c-83.333 0 -149.166 19.1689 -197.499 57.502s-72.5 94.833 -72.5 169.5v92c0 38 11.167 71.667 33.5 101s56.166 53.666 101.499 72.999c-38 17.333 -65 37 -81 59s-24 49.667 -24 83c0 60 20 104.167 60 132.5s99 42.5 177 42.5h195v-115h-195
c-31.333 0 -54.833 -3.83301 -70.5 -11.5s-23.5 -23.834 -23.5 -48.501c0 -18 9.16699 -32.5 27.5 -43.5s63.166 -28.167 134.499 -51.5c75.333 -24.667 128.333 -53 159 -85s46 -77.333 46 -136v-92c0 -74.667 -24.167 -131.167 -72.5 -169.5
s-114.166 -57.5 -197.499 -57.5zM350 105.002c40 0 70.001 8.66699 90.001 26s30 46 30 86v92c0 34.667 -10.333 61.167 -31 79.5s-63 37.166 -127 56.499c-26 -13.333 -46.167 -31.166 -60.5 -53.499s-21.5 -49.833 -21.5 -82.5v-92c0 -40 10.167 -68.667 30.5 -86
s50.166 -26 89.499 -26z" />
    <glyph glyph-name="epsilon" unicode="&#x3b5;" 
d="M359 -10c-98 0 -170.501 14 -217.501 42s-70.5 71 -70.5 129v15c0 32.667 13 61 39 85s65 37.667 117 41v22c-42.667 2.66699 -76.334 13.167 -101.001 31.5s-37 43.833 -37 76.5v19c0 56 23.167 96.5 69.5 121.5s113.166 37.5 200.499 37.5
c84 0 147.333 -15.167 190 -45.5s66.667 -78.5 72 -144.5l-139 -8c-4 34 -15 58.5 -33 73.5s-48 22.5 -90 22.5c-44 0 -75 -5.16699 -93 -15.5s-27 -27.5 -27 -51.5v-14c0 -24.667 9 -41.667 27 -51s48 -14 90 -14h56v-90h-56c-53.333 0 -89.166 -6.5 -107.499 -19.5
s-27.5 -33.5 -27.5 -61.5v-10c0 -28.667 9.83301 -49.834 29.5 -63.501s55.834 -20.5 108.501 -20.5s88.167 8.33301 106.5 25s29.833 42.334 34.5 77.001l139 -7c-5.33301 -67.333 -28.666 -117.833 -69.999 -151.5s-111.333 -50.5 -210 -50.5z" />
    <glyph glyph-name="zeta" unicode="&#x3b6;" 
d="M405 -200l-125.001 0.000976562v110h130c22.667 0 40.834 3.83301 54.501 11.5s20.5 23.834 20.5 48.501s-6.83301 41.334 -20.5 50.001s-31.834 13 -54.501 13h-75c-87.333 0 -152 20.5 -194 61.5s-63 94.5 -63 160.5c0 49.333 10 92.166 30 128.499
s49.667 75.5 89 117.5l112 121l-6 15c-66 -12.667 -120.833 -3.83398 -164.5 26.499s-77.5 75.166 -101.5 134.499l94 44c22.667 -48 55.334 -80.333 98.001 -97s97.667 -16.667 165 0l201 82l33 -144l-171 -35l-149 -185c-24.667 -33.333 -44.167 -64.333 -58.5 -93
s-21.5 -62.667 -21.5 -102c0 -40 8.83301 -70.833 26.5 -92.5s44.5 -32.5 80.5 -32.5h89c61.333 0 109.333 -13.667 144 -41s52 -70 52 -128s-19.333 -101.5 -58 -130.5s-91 -43.5 -157 -43.5z" />
    <glyph glyph-name="eta" unicode="&#x3b7;" 
d="M470 -200l0.000976562 599c0 29.333 -7.5 51.5 -22.5 66.5s-36.833 22.5 -65.5 22.5c-26 0 -52 -7.16699 -78 -21.5s-50.667 -35.833 -74 -64.5v-402h-150v600h150v-105h30c15.333 36 39.833 64.167 73.5 84.5s72.167 30.5 115.5 30.5
c53.333 0 95.166 -16.167 125.499 -48.5s45.5 -76.5 45.5 -132.5v-629h-150z" />
    <glyph glyph-name="theta" unicode="&#x3b8;" 
d="M350 -10c-81.333 0 -146.667 19.5 -196 58.5s-74 95.167 -74 168.5v362c0 74.667 24.667 131.834 74 171.501s115 59.5 197 59.5c81.333 0 146.5 -19.833 195.5 -59.5s73.5 -96.834 73.5 -171.501v-362c0 -73.333 -24.5 -129.5 -73.5 -168.5s-114.5 -58.5 -196.5 -58.5z
M224.999 576v-118h250v119c0 39.333 -9.83301 68.833 -29.5 88.5s-51.5 29.5 -95.5 29.5s-75.833 -10 -95.5 -30s-29.5 -49.667 -29.5 -89zM349.999 105c44 0 75.833 9.66699 95.5 29s29.5 49.666 29.5 90.999v128h-250v-128c0 -41.333 9.83301 -71.666 29.5 -90.999
s51.5 -29 95.5 -29z" />
    <glyph glyph-name="iota" unicode="&#x3b9;" 
d="M491 -7c-69.333 0 -124.333 18.668 -165 56.001s-61 86.666 -61 147.999v288h-190v115h340v-384c0 -34.667 8.16699 -60.5 24.5 -77.5s39.833 -25.5 70.5 -25.5c17.333 0 35 2 53 6s33.333 8.66699 46 14l25 -112c-22.667 -8.66699 -46.167 -15.5 -70.5 -20.5
s-48.5 -7.5 -72.5 -7.5z" />
    <glyph glyph-name="kappa" unicode="&#x3ba;" 
d="M260 259v-259h-150v600h150v-234h44l173 234h163l-213 -274l210 -326h-163l-170 259h-44z" />
    <glyph glyph-name="lambda" unicode="&#x3bb;" 
d="M496 0l-149.999 479l-145 -479h-152l179 555h94l-8 24c-12 39.333 -28.333 67.833 -49 85.5s-51.667 26.5 -93 26.5c-12 0 -25.167 -0.666992 -39.5 -2s-29.833 -3.33301 -46.5 -6l-18 115c18.667 2.66699 37.167 4.66699 55.5 6s35.833 2 52.5 2
c68.667 0 124.167 -13.333 166.5 -40s74.166 -72 95.499 -136l212 -630h-154z" />
    <glyph glyph-name="mu" unicode="&#x3bc;" 
d="M235 20l10 -220.002h-170l10 220v580h150v-389c0 -34 8.5 -58.5 25.5 -73.5s37.833 -22.5 62.5 -22.5c24 0 44.5 5.33301 61.5 16s33.833 25.334 50.5 44.001v425h150v-415c0 -33.333 6.16699 -54.5 18.5 -63.5s32.833 -11.5 61.5 -7.5v-113
c-47.333 -9.33301 -84.166 -6.83301 -110.499 7.5s-44.833 41.5 -55.5 81.5h-25c-12.667 -26.667 -30.5 -50 -53.5 -70s-53.167 -30 -90.5 -30c-20.667 0 -38.834 3.83301 -54.501 11.5s-29.167 18.834 -40.5 33.501v-15z" />
    <glyph glyph-name="nu" unicode="&#x3bd;" 
d="M427 0l-154.999 0.000976562l-223 600h153l165 -475c38.667 77.333 69.334 158 92.001 242s37 161.667 43 233h148c-12.667 -112.667 -39.334 -219.334 -80.001 -320.001s-88.334 -194 -143.001 -280z" />
    <glyph glyph-name="xi" unicode="&#x3be;" 
d="M630 -26c0 -57.333 -18.8301 -100.669 -56.4971 -130.002s-92.167 -44 -163.5 -44h-115v110h120c24.667 0 44.167 3.83301 58.5 11.5s21.5 23.834 21.5 48.501s-7.16699 41.334 -21.5 50.001s-33.833 13 -58.5 13h-90c-74 0 -132.5 16.333 -175.5 49
s-64.5 77.667 -64.5 135v22c0 40 14.667 74.833 44 104.5s73.666 46.834 132.999 51.501v23c-38 0 -67 9.83301 -87 29.5s-30 43.167 -30 70.5c0 26.667 8.5 49.334 25.5 68.001s42.5 32 76.5 40v23c-61.333 0.666992 -110.833 14.167 -148.5 40.5
s-64.834 62.5 -81.501 108.5l94 44c22 -42 55.167 -70.833 99.5 -86.5s98.833 -17.5 163.5 -5.5l206 77l33 -144l-217 -40l-43 -24c-20 -10.667 -34.667 -23.834 -44 -39.501s-14 -33.5 -14 -53.5c0 -24 6.16699 -41 18.5 -51s27.5 -15 45.5 -15h181v-110h-184
c-42.667 0 -73.5 -9.33301 -92.5 -28s-28.5 -41.334 -28.5 -68.001v-22c0 -26.667 9.5 -48.167 28.5 -64.5s49.5 -24.5 91.5 -24.5h74c65.333 0 115.166 -13.667 149.499 -41s51.5 -70 51.5 -128z" />
    <glyph glyph-name="omicron" unicode="&#x3bf;" 
d="M350 -10c-85.333 0 -151.668 19.833 -199.001 59.5s-71 95.5 -71 167.5v162c0 73.333 23.833 130.166 71.5 170.499s114.167 60.5 199.5 60.5s151.5 -20.5 198.5 -61.5s70.5 -98.167 70.5 -171.5v-162c0 -71.333 -23.667 -126.666 -71 -165.999
s-113.666 -59 -198.999 -59zM349.998 105c41.333 0 71.666 9.5 90.999 28.5s29 48.5 29 88.5v153c0 41.333 -9.66699 71.666 -29 90.999s-49.666 29 -90.999 29s-71.666 -9.66699 -90.999 -29s-29 -49.333 -29 -90v-151c0 -41.333 9.66699 -71.666 29 -90.999
s49.666 -29 90.999 -29z" />
    <glyph glyph-name="pi" unicode="&#x3c0;" 
d="M640 600v-114.999h-100v-300c0 -32.667 7.83301 -53.834 23.5 -63.501s44.5 -12.167 86.5 -7.5v-113c-82 -12.667 -144.167 -6.5 -186.5 18.5s-63.5 68.167 -63.5 129.5v336h-150v-485h-140v485h-85v115h615z" />
    <glyph glyph-name="rho" unicode="&#x3c1;" 
d="M375 113c31.333 0 55 9.83301 71 29.5s24 48.5 24 86.5v151c0 39.333 -9.83301 68.166 -29.5 86.499s-49.167 27.5 -88.5 27.5c-40 0 -70.333 -9.16699 -91 -27.5s-31 -47.166 -31 -86.499v-190c24.667 -26 49 -45.333 73 -58s48 -19 72 -19zM80 -200
l-0.000976562 579.999c0 76 23.5 133 70.5 171s112.5 57 196.5 57c86.667 0 153.834 -19 201.501 -57s71.5 -95 71.5 -171v-171c0 -67.333 -18 -120.666 -54 -159.999s-83.667 -59 -143 -59c-40 0 -74 10.167 -102 30.5s-48.333 48.5 -61 84.5h-30v-305h-150z" />
    <glyph glyph-name="sigma1" unicode="&#x3c2;" 
d="M277 -200l-0.00195312 115.002h130c22.667 0 40.834 3.66699 54.501 11s20.5 22.666 20.5 45.999c0 24.667 -6.83301 41 -20.5 49s-31.834 12 -54.501 12h-86c-80.667 0 -141 20.667 -181 62s-60 99.666 -60 174.999v107c0 74.667 22.833 132.167 68.5 172.5
s113.834 60.5 204.501 60.5c84.667 0 147 -18.667 187 -56s63.667 -92.333 71 -165l-143 -11c-2.66699 42.667 -13 72.834 -31 90.501s-47 26.5 -87 26.5c-43.333 0 -74.166 -9.5 -92.499 -28.5s-27.5 -50.167 -27.5 -93.5v-103c0 -43.333 9 -74.5 27 -93.5
s48 -28.5 90 -28.5h90c58 0 103.333 -14.333 136 -43s49 -71.334 49 -128.001c0 -56 -20.833 -99.5 -62.5 -130.5s-99.167 -46.5 -172.5 -46.5h-110z" />
    <glyph glyph-name="sigma" unicode="&#x3c3;" 
d="M330 105c34.667 0 60 9.00098 76 27.001s24 47.333 24 88v147c0 41.333 -8 72.166 -24 92.499s-41.333 30.5 -76 30.5c-34 0 -59.167 -9.5 -75.5 -28.5s-24.5 -47.5 -24.5 -85.5v-156c0 -40.667 8.16699 -70 24.5 -88s41.5 -27 75.5 -27zM330 -9.99902
c-76 0 -136.667 19.5 -182 58.5s-68 95.167 -68 168.5v157c0 71.333 22.833 126.833 68.5 166.5s106.5 59.5 182.5 59.5h369v-125l-175 13c18 -17.333 31.667 -38.5 41 -63.5s14 -53.5 14 -85.5v-122c0 -73.333 -22.5 -129.5 -67.5 -168.5s-105.833 -58.5 -182.5 -58.5z" />
    <glyph glyph-name="tau" unicode="&#x3c4;" 
d="M545 1c-89.333 -14 -156.666 -8.66699 -201.999 16s-68 68.667 -68 132v331h-200v120h560v-120h-210v-295c0 -32.667 8.66699 -54 26 -64s48.666 -12.333 93.999 -7v-113z" />
    <glyph glyph-name="upsilon" unicode="&#x3c5;" 
d="M351 -10c-86.667 0 -153.5 21.333 -200.5 64s-70.5 102.667 -70.5 180v366h150v-362c0 -45.333 9.5 -78 28.5 -98s49.5 -30 91.5 -30s72.5 10 91.5 30s28.5 52 28.5 96v364h150v-366c0 -77.333 -23.333 -137.333 -70 -180s-113 -64 -199 -64z" />
    <glyph glyph-name="phi" unicode="&#x3c6;" 
d="M413 -200l-126.001 0.000976562v195c-73.333 11.333 -131.333 42.5 -174 93.5s-64 118.833 -64 203.5v67c0 52 4.83301 99.5 14.5 142.5s23.834 79.833 42.501 110.5l122 -32c-14.667 -26.667 -27 -58.834 -37 -96.501s-15 -79.167 -15 -124.5v-67
c0 -56.667 9.66699 -100 29 -130s50 -49 92 -57v495h95c79.333 0 142.5 -24.333 189.5 -73s70.5 -119.667 70.5 -213v-47c0 -77.333 -21.5 -139.5 -64.5 -186.5s-101.167 -75.833 -174.5 -86.5v-194zM402.999 490.001l-0.000976562 -386c46 6 79.5 22.167 100.5 48.5
s31.5 64.5 31.5 114.5v47c0 61.333 -11.167 106 -33.5 134s-55.166 42 -98.499 42z" />
    <glyph glyph-name="chi" unicode="&#x3c7;" 
d="M466 -200l-126 262l-132 -262h-147l213 396l-196 404h149l130 -266l135 266h147l-217 -400l195 -400h-151z" />
    <glyph glyph-name="psi" unicode="&#x3c8;" 
d="M413 -200h-126v188c-80.667 9.33301 -140.5 36.5 -179.5 81.5s-58.5 104.167 -58.5 177.5v353h127v-338c0 -46.667 9.16699 -82.667 27.5 -108s47.833 -41.333 88.5 -48v494h116v-494c40.667 6.66699 70.167 22.667 88.5 48s27.5 61.333 27.5 108v338h128v-353
c0 -73.333 -19.667 -132.5 -59 -177.5s-99.333 -72.167 -180 -81.5v-188z" />
    <glyph glyph-name="omega" unicode="&#x3c9;" 
d="M198 -10c-44.667 0 -80.668 21.5 -108.001 64.5s-41 105.5 -41 187.5v117c0 52.667 4.66699 101 14 145s22 81.667 38 113l122 -32c-12.667 -34.667 -23.667 -71.5 -33 -110.5s-14 -77.5 -14 -115.5v-117c0 -44 4.83301 -77 14.5 -99s23.834 -33 42.501 -33
c20 0 34.833 7.66699 44.5 23s14.5 40 14.5 74v243h116v-243c0 -34 5 -58.667 15 -74s25 -23 45 -23c18.667 0 32.667 11 42 33s14 55 14 99v117c0 38 -4.66699 76.5 -14 115.5s-20.333 75.833 -33 110.5l123 32c16 -31.333 28.667 -69 38 -113s14 -92.333 14 -145v-117
c0 -82 -14 -144.5 -42 -187.5s-65 -64.5 -111 -64.5c-30.667 0 -58.667 9.66699 -84 29s-43.666 53.666 -54.999 102.999h-21c-8.66699 -49.333 -26.334 -83.666 -53.001 -102.999s-56 -29 -88 -29z" />
    <glyph glyph-name="iotadieresis" unicode="&#x3ca;" 
d="M491 -7c-69.333 0 -124.333 18.668 -165 56.001s-61 86.666 -61 147.999v288h-190v115h340v-384c0 -34.667 8.16699 -60.5 24.5 -77.5s39.833 -25.5 70.5 -25.5c17.333 0 35 2 53 6s33.333 8.66699 46 14l25 -112c-22.667 -8.66699 -46.167 -15.5 -70.5 -20.5
s-48.5 -7.5 -72.5 -7.5zM222 700.001c-24 0 -43.5 5 -58.5 15s-22.5 27.333 -22.5 52v11c0 25.333 7.5 43.166 22.5 53.499s34.5 15.5 58.5 15.5c24.667 0 44.5 -5.16699 59.5 -15.5s22.5 -28.166 22.5 -53.499v-11c0 -24.667 -7.66699 -42 -23 -52s-35 -15 -59 -15z
M468 700.001c-24.667 0 -44.502 5 -59.502 15s-22.5 27.333 -22.5 52v11c0 25.333 7.5 43.166 22.5 53.499s34.833 15.5 59.5 15.5s44.334 -5.16699 59.001 -15.5s22 -28.166 22 -53.499v-11c0 -24.667 -7.66699 -42 -23 -52s-34.666 -15 -57.999 -15z" />
    <glyph glyph-name="upsilondieresis" unicode="&#x3cb;" 
d="M351 -10c-86.667 0 -153.5 21.333 -200.5 64s-70.5 102.667 -70.5 180v366h150v-362c0 -45.333 9.5 -78 28.5 -98s49.5 -30 91.5 -30s72.5 10 91.5 30s28.5 52 28.5 96v364h150v-366c0 -77.333 -23.333 -137.333 -70 -180s-113 -64 -199 -64zM227 700
c-24 0 -43.5 5 -58.5 15s-22.5 27.333 -22.5 52v11c0 25.333 7.5 43.166 22.5 53.499s34.5 15.5 58.5 15.5c24.667 0 44.5 -5.16699 59.5 -15.5s22.5 -28.166 22.5 -53.499v-11c0 -24.667 -7.66699 -42 -23 -52s-35 -15 -59 -15zM473 700c-24.667 0 -44.502 5 -59.502 15
s-22.5 27.333 -22.5 52v11c0 25.333 7.5 43.166 22.5 53.499s34.833 15.5 59.5 15.5s44.334 -5.16699 59.001 -15.5s22 -28.166 22 -53.499v-11c0 -24.667 -7.66699 -42 -23 -52s-34.666 -15 -57.999 -15z" />
    <glyph glyph-name="omicrontonos" unicode="&#x3cc;" 
d="M350 -10c-85.333 0 -151.668 19.833 -199.001 59.5s-71 95.5 -71 167.5v162c0 73.333 23.833 130.166 71.5 170.499s114.167 60.5 199.5 60.5s151.5 -20.5 198.5 -61.5s70.5 -98.167 70.5 -171.5v-162c0 -71.333 -23.667 -126.666 -71 -165.999
s-113.666 -59 -198.999 -59zM349.998 105c41.333 0 71.666 9.5 90.999 28.5s29 48.5 29 88.5v153c0 41.333 -9.66699 71.666 -29 90.999s-49.666 29 -90.999 29s-71.666 -9.66699 -90.999 -29s-29 -49.333 -29 -90v-151c0 -41.333 9.66699 -71.666 29 -90.999
s49.666 -29 90.999 -29zM265.998 700l61 200h190l-150 -200h-101z" />
    <glyph glyph-name="upsilontonos" unicode="&#x3cd;" 
d="M351 -10c-86.667 0 -153.5 21.333 -200.5 64s-70.5 102.667 -70.5 180v366h150v-362c0 -45.333 9.5 -78 28.5 -98s49.5 -30 91.5 -30s72.5 10 91.5 30s28.5 52 28.5 96v364h150v-366c0 -77.333 -23.333 -137.333 -70 -180s-113 -64 -199 -64zM261 700l61 200h190
l-150 -200h-101z" />
    <glyph glyph-name="omegatonos" unicode="&#x3ce;" 
d="M198 -10c-44.667 0 -80.668 21.5 -108.001 64.5s-41 105.5 -41 187.5v117c0 52.667 4.66699 101 14 145s22 81.667 38 113l122 -32c-12.667 -34.667 -23.667 -71.5 -33 -110.5s-14 -77.5 -14 -115.5v-117c0 -44 4.83301 -77 14.5 -99s23.834 -33 42.501 -33
c20 0 34.833 7.66699 44.5 23s14.5 40 14.5 74v243h116v-243c0 -34 5 -58.667 15 -74s25 -23 45 -23c18.667 0 32.667 11 42 33s14 55 14 99v117c0 38 -4.66699 76.5 -14 115.5s-20.333 75.833 -33 110.5l123 32c16 -31.333 28.667 -69 38 -113s14 -92.333 14 -145v-117
c0 -82 -14 -144.5 -42 -187.5s-65 -64.5 -111 -64.5c-30.667 0 -58.667 9.66699 -84 29s-43.666 53.666 -54.999 102.999h-21c-8.66699 -49.333 -26.334 -83.666 -53.001 -102.999s-56 -29 -88 -29zM273.999 700l61 200h190l-150 -200h-101z" />
    <glyph glyph-name="IEgravecyrillic" unicode="&#x400;" 
d="M75 0v800h560v-120h-410v-190h360v-120h-360v-250h410v-120h-560zM346 900l-210 200h200l121 -200h-111z" />
    <glyph glyph-name="Iocyrillic" unicode="&#x401;" 
d="M75 0v800h560v-120h-410v-190h360v-120h-360v-250h410v-120h-560zM247 900c-24 0 -43.5 5 -58.5 15s-22.5 27.333 -22.5 52v11c0 25.333 7.5 43.166 22.5 53.499s34.5 15.5 58.5 15.5c24.667 0 44.5 -5.16699 59.5 -15.5s22.5 -28.166 22.5 -53.499v-11
c0 -24.667 -7.66699 -42 -23 -52s-35 -15 -59 -15zM493 900c-24.667 0 -44.502 5 -59.502 15s-22.5 27.333 -22.5 52v11c0 25.333 7.5 43.166 22.5 53.499s34.833 15.5 59.5 15.5s44.334 -5.16699 59.001 -15.5s22 -28.166 22 -53.499v-11c0 -24.667 -7.66699 -42 -23 -52
s-34.666 -15 -57.999 -15z" />
    <glyph glyph-name="Djecyrillic" unicode="&#x402;" 
d="M150 0v680.001h-130v120h480v-120h-200v-160h100c82.667 0 145 -18.333 187 -55s63 -93.667 63 -171v-69c0 -76.667 -21 -133.334 -63 -170.001s-104.333 -55 -187 -55v118c32.667 0 58.334 8 77.001 24s28 44.333 28 85v65c0 41.333 -9.33301 70 -28 86
s-44.334 24 -77.001 24h-100v-402h-150z" />
    <glyph glyph-name="Gjecyrillic" unicode="&#x403;" 
d="M100 0v800h545v-120h-395v-680h-150zM266 900l121 200h200l-210 -200h-111z" />
    </font>
</defs>
</svg>
